%TF.GenerationSoftware,KiCad,Pcbnew,(5.1.10)-1*%
%TF.CreationDate,2021-09-28T22:39:20-06:00*%
%TF.ProjectId,MX47,4d583437-2e6b-4696-9361-645f70636258,rev?*%
%TF.SameCoordinates,Original*%
%TF.FileFunction,Soldermask,Top*%
%TF.FilePolarity,Negative*%
%FSLAX46Y46*%
G04 Gerber Fmt 4.6, Leading zero omitted, Abs format (unit mm)*
G04 Created by KiCad (PCBNEW (5.1.10)-1) date 2021-09-28 22:39:20*
%MOMM*%
%LPD*%
G01*
G04 APERTURE LIST*
%ADD10C,3.050000*%
%ADD11C,4.000000*%
%ADD12C,3.000000*%
%ADD13C,1.750000*%
%ADD14C,2.200000*%
G04 APERTURE END LIST*
D10*
%TO.C,U42*%
X153797000Y-123840000D03*
D11*
X153797000Y-108600000D03*
X177673000Y-108600000D03*
D10*
X177673000Y-123840000D03*
D12*
X163195000Y-121920000D03*
X169545000Y-119380000D03*
D13*
X160655000Y-116840000D03*
X170815000Y-116840000D03*
D11*
X165735000Y-116840000D03*
%TD*%
D14*
%TO.C,H16*%
X280035000Y-88265000D03*
%TD*%
%TO.C,H15*%
X241935000Y-126365000D03*
%TD*%
%TO.C,H14*%
X165735000Y-126365000D03*
%TD*%
%TO.C,H13*%
X89535000Y-126365000D03*
%TD*%
%TO.C,H12*%
X241935000Y-50165000D03*
%TD*%
%TO.C,H11*%
X165735000Y-50165000D03*
%TD*%
%TO.C,H10*%
X89535000Y-50165000D03*
%TD*%
%TO.C,H9*%
X51435000Y-88265000D03*
%TD*%
D12*
%TO.C,U47*%
X267970000Y-121920000D03*
X274320000Y-119380000D03*
D13*
X265430000Y-116840000D03*
X275590000Y-116840000D03*
D11*
X270510000Y-116840000D03*
%TD*%
D12*
%TO.C,U46*%
X248920000Y-121920000D03*
X255270000Y-119380000D03*
D13*
X246380000Y-116840000D03*
X256540000Y-116840000D03*
D11*
X251460000Y-116840000D03*
%TD*%
D12*
%TO.C,U45*%
X229870000Y-121920000D03*
X236220000Y-119380000D03*
D13*
X227330000Y-116840000D03*
X237490000Y-116840000D03*
D11*
X232410000Y-116840000D03*
%TD*%
D12*
%TO.C,U44*%
X210820000Y-121920000D03*
X217170000Y-119380000D03*
D13*
X208280000Y-116840000D03*
X218440000Y-116840000D03*
D11*
X213360000Y-116840000D03*
%TD*%
D12*
%TO.C,U43*%
X191770000Y-121920000D03*
X198120000Y-119380000D03*
D13*
X189230000Y-116840000D03*
X199390000Y-116840000D03*
D11*
X194310000Y-116840000D03*
%TD*%
D12*
%TO.C,U41*%
X134620000Y-121920000D03*
X140970000Y-119380000D03*
D13*
X132080000Y-116840000D03*
X142240000Y-116840000D03*
D11*
X137160000Y-116840000D03*
%TD*%
D12*
%TO.C,U40*%
X115570000Y-121920000D03*
X121920000Y-119380000D03*
D13*
X113030000Y-116840000D03*
X123190000Y-116840000D03*
D11*
X118110000Y-116840000D03*
%TD*%
D12*
%TO.C,U39*%
X96520000Y-121920000D03*
X102870000Y-119380000D03*
D13*
X93980000Y-116840000D03*
X104140000Y-116840000D03*
D11*
X99060000Y-116840000D03*
%TD*%
D12*
%TO.C,U38*%
X77470000Y-121920000D03*
X83820000Y-119380000D03*
D13*
X74930000Y-116840000D03*
X85090000Y-116840000D03*
D11*
X80010000Y-116840000D03*
%TD*%
D12*
%TO.C,U37*%
X58420000Y-121920000D03*
X64770000Y-119380000D03*
D13*
X55880000Y-116840000D03*
X66040000Y-116840000D03*
D11*
X60960000Y-116840000D03*
%TD*%
D12*
%TO.C,U36*%
X267970000Y-102870000D03*
X274320000Y-100330000D03*
D13*
X265430000Y-97790000D03*
X275590000Y-97790000D03*
D11*
X270510000Y-97790000D03*
%TD*%
D12*
%TO.C,U35*%
X248920000Y-102870000D03*
X255270000Y-100330000D03*
D13*
X246380000Y-97790000D03*
X256540000Y-97790000D03*
D11*
X251460000Y-97790000D03*
%TD*%
D12*
%TO.C,U34*%
X229870000Y-102870000D03*
X236220000Y-100330000D03*
D13*
X227330000Y-97790000D03*
X237490000Y-97790000D03*
D11*
X232410000Y-97790000D03*
%TD*%
D12*
%TO.C,U33*%
X210820000Y-102870000D03*
X217170000Y-100330000D03*
D13*
X208280000Y-97790000D03*
X218440000Y-97790000D03*
D11*
X213360000Y-97790000D03*
%TD*%
D12*
%TO.C,U32*%
X191770000Y-102870000D03*
X198120000Y-100330000D03*
D13*
X189230000Y-97790000D03*
X199390000Y-97790000D03*
D11*
X194310000Y-97790000D03*
%TD*%
D12*
%TO.C,U31*%
X172720000Y-102870000D03*
X179070000Y-100330000D03*
D13*
X170180000Y-97790000D03*
X180340000Y-97790000D03*
D11*
X175260000Y-97790000D03*
%TD*%
D12*
%TO.C,U30*%
X153670000Y-102870000D03*
X160020000Y-100330000D03*
D13*
X151130000Y-97790000D03*
X161290000Y-97790000D03*
D11*
X156210000Y-97790000D03*
%TD*%
D12*
%TO.C,U29*%
X134620000Y-102870000D03*
X140970000Y-100330000D03*
D13*
X132080000Y-97790000D03*
X142240000Y-97790000D03*
D11*
X137160000Y-97790000D03*
%TD*%
D12*
%TO.C,U28*%
X115570000Y-102870000D03*
X121920000Y-100330000D03*
D13*
X113030000Y-97790000D03*
X123190000Y-97790000D03*
D11*
X118110000Y-97790000D03*
%TD*%
D12*
%TO.C,U27*%
X96520000Y-102870000D03*
X102870000Y-100330000D03*
D13*
X93980000Y-97790000D03*
X104140000Y-97790000D03*
D11*
X99060000Y-97790000D03*
%TD*%
D12*
%TO.C,U26*%
X77470000Y-102870000D03*
X83820000Y-100330000D03*
D13*
X74930000Y-97790000D03*
X85090000Y-97790000D03*
D11*
X80010000Y-97790000D03*
%TD*%
D12*
%TO.C,U25*%
X58420000Y-102870000D03*
X64770000Y-100330000D03*
D13*
X55880000Y-97790000D03*
X66040000Y-97790000D03*
D11*
X60960000Y-97790000D03*
%TD*%
D12*
%TO.C,U24*%
X267970000Y-83820000D03*
X274320000Y-81280000D03*
D13*
X265430000Y-78740000D03*
X275590000Y-78740000D03*
D11*
X270510000Y-78740000D03*
%TD*%
D12*
%TO.C,U23*%
X248920000Y-83820000D03*
X255270000Y-81280000D03*
D13*
X246380000Y-78740000D03*
X256540000Y-78740000D03*
D11*
X251460000Y-78740000D03*
%TD*%
D12*
%TO.C,U22*%
X229870000Y-83820000D03*
X236220000Y-81280000D03*
D13*
X227330000Y-78740000D03*
X237490000Y-78740000D03*
D11*
X232410000Y-78740000D03*
%TD*%
D12*
%TO.C,U21*%
X210820000Y-83820000D03*
X217170000Y-81280000D03*
D13*
X208280000Y-78740000D03*
X218440000Y-78740000D03*
D11*
X213360000Y-78740000D03*
%TD*%
D12*
%TO.C,U20*%
X191770000Y-83820000D03*
X198120000Y-81280000D03*
D13*
X189230000Y-78740000D03*
X199390000Y-78740000D03*
D11*
X194310000Y-78740000D03*
%TD*%
D12*
%TO.C,U19*%
X172720000Y-83820000D03*
X179070000Y-81280000D03*
D13*
X170180000Y-78740000D03*
X180340000Y-78740000D03*
D11*
X175260000Y-78740000D03*
%TD*%
D12*
%TO.C,U18*%
X153670000Y-83820000D03*
X160020000Y-81280000D03*
D13*
X151130000Y-78740000D03*
X161290000Y-78740000D03*
D11*
X156210000Y-78740000D03*
%TD*%
D12*
%TO.C,U17*%
X134620000Y-83820000D03*
X140970000Y-81280000D03*
D13*
X132080000Y-78740000D03*
X142240000Y-78740000D03*
D11*
X137160000Y-78740000D03*
%TD*%
D12*
%TO.C,U16*%
X115570000Y-83820000D03*
X121920000Y-81280000D03*
D13*
X113030000Y-78740000D03*
X123190000Y-78740000D03*
D11*
X118110000Y-78740000D03*
%TD*%
D12*
%TO.C,U15*%
X96520000Y-83820000D03*
X102870000Y-81280000D03*
D13*
X93980000Y-78740000D03*
X104140000Y-78740000D03*
D11*
X99060000Y-78740000D03*
%TD*%
D12*
%TO.C,U14*%
X77470000Y-83820000D03*
X83820000Y-81280000D03*
D13*
X74930000Y-78740000D03*
X85090000Y-78740000D03*
D11*
X80010000Y-78740000D03*
%TD*%
D12*
%TO.C,U13*%
X58420000Y-83820000D03*
X64770000Y-81280000D03*
D13*
X55880000Y-78740000D03*
X66040000Y-78740000D03*
D11*
X60960000Y-78740000D03*
%TD*%
D12*
%TO.C,U12*%
X267970000Y-64770000D03*
X274320000Y-62230000D03*
D13*
X265430000Y-59690000D03*
X275590000Y-59690000D03*
D11*
X270510000Y-59690000D03*
%TD*%
D12*
%TO.C,U11*%
X248920000Y-64770000D03*
X255270000Y-62230000D03*
D13*
X246380000Y-59690000D03*
X256540000Y-59690000D03*
D11*
X251460000Y-59690000D03*
%TD*%
D12*
%TO.C,U10*%
X229870000Y-64770000D03*
X236220000Y-62230000D03*
D13*
X227330000Y-59690000D03*
X237490000Y-59690000D03*
D11*
X232410000Y-59690000D03*
%TD*%
D12*
%TO.C,U9*%
X210820000Y-64770000D03*
X217170000Y-62230000D03*
D13*
X208280000Y-59690000D03*
X218440000Y-59690000D03*
D11*
X213360000Y-59690000D03*
%TD*%
D12*
%TO.C,U8*%
X191770000Y-64770000D03*
X198120000Y-62230000D03*
D13*
X189230000Y-59690000D03*
X199390000Y-59690000D03*
D11*
X194310000Y-59690000D03*
%TD*%
D12*
%TO.C,U7*%
X172720000Y-64770000D03*
X179070000Y-62230000D03*
D13*
X170180000Y-59690000D03*
X180340000Y-59690000D03*
D11*
X175260000Y-59690000D03*
%TD*%
D12*
%TO.C,U6*%
X153670000Y-64770000D03*
X160020000Y-62230000D03*
D13*
X151130000Y-59690000D03*
X161290000Y-59690000D03*
D11*
X156210000Y-59690000D03*
%TD*%
D12*
%TO.C,U5*%
X134620000Y-64770000D03*
X140970000Y-62230000D03*
D13*
X132080000Y-59690000D03*
X142240000Y-59690000D03*
D11*
X137160000Y-59690000D03*
%TD*%
D12*
%TO.C,U4*%
X115570000Y-64770000D03*
X121920000Y-62230000D03*
D13*
X113030000Y-59690000D03*
X123190000Y-59690000D03*
D11*
X118110000Y-59690000D03*
%TD*%
D12*
%TO.C,U3*%
X96520000Y-64770000D03*
X102870000Y-62230000D03*
D13*
X93980000Y-59690000D03*
X104140000Y-59690000D03*
D11*
X99060000Y-59690000D03*
%TD*%
D12*
%TO.C,U2*%
X77470000Y-64770000D03*
X83820000Y-62230000D03*
D13*
X74930000Y-59690000D03*
X85090000Y-59690000D03*
D11*
X80010000Y-59690000D03*
%TD*%
D12*
%TO.C,U1*%
X58420000Y-64770000D03*
X64770000Y-62230000D03*
D13*
X55880000Y-59690000D03*
X66040000Y-59690000D03*
D11*
X60960000Y-59690000D03*
%TD*%
D14*
%TO.C,H8*%
X280035000Y-126365000D03*
%TD*%
%TO.C,H4*%
X203835000Y-126365000D03*
%TD*%
%TO.C,H7*%
X127635000Y-126365000D03*
%TD*%
%TO.C,H3*%
X51435000Y-126365000D03*
%TD*%
%TO.C,H6*%
X280035000Y-50165000D03*
%TD*%
%TO.C,H2*%
X203835000Y-50165000D03*
%TD*%
%TO.C,H5*%
X127635000Y-50165000D03*
%TD*%
%TO.C,H1*%
X51435000Y-50165000D03*
%TD*%
M02*
