%TF.GenerationSoftware,KiCad,Pcbnew,(5.1.10)-1*%
%TF.CreationDate,2021-09-28T16:44:32-06:00*%
%TF.ProjectId,MX47,4d583437-2e6b-4696-9361-645f70636258,rev?*%
%TF.SameCoordinates,Original*%
%TF.FileFunction,Legend,Bot*%
%TF.FilePolarity,Positive*%
%FSLAX46Y46*%
G04 Gerber Fmt 4.6, Leading zero omitted, Abs format (unit mm)*
G04 Created by KiCad (PCBNEW (5.1.10)-1) date 2021-09-28 16:44:32*
%MOMM*%
%LPD*%
G01*
G04 APERTURE LIST*
%ADD10C,0.150000*%
%ADD11C,0.300000*%
%ADD12C,0.120000*%
G04 APERTURE END LIST*
D10*
X100504047Y-108037380D02*
X100504047Y-108751666D01*
X100551666Y-108894523D01*
X100646904Y-108989761D01*
X100789761Y-109037380D01*
X100885000Y-109037380D01*
X99551666Y-109037380D02*
X100027857Y-109037380D01*
X100027857Y-108037380D01*
X98646904Y-108942142D02*
X98694523Y-108989761D01*
X98837380Y-109037380D01*
X98932619Y-109037380D01*
X99075476Y-108989761D01*
X99170714Y-108894523D01*
X99218333Y-108799285D01*
X99265952Y-108608809D01*
X99265952Y-108465952D01*
X99218333Y-108275476D01*
X99170714Y-108180238D01*
X99075476Y-108085000D01*
X98932619Y-108037380D01*
X98837380Y-108037380D01*
X98694523Y-108085000D01*
X98646904Y-108132619D01*
X97932619Y-108037380D02*
X97932619Y-108751666D01*
X97980238Y-108894523D01*
X98075476Y-108989761D01*
X98218333Y-109037380D01*
X98313571Y-109037380D01*
X96980238Y-109037380D02*
X97456428Y-109037380D01*
X97456428Y-108037380D01*
X96075476Y-108942142D02*
X96123095Y-108989761D01*
X96265952Y-109037380D01*
X96361190Y-109037380D01*
X96504047Y-108989761D01*
X96599285Y-108894523D01*
X96646904Y-108799285D01*
X96694523Y-108608809D01*
X96694523Y-108465952D01*
X96646904Y-108275476D01*
X96599285Y-108180238D01*
X96504047Y-108085000D01*
X96361190Y-108037380D01*
X96265952Y-108037380D01*
X96123095Y-108085000D01*
X96075476Y-108132619D01*
X95361190Y-108037380D02*
X95361190Y-108751666D01*
X95408809Y-108894523D01*
X95504047Y-108989761D01*
X95646904Y-109037380D01*
X95742142Y-109037380D01*
X94408809Y-109037380D02*
X94885000Y-109037380D01*
X94885000Y-108037380D01*
X93504047Y-108942142D02*
X93551666Y-108989761D01*
X93694523Y-109037380D01*
X93789761Y-109037380D01*
X93932619Y-108989761D01*
X94027857Y-108894523D01*
X94075476Y-108799285D01*
X94123095Y-108608809D01*
X94123095Y-108465952D01*
X94075476Y-108275476D01*
X94027857Y-108180238D01*
X93932619Y-108085000D01*
X93789761Y-108037380D01*
X93694523Y-108037380D01*
X93551666Y-108085000D01*
X93504047Y-108132619D01*
X92789761Y-108037380D02*
X92789761Y-108751666D01*
X92837380Y-108894523D01*
X92932619Y-108989761D01*
X93075476Y-109037380D01*
X93170714Y-109037380D01*
X91837380Y-109037380D02*
X92313571Y-109037380D01*
X92313571Y-108037380D01*
X90932619Y-108942142D02*
X90980238Y-108989761D01*
X91123095Y-109037380D01*
X91218333Y-109037380D01*
X91361190Y-108989761D01*
X91456428Y-108894523D01*
X91504047Y-108799285D01*
X91551666Y-108608809D01*
X91551666Y-108465952D01*
X91504047Y-108275476D01*
X91456428Y-108180238D01*
X91361190Y-108085000D01*
X91218333Y-108037380D01*
X91123095Y-108037380D01*
X90980238Y-108085000D01*
X90932619Y-108132619D01*
X238583214Y-107577380D02*
X239059404Y-107577380D01*
X239059404Y-106577380D01*
X238249880Y-107577380D02*
X238249880Y-106910714D01*
X238249880Y-106577380D02*
X238297500Y-106625000D01*
X238249880Y-106672619D01*
X238202261Y-106625000D01*
X238249880Y-106577380D01*
X238249880Y-106672619D01*
X237345119Y-107529761D02*
X237440357Y-107577380D01*
X237630833Y-107577380D01*
X237726071Y-107529761D01*
X237773690Y-107482142D01*
X237821309Y-107386904D01*
X237821309Y-107101190D01*
X237773690Y-107005952D01*
X237726071Y-106958333D01*
X237630833Y-106910714D01*
X237440357Y-106910714D01*
X237345119Y-106958333D01*
X236535595Y-107529761D02*
X236630833Y-107577380D01*
X236821309Y-107577380D01*
X236916547Y-107529761D01*
X236964166Y-107434523D01*
X236964166Y-107053571D01*
X236916547Y-106958333D01*
X236821309Y-106910714D01*
X236630833Y-106910714D01*
X236535595Y-106958333D01*
X236487976Y-107053571D01*
X236487976Y-107148809D01*
X236964166Y-107244047D01*
X236059404Y-106910714D02*
X236059404Y-107577380D01*
X236059404Y-107005952D02*
X236011785Y-106958333D01*
X235916547Y-106910714D01*
X235773690Y-106910714D01*
X235678452Y-106958333D01*
X235630833Y-107053571D01*
X235630833Y-107577380D01*
X235202261Y-107529761D02*
X235107023Y-107577380D01*
X234916547Y-107577380D01*
X234821309Y-107529761D01*
X234773690Y-107434523D01*
X234773690Y-107386904D01*
X234821309Y-107291666D01*
X234916547Y-107244047D01*
X235059404Y-107244047D01*
X235154642Y-107196428D01*
X235202261Y-107101190D01*
X235202261Y-107053571D01*
X235154642Y-106958333D01*
X235059404Y-106910714D01*
X234916547Y-106910714D01*
X234821309Y-106958333D01*
X233964166Y-107529761D02*
X234059404Y-107577380D01*
X234249880Y-107577380D01*
X234345119Y-107529761D01*
X234392738Y-107434523D01*
X234392738Y-107053571D01*
X234345119Y-106958333D01*
X234249880Y-106910714D01*
X234059404Y-106910714D01*
X233964166Y-106958333D01*
X233916547Y-107053571D01*
X233916547Y-107148809D01*
X234392738Y-107244047D01*
X233487976Y-107482142D02*
X233440357Y-107529761D01*
X233487976Y-107577380D01*
X233535595Y-107529761D01*
X233487976Y-107482142D01*
X233487976Y-107577380D01*
X233487976Y-106958333D02*
X233440357Y-107005952D01*
X233487976Y-107053571D01*
X233535595Y-107005952D01*
X233487976Y-106958333D01*
X233487976Y-107053571D01*
X231678452Y-107482142D02*
X231726071Y-107529761D01*
X231868928Y-107577380D01*
X231964166Y-107577380D01*
X232107023Y-107529761D01*
X232202261Y-107434523D01*
X232249880Y-107339285D01*
X232297500Y-107148809D01*
X232297500Y-107005952D01*
X232249880Y-106815476D01*
X232202261Y-106720238D01*
X232107023Y-106625000D01*
X231964166Y-106577380D01*
X231868928Y-106577380D01*
X231726071Y-106625000D01*
X231678452Y-106672619D01*
X231249880Y-107053571D02*
X230916547Y-107053571D01*
X230773690Y-107577380D02*
X231249880Y-107577380D01*
X231249880Y-106577380D01*
X230773690Y-106577380D01*
X229773690Y-107577380D02*
X230107023Y-107101190D01*
X230345119Y-107577380D02*
X230345119Y-106577380D01*
X229964166Y-106577380D01*
X229868928Y-106625000D01*
X229821309Y-106672619D01*
X229773690Y-106767857D01*
X229773690Y-106910714D01*
X229821309Y-107005952D01*
X229868928Y-107053571D01*
X229964166Y-107101190D01*
X230345119Y-107101190D01*
X229345119Y-107577380D02*
X229345119Y-106577380D01*
X228773690Y-107577380D01*
X228773690Y-106577380D01*
X228297500Y-107196428D02*
X227535595Y-107196428D01*
X226868928Y-106577380D02*
X226678452Y-106577380D01*
X226583214Y-106625000D01*
X226487976Y-106720238D01*
X226440357Y-106910714D01*
X226440357Y-107244047D01*
X226487976Y-107434523D01*
X226583214Y-107529761D01*
X226678452Y-107577380D01*
X226868928Y-107577380D01*
X226964166Y-107529761D01*
X227059404Y-107434523D01*
X227107023Y-107244047D01*
X227107023Y-106910714D01*
X227059404Y-106720238D01*
X226964166Y-106625000D01*
X226868928Y-106577380D01*
X226011785Y-107577380D02*
X226011785Y-106577380D01*
X226011785Y-107053571D02*
X225440357Y-107053571D01*
X225440357Y-107577380D02*
X225440357Y-106577380D01*
X224487976Y-107577380D02*
X224964166Y-107577380D01*
X224964166Y-106577380D01*
X224154642Y-107196428D02*
X223392738Y-107196428D01*
X223011785Y-106577380D02*
X222773690Y-107577380D01*
X222583214Y-106863095D01*
X222392738Y-107577380D01*
X222154642Y-106577380D01*
X219487976Y-107577380D02*
X219487976Y-106577380D01*
X219059404Y-107577380D02*
X219059404Y-107053571D01*
X219107023Y-106958333D01*
X219202261Y-106910714D01*
X219345119Y-106910714D01*
X219440357Y-106958333D01*
X219487976Y-107005952D01*
X218726071Y-106910714D02*
X218345119Y-106910714D01*
X218583214Y-106577380D02*
X218583214Y-107434523D01*
X218535595Y-107529761D01*
X218440357Y-107577380D01*
X218345119Y-107577380D01*
X218154642Y-106910714D02*
X217773690Y-106910714D01*
X218011785Y-106577380D02*
X218011785Y-107434523D01*
X217964166Y-107529761D01*
X217868928Y-107577380D01*
X217773690Y-107577380D01*
X217440357Y-106910714D02*
X217440357Y-107910714D01*
X217440357Y-106958333D02*
X217345119Y-106910714D01*
X217154642Y-106910714D01*
X217059404Y-106958333D01*
X217011785Y-107005952D01*
X216964166Y-107101190D01*
X216964166Y-107386904D01*
X217011785Y-107482142D01*
X217059404Y-107529761D01*
X217154642Y-107577380D01*
X217345119Y-107577380D01*
X217440357Y-107529761D01*
X216583214Y-107529761D02*
X216487976Y-107577380D01*
X216297500Y-107577380D01*
X216202261Y-107529761D01*
X216154642Y-107434523D01*
X216154642Y-107386904D01*
X216202261Y-107291666D01*
X216297500Y-107244047D01*
X216440357Y-107244047D01*
X216535595Y-107196428D01*
X216583214Y-107101190D01*
X216583214Y-107053571D01*
X216535595Y-106958333D01*
X216440357Y-106910714D01*
X216297500Y-106910714D01*
X216202261Y-106958333D01*
X215726071Y-107482142D02*
X215678452Y-107529761D01*
X215726071Y-107577380D01*
X215773690Y-107529761D01*
X215726071Y-107482142D01*
X215726071Y-107577380D01*
X215726071Y-106958333D02*
X215678452Y-107005952D01*
X215726071Y-107053571D01*
X215773690Y-107005952D01*
X215726071Y-106958333D01*
X215726071Y-107053571D01*
X214535595Y-106529761D02*
X215392738Y-107815476D01*
X213487976Y-106529761D02*
X214345119Y-107815476D01*
X212726071Y-106910714D02*
X212726071Y-107720238D01*
X212773690Y-107815476D01*
X212821309Y-107863095D01*
X212916547Y-107910714D01*
X213059404Y-107910714D01*
X213154642Y-107863095D01*
X212726071Y-107529761D02*
X212821309Y-107577380D01*
X213011785Y-107577380D01*
X213107023Y-107529761D01*
X213154642Y-107482142D01*
X213202261Y-107386904D01*
X213202261Y-107101190D01*
X213154642Y-107005952D01*
X213107023Y-106958333D01*
X213011785Y-106910714D01*
X212821309Y-106910714D01*
X212726071Y-106958333D01*
X212249880Y-107577380D02*
X212249880Y-106910714D01*
X212249880Y-106577380D02*
X212297500Y-106625000D01*
X212249880Y-106672619D01*
X212202261Y-106625000D01*
X212249880Y-106577380D01*
X212249880Y-106672619D01*
X211916547Y-106910714D02*
X211535595Y-106910714D01*
X211773690Y-106577380D02*
X211773690Y-107434523D01*
X211726071Y-107529761D01*
X211630833Y-107577380D01*
X211535595Y-107577380D01*
X211202261Y-107577380D02*
X211202261Y-106577380D01*
X210773690Y-107577380D02*
X210773690Y-107053571D01*
X210821309Y-106958333D01*
X210916547Y-106910714D01*
X211059404Y-106910714D01*
X211154642Y-106958333D01*
X211202261Y-107005952D01*
X209868928Y-106910714D02*
X209868928Y-107577380D01*
X210297500Y-106910714D02*
X210297500Y-107434523D01*
X210249880Y-107529761D01*
X210154642Y-107577380D01*
X210011785Y-107577380D01*
X209916547Y-107529761D01*
X209868928Y-107482142D01*
X209392738Y-107577380D02*
X209392738Y-106577380D01*
X209392738Y-106958333D02*
X209297500Y-106910714D01*
X209107023Y-106910714D01*
X209011785Y-106958333D01*
X208964166Y-107005952D01*
X208916547Y-107101190D01*
X208916547Y-107386904D01*
X208964166Y-107482142D01*
X209011785Y-107529761D01*
X209107023Y-107577380D01*
X209297500Y-107577380D01*
X209392738Y-107529761D01*
X208487976Y-107482142D02*
X208440357Y-107529761D01*
X208487976Y-107577380D01*
X208535595Y-107529761D01*
X208487976Y-107482142D01*
X208487976Y-107577380D01*
X207583214Y-107529761D02*
X207678452Y-107577380D01*
X207868928Y-107577380D01*
X207964166Y-107529761D01*
X208011785Y-107482142D01*
X208059404Y-107386904D01*
X208059404Y-107101190D01*
X208011785Y-107005952D01*
X207964166Y-106958333D01*
X207868928Y-106910714D01*
X207678452Y-106910714D01*
X207583214Y-106958333D01*
X207011785Y-107577380D02*
X207107023Y-107529761D01*
X207154642Y-107482142D01*
X207202261Y-107386904D01*
X207202261Y-107101190D01*
X207154642Y-107005952D01*
X207107023Y-106958333D01*
X207011785Y-106910714D01*
X206868928Y-106910714D01*
X206773690Y-106958333D01*
X206726071Y-107005952D01*
X206678452Y-107101190D01*
X206678452Y-107386904D01*
X206726071Y-107482142D01*
X206773690Y-107529761D01*
X206868928Y-107577380D01*
X207011785Y-107577380D01*
X206249880Y-107577380D02*
X206249880Y-106910714D01*
X206249880Y-107005952D02*
X206202261Y-106958333D01*
X206107023Y-106910714D01*
X205964166Y-106910714D01*
X205868928Y-106958333D01*
X205821309Y-107053571D01*
X205821309Y-107577380D01*
X205821309Y-107053571D02*
X205773690Y-106958333D01*
X205678452Y-106910714D01*
X205535595Y-106910714D01*
X205440357Y-106958333D01*
X205392738Y-107053571D01*
X205392738Y-107577380D01*
X204202261Y-106529761D02*
X205059404Y-107815476D01*
X203868928Y-106910714D02*
X203868928Y-107767857D01*
X203916547Y-107863095D01*
X204011785Y-107910714D01*
X204059404Y-107910714D01*
X203868928Y-106577380D02*
X203916547Y-106625000D01*
X203868928Y-106672619D01*
X203821309Y-106625000D01*
X203868928Y-106577380D01*
X203868928Y-106672619D01*
X203392738Y-106910714D02*
X203392738Y-107910714D01*
X203392738Y-106958333D02*
X203297500Y-106910714D01*
X203107023Y-106910714D01*
X203011785Y-106958333D01*
X202964166Y-107005952D01*
X202916547Y-107101190D01*
X202916547Y-107386904D01*
X202964166Y-107482142D01*
X203011785Y-107529761D01*
X203107023Y-107577380D01*
X203297500Y-107577380D01*
X203392738Y-107529761D01*
X202059404Y-107529761D02*
X202154642Y-107577380D01*
X202345119Y-107577380D01*
X202440357Y-107529761D01*
X202487976Y-107482142D01*
X202535595Y-107386904D01*
X202535595Y-107101190D01*
X202487976Y-107005952D01*
X202440357Y-106958333D01*
X202345119Y-106910714D01*
X202154642Y-106910714D01*
X202059404Y-106958333D01*
X201487976Y-107577380D02*
X201583214Y-107529761D01*
X201630833Y-107482142D01*
X201678452Y-107386904D01*
X201678452Y-107101190D01*
X201630833Y-107005952D01*
X201583214Y-106958333D01*
X201487976Y-106910714D01*
X201345119Y-106910714D01*
X201249880Y-106958333D01*
X201202261Y-107005952D01*
X201154642Y-107101190D01*
X201154642Y-107386904D01*
X201202261Y-107482142D01*
X201249880Y-107529761D01*
X201345119Y-107577380D01*
X201487976Y-107577380D01*
X200726071Y-106910714D02*
X200726071Y-107577380D01*
X200726071Y-107005952D02*
X200678452Y-106958333D01*
X200583214Y-106910714D01*
X200440357Y-106910714D01*
X200345119Y-106958333D01*
X200297500Y-107053571D01*
X200297500Y-107577380D01*
X199868928Y-107529761D02*
X199773690Y-107577380D01*
X199583214Y-107577380D01*
X199487976Y-107529761D01*
X199440357Y-107434523D01*
X199440357Y-107386904D01*
X199487976Y-107291666D01*
X199583214Y-107244047D01*
X199726071Y-107244047D01*
X199821309Y-107196428D01*
X199868928Y-107101190D01*
X199868928Y-107053571D01*
X199821309Y-106958333D01*
X199726071Y-106910714D01*
X199583214Y-106910714D01*
X199487976Y-106958333D01*
X199154642Y-106910714D02*
X198773690Y-106910714D01*
X199011785Y-106577380D02*
X199011785Y-107434523D01*
X198964166Y-107529761D01*
X198868928Y-107577380D01*
X198773690Y-107577380D01*
X198011785Y-107577380D02*
X198011785Y-107053571D01*
X198059404Y-106958333D01*
X198154642Y-106910714D01*
X198345119Y-106910714D01*
X198440357Y-106958333D01*
X198011785Y-107529761D02*
X198107023Y-107577380D01*
X198345119Y-107577380D01*
X198440357Y-107529761D01*
X198487976Y-107434523D01*
X198487976Y-107339285D01*
X198440357Y-107244047D01*
X198345119Y-107196428D01*
X198107023Y-107196428D01*
X198011785Y-107148809D01*
X197535595Y-106910714D02*
X197535595Y-107577380D01*
X197535595Y-107005952D02*
X197487976Y-106958333D01*
X197392738Y-106910714D01*
X197249880Y-106910714D01*
X197154642Y-106958333D01*
X197107023Y-107053571D01*
X197107023Y-107577380D01*
X196773690Y-106910714D02*
X196392738Y-106910714D01*
X196630833Y-106577380D02*
X196630833Y-107434523D01*
X196583214Y-107529761D01*
X196487976Y-107577380D01*
X196392738Y-107577380D01*
X196059404Y-107577380D02*
X196059404Y-106910714D01*
X196059404Y-106577380D02*
X196107023Y-106625000D01*
X196059404Y-106672619D01*
X196011785Y-106625000D01*
X196059404Y-106577380D01*
X196059404Y-106672619D01*
X195583214Y-106910714D02*
X195583214Y-107577380D01*
X195583214Y-107005952D02*
X195535595Y-106958333D01*
X195440357Y-106910714D01*
X195297500Y-106910714D01*
X195202261Y-106958333D01*
X195154642Y-107053571D01*
X195154642Y-107577380D01*
X194297500Y-107529761D02*
X194392738Y-107577380D01*
X194583214Y-107577380D01*
X194678452Y-107529761D01*
X194726071Y-107434523D01*
X194726071Y-107053571D01*
X194678452Y-106958333D01*
X194583214Y-106910714D01*
X194392738Y-106910714D01*
X194297500Y-106958333D01*
X194249880Y-107053571D01*
X194249880Y-107148809D01*
X194726071Y-107244047D01*
X193392738Y-107577380D02*
X193392738Y-107053571D01*
X193440357Y-106958333D01*
X193535595Y-106910714D01*
X193726071Y-106910714D01*
X193821309Y-106958333D01*
X193392738Y-107529761D02*
X193487976Y-107577380D01*
X193726071Y-107577380D01*
X193821309Y-107529761D01*
X193868928Y-107434523D01*
X193868928Y-107339285D01*
X193821309Y-107244047D01*
X193726071Y-107196428D01*
X193487976Y-107196428D01*
X193392738Y-107148809D01*
X192487976Y-106910714D02*
X192487976Y-107577380D01*
X192916547Y-106910714D02*
X192916547Y-107434523D01*
X192868928Y-107529761D01*
X192773690Y-107577380D01*
X192630833Y-107577380D01*
X192535595Y-107529761D01*
X192487976Y-107482142D01*
X191297500Y-106529761D02*
X192154642Y-107815476D01*
X190440357Y-106625000D02*
X190535595Y-106577380D01*
X190678452Y-106577380D01*
X190821309Y-106625000D01*
X190916547Y-106720238D01*
X190964166Y-106815476D01*
X191011785Y-107005952D01*
X191011785Y-107148809D01*
X190964166Y-107339285D01*
X190916547Y-107434523D01*
X190821309Y-107529761D01*
X190678452Y-107577380D01*
X190583214Y-107577380D01*
X190440357Y-107529761D01*
X190392738Y-107482142D01*
X190392738Y-107148809D01*
X190583214Y-107148809D01*
X189964166Y-107577380D02*
X189964166Y-106910714D01*
X189964166Y-107101190D02*
X189916547Y-107005952D01*
X189868928Y-106958333D01*
X189773690Y-106910714D01*
X189678452Y-106910714D01*
X189345119Y-107577380D02*
X189345119Y-106910714D01*
X189345119Y-106577380D02*
X189392738Y-106625000D01*
X189345119Y-106672619D01*
X189297500Y-106625000D01*
X189345119Y-106577380D01*
X189345119Y-106672619D01*
X188440357Y-107577380D02*
X188440357Y-106577380D01*
X188440357Y-107529761D02*
X188535595Y-107577380D01*
X188726071Y-107577380D01*
X188821309Y-107529761D01*
X188868928Y-107482142D01*
X188916547Y-107386904D01*
X188916547Y-107101190D01*
X188868928Y-107005952D01*
X188821309Y-106958333D01*
X188726071Y-106910714D01*
X188535595Y-106910714D01*
X188440357Y-106958333D01*
X187964166Y-107577380D02*
X187964166Y-106577380D01*
X187630833Y-107291666D01*
X187297500Y-106577380D01*
X187297500Y-107577380D01*
X186916547Y-106577380D02*
X186249880Y-107577380D01*
X186249880Y-106577380D02*
X186916547Y-107577380D01*
X185440357Y-106910714D02*
X185440357Y-107577380D01*
X185678452Y-106529761D02*
X185916547Y-107244047D01*
X185297500Y-107244047D01*
X185011785Y-106577380D02*
X184345119Y-106577380D01*
X184773690Y-107577380D01*
X239107023Y-108322619D02*
X239059404Y-108275000D01*
X238964166Y-108227380D01*
X238726071Y-108227380D01*
X238630833Y-108275000D01*
X238583214Y-108322619D01*
X238535595Y-108417857D01*
X238535595Y-108513095D01*
X238583214Y-108655952D01*
X239154642Y-109227380D01*
X238535595Y-109227380D01*
X237916547Y-108227380D02*
X237821309Y-108227380D01*
X237726071Y-108275000D01*
X237678452Y-108322619D01*
X237630833Y-108417857D01*
X237583214Y-108608333D01*
X237583214Y-108846428D01*
X237630833Y-109036904D01*
X237678452Y-109132142D01*
X237726071Y-109179761D01*
X237821309Y-109227380D01*
X237916547Y-109227380D01*
X238011785Y-109179761D01*
X238059404Y-109132142D01*
X238107023Y-109036904D01*
X238154642Y-108846428D01*
X238154642Y-108608333D01*
X238107023Y-108417857D01*
X238059404Y-108322619D01*
X238011785Y-108275000D01*
X237916547Y-108227380D01*
X237202261Y-108322619D02*
X237154642Y-108275000D01*
X237059404Y-108227380D01*
X236821309Y-108227380D01*
X236726071Y-108275000D01*
X236678452Y-108322619D01*
X236630833Y-108417857D01*
X236630833Y-108513095D01*
X236678452Y-108655952D01*
X237249880Y-109227380D01*
X236630833Y-109227380D01*
X235678452Y-109227380D02*
X236249880Y-109227380D01*
X235964166Y-109227380D02*
X235964166Y-108227380D01*
X236059404Y-108370238D01*
X236154642Y-108465476D01*
X236249880Y-108513095D01*
X235249880Y-108846428D02*
X234487976Y-108846428D01*
X233821309Y-108227380D02*
X233726071Y-108227380D01*
X233630833Y-108275000D01*
X233583214Y-108322619D01*
X233535595Y-108417857D01*
X233487976Y-108608333D01*
X233487976Y-108846428D01*
X233535595Y-109036904D01*
X233583214Y-109132142D01*
X233630833Y-109179761D01*
X233726071Y-109227380D01*
X233821309Y-109227380D01*
X233916547Y-109179761D01*
X233964166Y-109132142D01*
X234011785Y-109036904D01*
X234059404Y-108846428D01*
X234059404Y-108608333D01*
X234011785Y-108417857D01*
X233964166Y-108322619D01*
X233916547Y-108275000D01*
X233821309Y-108227380D01*
X232916547Y-108655952D02*
X233011785Y-108608333D01*
X233059404Y-108560714D01*
X233107023Y-108465476D01*
X233107023Y-108417857D01*
X233059404Y-108322619D01*
X233011785Y-108275000D01*
X232916547Y-108227380D01*
X232726071Y-108227380D01*
X232630833Y-108275000D01*
X232583214Y-108322619D01*
X232535595Y-108417857D01*
X232535595Y-108465476D01*
X232583214Y-108560714D01*
X232630833Y-108608333D01*
X232726071Y-108655952D01*
X232916547Y-108655952D01*
X233011785Y-108703571D01*
X233059404Y-108751190D01*
X233107023Y-108846428D01*
X233107023Y-109036904D01*
X233059404Y-109132142D01*
X233011785Y-109179761D01*
X232916547Y-109227380D01*
X232726071Y-109227380D01*
X232630833Y-109179761D01*
X232583214Y-109132142D01*
X232535595Y-109036904D01*
X232535595Y-108846428D01*
X232583214Y-108751190D01*
X232630833Y-108703571D01*
X232726071Y-108655952D01*
X232107023Y-108846428D02*
X231345119Y-108846428D01*
X230964166Y-108227380D02*
X230345119Y-108227380D01*
X230678452Y-108608333D01*
X230535595Y-108608333D01*
X230440357Y-108655952D01*
X230392738Y-108703571D01*
X230345119Y-108798809D01*
X230345119Y-109036904D01*
X230392738Y-109132142D01*
X230440357Y-109179761D01*
X230535595Y-109227380D01*
X230821309Y-109227380D01*
X230916547Y-109179761D01*
X230964166Y-109132142D01*
X229726071Y-108227380D02*
X229630833Y-108227380D01*
X229535595Y-108275000D01*
X229487976Y-108322619D01*
X229440357Y-108417857D01*
X229392738Y-108608333D01*
X229392738Y-108846428D01*
X229440357Y-109036904D01*
X229487976Y-109132142D01*
X229535595Y-109179761D01*
X229630833Y-109227380D01*
X229726071Y-109227380D01*
X229821309Y-109179761D01*
X229868928Y-109132142D01*
X229916547Y-109036904D01*
X229964166Y-108846428D01*
X229964166Y-108608333D01*
X229916547Y-108417857D01*
X229868928Y-108322619D01*
X229821309Y-108275000D01*
X229726071Y-108227380D01*
X221510952Y-89463571D02*
X221368095Y-89511190D01*
X221320476Y-89558809D01*
X221272857Y-89654047D01*
X221272857Y-89796904D01*
X221320476Y-89892142D01*
X221368095Y-89939761D01*
X221463333Y-89987380D01*
X221844285Y-89987380D01*
X221844285Y-88987380D01*
X221510952Y-88987380D01*
X221415714Y-89035000D01*
X221368095Y-89082619D01*
X221320476Y-89177857D01*
X221320476Y-89273095D01*
X221368095Y-89368333D01*
X221415714Y-89415952D01*
X221510952Y-89463571D01*
X221844285Y-89463571D01*
X220939523Y-89320714D02*
X220701428Y-89987380D01*
X220463333Y-89320714D02*
X220701428Y-89987380D01*
X220796666Y-90225476D01*
X220844285Y-90273095D01*
X220939523Y-90320714D01*
X219034761Y-88987380D02*
X219034761Y-89701666D01*
X219082380Y-89844523D01*
X219177619Y-89939761D01*
X219320476Y-89987380D01*
X219415714Y-89987380D01*
X218558571Y-89987380D02*
X218558571Y-88987380D01*
X218177619Y-88987380D01*
X218082380Y-89035000D01*
X218034761Y-89082619D01*
X217987142Y-89177857D01*
X217987142Y-89320714D01*
X218034761Y-89415952D01*
X218082380Y-89463571D01*
X218177619Y-89511190D01*
X218558571Y-89511190D01*
X216987142Y-89892142D02*
X217034761Y-89939761D01*
X217177619Y-89987380D01*
X217272857Y-89987380D01*
X217415714Y-89939761D01*
X217510952Y-89844523D01*
X217558571Y-89749285D01*
X217606190Y-89558809D01*
X217606190Y-89415952D01*
X217558571Y-89225476D01*
X217510952Y-89130238D01*
X217415714Y-89035000D01*
X217272857Y-88987380D01*
X217177619Y-88987380D01*
X217034761Y-89035000D01*
X216987142Y-89082619D01*
X216415714Y-89987380D02*
X216510952Y-89939761D01*
X216558571Y-89892142D01*
X216606190Y-89796904D01*
X216606190Y-89511190D01*
X216558571Y-89415952D01*
X216510952Y-89368333D01*
X216415714Y-89320714D01*
X216272857Y-89320714D01*
X216177619Y-89368333D01*
X216130000Y-89415952D01*
X216082380Y-89511190D01*
X216082380Y-89796904D01*
X216130000Y-89892142D01*
X216177619Y-89939761D01*
X216272857Y-89987380D01*
X216415714Y-89987380D01*
X215653809Y-89320714D02*
X215653809Y-89987380D01*
X215653809Y-89415952D02*
X215606190Y-89368333D01*
X215510952Y-89320714D01*
X215368095Y-89320714D01*
X215272857Y-89368333D01*
X215225238Y-89463571D01*
X215225238Y-89987380D01*
X214796666Y-89939761D02*
X214701428Y-89987380D01*
X214510952Y-89987380D01*
X214415714Y-89939761D01*
X214368095Y-89844523D01*
X214368095Y-89796904D01*
X214415714Y-89701666D01*
X214510952Y-89654047D01*
X214653809Y-89654047D01*
X214749047Y-89606428D01*
X214796666Y-89511190D01*
X214796666Y-89463571D01*
X214749047Y-89368333D01*
X214653809Y-89320714D01*
X214510952Y-89320714D01*
X214415714Y-89368333D01*
X214082380Y-89320714D02*
X213701428Y-89320714D01*
X213939523Y-88987380D02*
X213939523Y-89844523D01*
X213891904Y-89939761D01*
X213796666Y-89987380D01*
X213701428Y-89987380D01*
X212939523Y-89987380D02*
X212939523Y-89463571D01*
X212987142Y-89368333D01*
X213082380Y-89320714D01*
X213272857Y-89320714D01*
X213368095Y-89368333D01*
X212939523Y-89939761D02*
X213034761Y-89987380D01*
X213272857Y-89987380D01*
X213368095Y-89939761D01*
X213415714Y-89844523D01*
X213415714Y-89749285D01*
X213368095Y-89654047D01*
X213272857Y-89606428D01*
X213034761Y-89606428D01*
X212939523Y-89558809D01*
X212463333Y-89320714D02*
X212463333Y-89987380D01*
X212463333Y-89415952D02*
X212415714Y-89368333D01*
X212320476Y-89320714D01*
X212177619Y-89320714D01*
X212082380Y-89368333D01*
X212034761Y-89463571D01*
X212034761Y-89987380D01*
X211701428Y-89320714D02*
X211320476Y-89320714D01*
X211558571Y-88987380D02*
X211558571Y-89844523D01*
X211510952Y-89939761D01*
X211415714Y-89987380D01*
X211320476Y-89987380D01*
X210987142Y-89987380D02*
X210987142Y-89320714D01*
X210987142Y-88987380D02*
X211034761Y-89035000D01*
X210987142Y-89082619D01*
X210939523Y-89035000D01*
X210987142Y-88987380D01*
X210987142Y-89082619D01*
X210510952Y-89320714D02*
X210510952Y-89987380D01*
X210510952Y-89415952D02*
X210463333Y-89368333D01*
X210368095Y-89320714D01*
X210225238Y-89320714D01*
X210130000Y-89368333D01*
X210082380Y-89463571D01*
X210082380Y-89987380D01*
X209225238Y-89939761D02*
X209320476Y-89987380D01*
X209510952Y-89987380D01*
X209606190Y-89939761D01*
X209653809Y-89844523D01*
X209653809Y-89463571D01*
X209606190Y-89368333D01*
X209510952Y-89320714D01*
X209320476Y-89320714D01*
X209225238Y-89368333D01*
X209177619Y-89463571D01*
X209177619Y-89558809D01*
X209653809Y-89654047D01*
X208320476Y-89987380D02*
X208320476Y-89463571D01*
X208368095Y-89368333D01*
X208463333Y-89320714D01*
X208653809Y-89320714D01*
X208749047Y-89368333D01*
X208320476Y-89939761D02*
X208415714Y-89987380D01*
X208653809Y-89987380D01*
X208749047Y-89939761D01*
X208796666Y-89844523D01*
X208796666Y-89749285D01*
X208749047Y-89654047D01*
X208653809Y-89606428D01*
X208415714Y-89606428D01*
X208320476Y-89558809D01*
X207415714Y-89320714D02*
X207415714Y-89987380D01*
X207844285Y-89320714D02*
X207844285Y-89844523D01*
X207796666Y-89939761D01*
X207701428Y-89987380D01*
X207558571Y-89987380D01*
X207463333Y-89939761D01*
X207415714Y-89892142D01*
D11*
X238521190Y-87900000D02*
X238711666Y-87804761D01*
X238997380Y-87804761D01*
X239283095Y-87900000D01*
X239473571Y-88090476D01*
X239568809Y-88280952D01*
X239664047Y-88661904D01*
X239664047Y-88947619D01*
X239568809Y-89328571D01*
X239473571Y-89519047D01*
X239283095Y-89709523D01*
X238997380Y-89804761D01*
X238806904Y-89804761D01*
X238521190Y-89709523D01*
X238425952Y-89614285D01*
X238425952Y-88947619D01*
X238806904Y-88947619D01*
X237568809Y-89804761D02*
X237568809Y-88471428D01*
X237568809Y-88852380D02*
X237473571Y-88661904D01*
X237378333Y-88566666D01*
X237187857Y-88471428D01*
X236997380Y-88471428D01*
X236330714Y-89804761D02*
X236330714Y-88471428D01*
X236330714Y-87804761D02*
X236425952Y-87900000D01*
X236330714Y-87995238D01*
X236235476Y-87900000D01*
X236330714Y-87804761D01*
X236330714Y-87995238D01*
X234521190Y-89804761D02*
X234521190Y-87804761D01*
X234521190Y-89709523D02*
X234711666Y-89804761D01*
X235092619Y-89804761D01*
X235283095Y-89709523D01*
X235378333Y-89614285D01*
X235473571Y-89423809D01*
X235473571Y-88852380D01*
X235378333Y-88661904D01*
X235283095Y-88566666D01*
X235092619Y-88471428D01*
X234711666Y-88471428D01*
X234521190Y-88566666D01*
X233568809Y-89804761D02*
X233568809Y-87804761D01*
X232902142Y-89233333D01*
X232235476Y-87804761D01*
X232235476Y-89804761D01*
X231473571Y-87804761D02*
X230140238Y-89804761D01*
X230140238Y-87804761D02*
X231473571Y-89804761D01*
X228521190Y-88471428D02*
X228521190Y-89804761D01*
X228997380Y-87709523D02*
X229473571Y-89138095D01*
X228235476Y-89138095D01*
X227664047Y-87804761D02*
X226330714Y-87804761D01*
X227187857Y-89804761D01*
D12*
X182752999Y-123824999D02*
G75*
G02*
X172593001Y-123825000I-5079999J-1D01*
G01*
X158877000Y-123825000D02*
G75*
G02*
X148717000Y-123825000I-5080000J0D01*
G01*
X53162387Y-50165000D02*
G75*
G03*
X53162387Y-50165000I-1727387J0D01*
G01*
X53162387Y-126365000D02*
G75*
G03*
X53162387Y-126365000I-1727387J0D01*
G01*
X129362387Y-126365000D02*
G75*
G03*
X129362387Y-126365000I-1727387J0D01*
G01*
X205562387Y-126365000D02*
G75*
G03*
X205562387Y-126365000I-1727387J0D01*
G01*
X281743610Y-126365000D02*
G75*
G03*
X281743610Y-126365000I-1708610J0D01*
G01*
X281743610Y-50165000D02*
G75*
G03*
X281743610Y-50165000I-1708610J0D01*
G01*
X205543610Y-50165000D02*
G75*
G03*
X205543610Y-50165000I-1708610J0D01*
G01*
X129338884Y-50165000D02*
G75*
G03*
X129338884Y-50165000I-1703884J0D01*
G01*
X279400000Y-121285000D02*
G75*
G02*
X276860000Y-123825000I-2540000J0D01*
G01*
X55880000Y-123825000D02*
G75*
G02*
X53340000Y-121285000I0J2540000D01*
G01*
X53340000Y-55245000D02*
G75*
G02*
X55880000Y-52705000I2540000J0D01*
G01*
X276860000Y-52705000D02*
G75*
G02*
X279400000Y-55245000I0J-2540000D01*
G01*
X53340000Y-52705000D02*
X279400000Y-52705000D01*
X53340000Y-123825000D02*
X53340000Y-52705000D01*
X279400000Y-123825000D02*
X53340000Y-123825000D01*
X279400000Y-52705000D02*
X279400000Y-123825000D01*
%TO.C,U42*%
X164035000Y-109990000D02*
X163735000Y-109990000D01*
X163735000Y-109990000D02*
X163735000Y-110290000D01*
%TO.C,J2*%
X66264000Y-86883000D02*
X66264000Y-85393000D01*
X66264000Y-85393000D02*
X67464000Y-85393000D01*
X66264000Y-93203000D02*
X66264000Y-94693000D01*
X66264000Y-94693000D02*
X67464000Y-94693000D01*
X70664000Y-85393000D02*
X72064000Y-85393000D01*
X72064000Y-85393000D02*
X72064000Y-94693000D01*
X72064000Y-94693000D02*
X70664000Y-94693000D01*
X66264000Y-86883000D02*
X65064000Y-86883000D01*
%TO.C,J1*%
X263047000Y-94219000D02*
X263047000Y-95709000D01*
X263047000Y-95709000D02*
X261847000Y-95709000D01*
X263047000Y-87899000D02*
X263047000Y-86409000D01*
X263047000Y-86409000D02*
X261847000Y-86409000D01*
X258647000Y-95709000D02*
X257247000Y-95709000D01*
X257247000Y-95709000D02*
X257247000Y-86409000D01*
X257247000Y-86409000D02*
X258647000Y-86409000D01*
X263047000Y-94219000D02*
X264247000Y-94219000D01*
%TO.C,C12*%
X275643748Y-68680000D02*
X276166252Y-68680000D01*
X275643748Y-67210000D02*
X276166252Y-67210000D01*
%TO.C,C11*%
X256593748Y-68680000D02*
X257116252Y-68680000D01*
X256593748Y-67210000D02*
X257116252Y-67210000D01*
%TO.C,C10*%
X237543748Y-68680000D02*
X238066252Y-68680000D01*
X237543748Y-67210000D02*
X238066252Y-67210000D01*
%TO.C,C9*%
X218493748Y-68680000D02*
X219016252Y-68680000D01*
X218493748Y-67210000D02*
X219016252Y-67210000D01*
%TO.C,C8*%
X199448748Y-68680000D02*
X199971252Y-68680000D01*
X199448748Y-67210000D02*
X199971252Y-67210000D01*
%TO.C,C7*%
X180398748Y-68680000D02*
X180921252Y-68680000D01*
X180398748Y-67210000D02*
X180921252Y-67210000D01*
%TO.C,C6*%
X161348748Y-68680000D02*
X161871252Y-68680000D01*
X161348748Y-67210000D02*
X161871252Y-67210000D01*
%TO.C,C5*%
X142298748Y-68680000D02*
X142821252Y-68680000D01*
X142298748Y-67210000D02*
X142821252Y-67210000D01*
%TO.C,C4*%
X123248748Y-68680000D02*
X123771252Y-68680000D01*
X123248748Y-67210000D02*
X123771252Y-67210000D01*
%TO.C,C3*%
X104198748Y-68680000D02*
X104721252Y-68680000D01*
X104198748Y-67210000D02*
X104721252Y-67210000D01*
%TO.C,C2*%
X85148748Y-68680000D02*
X85671252Y-68680000D01*
X85148748Y-67210000D02*
X85671252Y-67210000D01*
%TO.C,C1*%
X66098748Y-68680000D02*
X66621252Y-68680000D01*
X66098748Y-67210000D02*
X66621252Y-67210000D01*
%TO.C,U47*%
X268810000Y-109990000D02*
X268510000Y-109990000D01*
X268510000Y-109990000D02*
X268510000Y-110290000D01*
%TO.C,U46*%
X249760000Y-109990000D02*
X249460000Y-109990000D01*
X249460000Y-109990000D02*
X249460000Y-110290000D01*
%TO.C,U45*%
X230710000Y-109990000D02*
X230410000Y-109990000D01*
X230410000Y-109990000D02*
X230410000Y-110290000D01*
%TO.C,U44*%
X211660000Y-109990000D02*
X211360000Y-109990000D01*
X211360000Y-109990000D02*
X211360000Y-110290000D01*
%TO.C,U43*%
X192610000Y-109990000D02*
X192310000Y-109990000D01*
X192310000Y-109990000D02*
X192310000Y-110290000D01*
%TO.C,U41*%
X135460000Y-109990000D02*
X135160000Y-109990000D01*
X135160000Y-109990000D02*
X135160000Y-110290000D01*
%TO.C,U40*%
X116410000Y-109990000D02*
X116110000Y-109990000D01*
X116110000Y-109990000D02*
X116110000Y-110290000D01*
%TO.C,U39*%
X97360000Y-109990000D02*
X97060000Y-109990000D01*
X97060000Y-109990000D02*
X97060000Y-110290000D01*
%TO.C,U38*%
X78310000Y-109990000D02*
X78010000Y-109990000D01*
X78010000Y-109990000D02*
X78010000Y-110290000D01*
%TO.C,U37*%
X59260000Y-109990000D02*
X58960000Y-109990000D01*
X58960000Y-109990000D02*
X58960000Y-110290000D01*
%TO.C,U36*%
X268810000Y-90940000D02*
X268510000Y-90940000D01*
X268510000Y-90940000D02*
X268510000Y-91240000D01*
%TO.C,U35*%
X249760000Y-90940000D02*
X249460000Y-90940000D01*
X249460000Y-90940000D02*
X249460000Y-91240000D01*
%TO.C,U34*%
X230710000Y-90940000D02*
X230410000Y-90940000D01*
X230410000Y-90940000D02*
X230410000Y-91240000D01*
%TO.C,U33*%
X211660000Y-90940000D02*
X211360000Y-90940000D01*
X211360000Y-90940000D02*
X211360000Y-91240000D01*
%TO.C,U32*%
X192610000Y-90940000D02*
X192310000Y-90940000D01*
X192310000Y-90940000D02*
X192310000Y-91240000D01*
%TO.C,U31*%
X173560000Y-90940000D02*
X173260000Y-90940000D01*
X173260000Y-90940000D02*
X173260000Y-91240000D01*
%TO.C,U30*%
X154510000Y-90940000D02*
X154210000Y-90940000D01*
X154210000Y-90940000D02*
X154210000Y-91240000D01*
%TO.C,U29*%
X135460000Y-90940000D02*
X135160000Y-90940000D01*
X135160000Y-90940000D02*
X135160000Y-91240000D01*
%TO.C,U28*%
X116410000Y-90940000D02*
X116110000Y-90940000D01*
X116110000Y-90940000D02*
X116110000Y-91240000D01*
%TO.C,U27*%
X97360000Y-90940000D02*
X97060000Y-90940000D01*
X97060000Y-90940000D02*
X97060000Y-91240000D01*
%TO.C,U26*%
X78310000Y-90940000D02*
X78010000Y-90940000D01*
X78010000Y-90940000D02*
X78010000Y-91240000D01*
%TO.C,U25*%
X59260000Y-90940000D02*
X58960000Y-90940000D01*
X58960000Y-90940000D02*
X58960000Y-91240000D01*
%TO.C,U24*%
X268810000Y-71890000D02*
X268510000Y-71890000D01*
X268510000Y-71890000D02*
X268510000Y-72190000D01*
%TO.C,U23*%
X249760000Y-71890000D02*
X249460000Y-71890000D01*
X249460000Y-71890000D02*
X249460000Y-72190000D01*
%TO.C,U22*%
X230710000Y-71890000D02*
X230410000Y-71890000D01*
X230410000Y-71890000D02*
X230410000Y-72190000D01*
%TO.C,U21*%
X211660000Y-71890000D02*
X211360000Y-71890000D01*
X211360000Y-71890000D02*
X211360000Y-72190000D01*
%TO.C,U20*%
X192610000Y-71890000D02*
X192310000Y-71890000D01*
X192310000Y-71890000D02*
X192310000Y-72190000D01*
%TO.C,U19*%
X173560000Y-71890000D02*
X173260000Y-71890000D01*
X173260000Y-71890000D02*
X173260000Y-72190000D01*
%TO.C,U18*%
X154510000Y-71890000D02*
X154210000Y-71890000D01*
X154210000Y-71890000D02*
X154210000Y-72190000D01*
%TO.C,U17*%
X135460000Y-71890000D02*
X135160000Y-71890000D01*
X135160000Y-71890000D02*
X135160000Y-72190000D01*
%TO.C,U16*%
X116410000Y-71890000D02*
X116110000Y-71890000D01*
X116110000Y-71890000D02*
X116110000Y-72190000D01*
%TO.C,U15*%
X97360000Y-71890000D02*
X97060000Y-71890000D01*
X97060000Y-71890000D02*
X97060000Y-72190000D01*
%TO.C,U14*%
X78310000Y-71890000D02*
X78010000Y-71890000D01*
X78010000Y-71890000D02*
X78010000Y-72190000D01*
%TO.C,U13*%
X59260000Y-71890000D02*
X58960000Y-71890000D01*
X58960000Y-71890000D02*
X58960000Y-72190000D01*
%TO.C,U12*%
X268810000Y-52840000D02*
X268510000Y-52840000D01*
X268510000Y-52840000D02*
X268510000Y-53140000D01*
%TO.C,U11*%
X249760000Y-52840000D02*
X249460000Y-52840000D01*
X249460000Y-52840000D02*
X249460000Y-53140000D01*
%TO.C,U10*%
X230710000Y-52840000D02*
X230410000Y-52840000D01*
X230410000Y-52840000D02*
X230410000Y-53140000D01*
%TO.C,U9*%
X211660000Y-52840000D02*
X211360000Y-52840000D01*
X211360000Y-52840000D02*
X211360000Y-53140000D01*
%TO.C,U8*%
X192610000Y-52840000D02*
X192310000Y-52840000D01*
X192310000Y-52840000D02*
X192310000Y-53140000D01*
%TO.C,U7*%
X173560000Y-52840000D02*
X173260000Y-52840000D01*
X173260000Y-52840000D02*
X173260000Y-53140000D01*
%TO.C,U6*%
X154510000Y-52840000D02*
X154210000Y-52840000D01*
X154210000Y-52840000D02*
X154210000Y-53140000D01*
%TO.C,U5*%
X135460000Y-52840000D02*
X135160000Y-52840000D01*
X135160000Y-52840000D02*
X135160000Y-53140000D01*
%TO.C,U4*%
X116410000Y-52840000D02*
X116110000Y-52840000D01*
X116110000Y-52840000D02*
X116110000Y-53140000D01*
%TO.C,U3*%
X97360000Y-52840000D02*
X97060000Y-52840000D01*
X97060000Y-52840000D02*
X97060000Y-53140000D01*
%TO.C,U2*%
X78310000Y-52840000D02*
X78010000Y-52840000D01*
X78010000Y-52840000D02*
X78010000Y-53140000D01*
%TO.C,U1*%
X59260000Y-52840000D02*
X58960000Y-52840000D01*
X58960000Y-52840000D02*
X58960000Y-53140000D01*
%TO.C,D1*%
X67580000Y-55535000D02*
X67580000Y-59435000D01*
X69580000Y-55535000D02*
X69580000Y-59435000D01*
X67580000Y-55535000D02*
X69580000Y-55535000D01*
%TO.C,D13*%
X67580000Y-74585000D02*
X67580000Y-78485000D01*
X69580000Y-74585000D02*
X69580000Y-78485000D01*
X67580000Y-74585000D02*
X69580000Y-74585000D01*
%TO.C,D25*%
X70755000Y-96810000D02*
X72755000Y-96810000D01*
X72755000Y-96810000D02*
X72755000Y-100710000D01*
X70755000Y-96810000D02*
X70755000Y-100710000D01*
%TO.C,D37*%
X67580000Y-112685000D02*
X69580000Y-112685000D01*
X69580000Y-112685000D02*
X69580000Y-116585000D01*
X67580000Y-112685000D02*
X67580000Y-116585000D01*
%TO.C,D2*%
X86630000Y-55535000D02*
X86630000Y-59435000D01*
X88630000Y-55535000D02*
X88630000Y-59435000D01*
X86630000Y-55535000D02*
X88630000Y-55535000D01*
%TO.C,D14*%
X86630000Y-74585000D02*
X88630000Y-74585000D01*
X88630000Y-74585000D02*
X88630000Y-78485000D01*
X86630000Y-74585000D02*
X86630000Y-78485000D01*
%TO.C,D26*%
X86630000Y-93635000D02*
X86630000Y-97535000D01*
X88630000Y-93635000D02*
X88630000Y-97535000D01*
X86630000Y-93635000D02*
X88630000Y-93635000D01*
%TO.C,D38*%
X86630000Y-112685000D02*
X86630000Y-116585000D01*
X88630000Y-112685000D02*
X88630000Y-116585000D01*
X86630000Y-112685000D02*
X88630000Y-112685000D01*
%TO.C,D3*%
X105680000Y-55535000D02*
X107680000Y-55535000D01*
X107680000Y-55535000D02*
X107680000Y-59435000D01*
X105680000Y-55535000D02*
X105680000Y-59435000D01*
%TO.C,D15*%
X105680000Y-74585000D02*
X107680000Y-74585000D01*
X107680000Y-74585000D02*
X107680000Y-78485000D01*
X105680000Y-74585000D02*
X105680000Y-78485000D01*
%TO.C,D27*%
X105680000Y-93635000D02*
X107680000Y-93635000D01*
X107680000Y-93635000D02*
X107680000Y-97535000D01*
X105680000Y-93635000D02*
X105680000Y-97535000D01*
%TO.C,D39*%
X105680000Y-112685000D02*
X107680000Y-112685000D01*
X107680000Y-112685000D02*
X107680000Y-116585000D01*
X105680000Y-112685000D02*
X105680000Y-116585000D01*
%TO.C,D4*%
X124730000Y-55535000D02*
X124730000Y-59435000D01*
X126730000Y-55535000D02*
X126730000Y-59435000D01*
X124730000Y-55535000D02*
X126730000Y-55535000D01*
%TO.C,D16*%
X124730000Y-74585000D02*
X126730000Y-74585000D01*
X126730000Y-74585000D02*
X126730000Y-78485000D01*
X124730000Y-74585000D02*
X124730000Y-78485000D01*
%TO.C,D28*%
X124730000Y-93635000D02*
X124730000Y-97535000D01*
X126730000Y-93635000D02*
X126730000Y-97535000D01*
X124730000Y-93635000D02*
X126730000Y-93635000D01*
%TO.C,D40*%
X124730000Y-112685000D02*
X124730000Y-116585000D01*
X126730000Y-112685000D02*
X126730000Y-116585000D01*
X124730000Y-112685000D02*
X126730000Y-112685000D01*
%TO.C,D5*%
X143780000Y-55535000D02*
X143780000Y-59435000D01*
X145780000Y-55535000D02*
X145780000Y-59435000D01*
X143780000Y-55535000D02*
X145780000Y-55535000D01*
%TO.C,D17*%
X143780000Y-74585000D02*
X145780000Y-74585000D01*
X145780000Y-74585000D02*
X145780000Y-78485000D01*
X143780000Y-74585000D02*
X143780000Y-78485000D01*
%TO.C,D29*%
X143780000Y-93635000D02*
X145780000Y-93635000D01*
X145780000Y-93635000D02*
X145780000Y-97535000D01*
X143780000Y-93635000D02*
X143780000Y-97535000D01*
%TO.C,D41*%
X143780000Y-112685000D02*
X145780000Y-112685000D01*
X145780000Y-112685000D02*
X145780000Y-116585000D01*
X143780000Y-112685000D02*
X143780000Y-116585000D01*
%TO.C,D6*%
X162830000Y-55535000D02*
X162830000Y-59435000D01*
X164830000Y-55535000D02*
X164830000Y-59435000D01*
X162830000Y-55535000D02*
X164830000Y-55535000D01*
%TO.C,D18*%
X162830000Y-74585000D02*
X162830000Y-78485000D01*
X164830000Y-74585000D02*
X164830000Y-78485000D01*
X162830000Y-74585000D02*
X164830000Y-74585000D01*
%TO.C,D30*%
X162830000Y-93635000D02*
X162830000Y-97535000D01*
X164830000Y-93635000D02*
X164830000Y-97535000D01*
X162830000Y-93635000D02*
X164830000Y-93635000D01*
%TO.C,D42*%
X172355000Y-112685000D02*
X172355000Y-116585000D01*
X174355000Y-112685000D02*
X174355000Y-116585000D01*
X172355000Y-112685000D02*
X174355000Y-112685000D01*
%TO.C,D7*%
X181880000Y-55535000D02*
X181880000Y-59435000D01*
X183880000Y-55535000D02*
X183880000Y-59435000D01*
X181880000Y-55535000D02*
X183880000Y-55535000D01*
%TO.C,D19*%
X181880000Y-74585000D02*
X183880000Y-74585000D01*
X183880000Y-74585000D02*
X183880000Y-78485000D01*
X181880000Y-74585000D02*
X181880000Y-78485000D01*
%TO.C,D31*%
X181753000Y-93635000D02*
X183753000Y-93635000D01*
X183753000Y-93635000D02*
X183753000Y-97535000D01*
X181753000Y-93635000D02*
X181753000Y-97535000D01*
%TO.C,D8*%
X200930000Y-55535000D02*
X200930000Y-59435000D01*
X202930000Y-55535000D02*
X202930000Y-59435000D01*
X200930000Y-55535000D02*
X202930000Y-55535000D01*
%TO.C,D20*%
X200930000Y-74585000D02*
X200930000Y-78485000D01*
X202930000Y-74585000D02*
X202930000Y-78485000D01*
X200930000Y-74585000D02*
X202930000Y-74585000D01*
%TO.C,D32*%
X200930000Y-93635000D02*
X200930000Y-97535000D01*
X202930000Y-93635000D02*
X202930000Y-97535000D01*
X200930000Y-93635000D02*
X202930000Y-93635000D01*
%TO.C,D43*%
X200930000Y-112685000D02*
X202930000Y-112685000D01*
X202930000Y-112685000D02*
X202930000Y-116585000D01*
X200930000Y-112685000D02*
X200930000Y-116585000D01*
%TO.C,D9*%
X219980000Y-55535000D02*
X221980000Y-55535000D01*
X221980000Y-55535000D02*
X221980000Y-59435000D01*
X219980000Y-55535000D02*
X219980000Y-59435000D01*
%TO.C,D21*%
X219980000Y-74585000D02*
X221980000Y-74585000D01*
X221980000Y-74585000D02*
X221980000Y-78485000D01*
X219980000Y-74585000D02*
X219980000Y-78485000D01*
%TO.C,D33*%
X219980000Y-93635000D02*
X221980000Y-93635000D01*
X221980000Y-93635000D02*
X221980000Y-97535000D01*
X219980000Y-93635000D02*
X219980000Y-97535000D01*
%TO.C,D44*%
X219980000Y-112685000D02*
X219980000Y-116585000D01*
X221980000Y-112685000D02*
X221980000Y-116585000D01*
X219980000Y-112685000D02*
X221980000Y-112685000D01*
%TO.C,D10*%
X239030000Y-55535000D02*
X241030000Y-55535000D01*
X241030000Y-55535000D02*
X241030000Y-59435000D01*
X239030000Y-55535000D02*
X239030000Y-59435000D01*
%TO.C,D22*%
X239030000Y-74585000D02*
X239030000Y-78485000D01*
X241030000Y-74585000D02*
X241030000Y-78485000D01*
X239030000Y-74585000D02*
X241030000Y-74585000D01*
%TO.C,D34*%
X239030000Y-93635000D02*
X239030000Y-97535000D01*
X241030000Y-93635000D02*
X241030000Y-97535000D01*
X239030000Y-93635000D02*
X241030000Y-93635000D01*
%TO.C,D45*%
X239030000Y-112685000D02*
X241030000Y-112685000D01*
X241030000Y-112685000D02*
X241030000Y-116585000D01*
X239030000Y-112685000D02*
X239030000Y-116585000D01*
%TO.C,D11*%
X258080000Y-55535000D02*
X260080000Y-55535000D01*
X260080000Y-55535000D02*
X260080000Y-59435000D01*
X258080000Y-55535000D02*
X258080000Y-59435000D01*
%TO.C,D23*%
X258080000Y-74585000D02*
X260080000Y-74585000D01*
X260080000Y-74585000D02*
X260080000Y-78485000D01*
X258080000Y-74585000D02*
X258080000Y-78485000D01*
%TO.C,D35*%
X242205000Y-96175000D02*
X244205000Y-96175000D01*
X244205000Y-96175000D02*
X244205000Y-100075000D01*
X242205000Y-96175000D02*
X242205000Y-100075000D01*
%TO.C,D46*%
X258080000Y-112685000D02*
X258080000Y-116585000D01*
X260080000Y-112685000D02*
X260080000Y-116585000D01*
X258080000Y-112685000D02*
X260080000Y-112685000D01*
%TO.C,D12*%
X277130000Y-55535000D02*
X277130000Y-59435000D01*
X279130000Y-55535000D02*
X279130000Y-59435000D01*
X277130000Y-55535000D02*
X279130000Y-55535000D01*
%TO.C,D24*%
X277130000Y-74585000D02*
X277130000Y-78485000D01*
X279130000Y-74585000D02*
X279130000Y-78485000D01*
X277130000Y-74585000D02*
X279130000Y-74585000D01*
%TO.C,D36*%
X277130000Y-93635000D02*
X277130000Y-97535000D01*
X279130000Y-93635000D02*
X279130000Y-97535000D01*
X277130000Y-93635000D02*
X279130000Y-93635000D01*
%TO.C,D47*%
X277130000Y-112685000D02*
X279130000Y-112685000D01*
X279130000Y-112685000D02*
X279130000Y-116585000D01*
X277130000Y-112685000D02*
X277130000Y-116585000D01*
%TO.C,J2*%
D10*
X64716380Y-89709666D02*
X65430666Y-89709666D01*
X65573523Y-89662047D01*
X65668761Y-89566809D01*
X65716380Y-89423952D01*
X65716380Y-89328714D01*
X64811619Y-90138238D02*
X64764000Y-90185857D01*
X64716380Y-90281095D01*
X64716380Y-90519190D01*
X64764000Y-90614428D01*
X64811619Y-90662047D01*
X64906857Y-90709666D01*
X65002095Y-90709666D01*
X65144952Y-90662047D01*
X65716380Y-90090619D01*
X65716380Y-90709666D01*
%TO.C,J1*%
X263499380Y-90725666D02*
X264213666Y-90725666D01*
X264356523Y-90678047D01*
X264451761Y-90582809D01*
X264499380Y-90439952D01*
X264499380Y-90344714D01*
X264499380Y-91725666D02*
X264499380Y-91154238D01*
X264499380Y-91439952D02*
X263499380Y-91439952D01*
X263642238Y-91344714D01*
X263737476Y-91249476D01*
X263785095Y-91154238D01*
%TO.C,C12*%
X276547857Y-69982142D02*
X276595476Y-70029761D01*
X276738333Y-70077380D01*
X276833571Y-70077380D01*
X276976428Y-70029761D01*
X277071666Y-69934523D01*
X277119285Y-69839285D01*
X277166904Y-69648809D01*
X277166904Y-69505952D01*
X277119285Y-69315476D01*
X277071666Y-69220238D01*
X276976428Y-69125000D01*
X276833571Y-69077380D01*
X276738333Y-69077380D01*
X276595476Y-69125000D01*
X276547857Y-69172619D01*
X275595476Y-70077380D02*
X276166904Y-70077380D01*
X275881190Y-70077380D02*
X275881190Y-69077380D01*
X275976428Y-69220238D01*
X276071666Y-69315476D01*
X276166904Y-69363095D01*
X275214523Y-69172619D02*
X275166904Y-69125000D01*
X275071666Y-69077380D01*
X274833571Y-69077380D01*
X274738333Y-69125000D01*
X274690714Y-69172619D01*
X274643095Y-69267857D01*
X274643095Y-69363095D01*
X274690714Y-69505952D01*
X275262142Y-70077380D01*
X274643095Y-70077380D01*
%TO.C,C11*%
X257497857Y-69982142D02*
X257545476Y-70029761D01*
X257688333Y-70077380D01*
X257783571Y-70077380D01*
X257926428Y-70029761D01*
X258021666Y-69934523D01*
X258069285Y-69839285D01*
X258116904Y-69648809D01*
X258116904Y-69505952D01*
X258069285Y-69315476D01*
X258021666Y-69220238D01*
X257926428Y-69125000D01*
X257783571Y-69077380D01*
X257688333Y-69077380D01*
X257545476Y-69125000D01*
X257497857Y-69172619D01*
X256545476Y-70077380D02*
X257116904Y-70077380D01*
X256831190Y-70077380D02*
X256831190Y-69077380D01*
X256926428Y-69220238D01*
X257021666Y-69315476D01*
X257116904Y-69363095D01*
X255593095Y-70077380D02*
X256164523Y-70077380D01*
X255878809Y-70077380D02*
X255878809Y-69077380D01*
X255974047Y-69220238D01*
X256069285Y-69315476D01*
X256164523Y-69363095D01*
%TO.C,C10*%
X238447857Y-69982142D02*
X238495476Y-70029761D01*
X238638333Y-70077380D01*
X238733571Y-70077380D01*
X238876428Y-70029761D01*
X238971666Y-69934523D01*
X239019285Y-69839285D01*
X239066904Y-69648809D01*
X239066904Y-69505952D01*
X239019285Y-69315476D01*
X238971666Y-69220238D01*
X238876428Y-69125000D01*
X238733571Y-69077380D01*
X238638333Y-69077380D01*
X238495476Y-69125000D01*
X238447857Y-69172619D01*
X237495476Y-70077380D02*
X238066904Y-70077380D01*
X237781190Y-70077380D02*
X237781190Y-69077380D01*
X237876428Y-69220238D01*
X237971666Y-69315476D01*
X238066904Y-69363095D01*
X236876428Y-69077380D02*
X236781190Y-69077380D01*
X236685952Y-69125000D01*
X236638333Y-69172619D01*
X236590714Y-69267857D01*
X236543095Y-69458333D01*
X236543095Y-69696428D01*
X236590714Y-69886904D01*
X236638333Y-69982142D01*
X236685952Y-70029761D01*
X236781190Y-70077380D01*
X236876428Y-70077380D01*
X236971666Y-70029761D01*
X237019285Y-69982142D01*
X237066904Y-69886904D01*
X237114523Y-69696428D01*
X237114523Y-69458333D01*
X237066904Y-69267857D01*
X237019285Y-69172619D01*
X236971666Y-69125000D01*
X236876428Y-69077380D01*
%TO.C,C9*%
X218921666Y-69982142D02*
X218969285Y-70029761D01*
X219112142Y-70077380D01*
X219207380Y-70077380D01*
X219350238Y-70029761D01*
X219445476Y-69934523D01*
X219493095Y-69839285D01*
X219540714Y-69648809D01*
X219540714Y-69505952D01*
X219493095Y-69315476D01*
X219445476Y-69220238D01*
X219350238Y-69125000D01*
X219207380Y-69077380D01*
X219112142Y-69077380D01*
X218969285Y-69125000D01*
X218921666Y-69172619D01*
X218445476Y-70077380D02*
X218255000Y-70077380D01*
X218159761Y-70029761D01*
X218112142Y-69982142D01*
X218016904Y-69839285D01*
X217969285Y-69648809D01*
X217969285Y-69267857D01*
X218016904Y-69172619D01*
X218064523Y-69125000D01*
X218159761Y-69077380D01*
X218350238Y-69077380D01*
X218445476Y-69125000D01*
X218493095Y-69172619D01*
X218540714Y-69267857D01*
X218540714Y-69505952D01*
X218493095Y-69601190D01*
X218445476Y-69648809D01*
X218350238Y-69696428D01*
X218159761Y-69696428D01*
X218064523Y-69648809D01*
X218016904Y-69601190D01*
X217969285Y-69505952D01*
%TO.C,C8*%
X199876666Y-69982142D02*
X199924285Y-70029761D01*
X200067142Y-70077380D01*
X200162380Y-70077380D01*
X200305238Y-70029761D01*
X200400476Y-69934523D01*
X200448095Y-69839285D01*
X200495714Y-69648809D01*
X200495714Y-69505952D01*
X200448095Y-69315476D01*
X200400476Y-69220238D01*
X200305238Y-69125000D01*
X200162380Y-69077380D01*
X200067142Y-69077380D01*
X199924285Y-69125000D01*
X199876666Y-69172619D01*
X199305238Y-69505952D02*
X199400476Y-69458333D01*
X199448095Y-69410714D01*
X199495714Y-69315476D01*
X199495714Y-69267857D01*
X199448095Y-69172619D01*
X199400476Y-69125000D01*
X199305238Y-69077380D01*
X199114761Y-69077380D01*
X199019523Y-69125000D01*
X198971904Y-69172619D01*
X198924285Y-69267857D01*
X198924285Y-69315476D01*
X198971904Y-69410714D01*
X199019523Y-69458333D01*
X199114761Y-69505952D01*
X199305238Y-69505952D01*
X199400476Y-69553571D01*
X199448095Y-69601190D01*
X199495714Y-69696428D01*
X199495714Y-69886904D01*
X199448095Y-69982142D01*
X199400476Y-70029761D01*
X199305238Y-70077380D01*
X199114761Y-70077380D01*
X199019523Y-70029761D01*
X198971904Y-69982142D01*
X198924285Y-69886904D01*
X198924285Y-69696428D01*
X198971904Y-69601190D01*
X199019523Y-69553571D01*
X199114761Y-69505952D01*
%TO.C,C7*%
X180826666Y-69982142D02*
X180874285Y-70029761D01*
X181017142Y-70077380D01*
X181112380Y-70077380D01*
X181255238Y-70029761D01*
X181350476Y-69934523D01*
X181398095Y-69839285D01*
X181445714Y-69648809D01*
X181445714Y-69505952D01*
X181398095Y-69315476D01*
X181350476Y-69220238D01*
X181255238Y-69125000D01*
X181112380Y-69077380D01*
X181017142Y-69077380D01*
X180874285Y-69125000D01*
X180826666Y-69172619D01*
X180493333Y-69077380D02*
X179826666Y-69077380D01*
X180255238Y-70077380D01*
%TO.C,C6*%
X161776666Y-69982142D02*
X161824285Y-70029761D01*
X161967142Y-70077380D01*
X162062380Y-70077380D01*
X162205238Y-70029761D01*
X162300476Y-69934523D01*
X162348095Y-69839285D01*
X162395714Y-69648809D01*
X162395714Y-69505952D01*
X162348095Y-69315476D01*
X162300476Y-69220238D01*
X162205238Y-69125000D01*
X162062380Y-69077380D01*
X161967142Y-69077380D01*
X161824285Y-69125000D01*
X161776666Y-69172619D01*
X160919523Y-69077380D02*
X161110000Y-69077380D01*
X161205238Y-69125000D01*
X161252857Y-69172619D01*
X161348095Y-69315476D01*
X161395714Y-69505952D01*
X161395714Y-69886904D01*
X161348095Y-69982142D01*
X161300476Y-70029761D01*
X161205238Y-70077380D01*
X161014761Y-70077380D01*
X160919523Y-70029761D01*
X160871904Y-69982142D01*
X160824285Y-69886904D01*
X160824285Y-69648809D01*
X160871904Y-69553571D01*
X160919523Y-69505952D01*
X161014761Y-69458333D01*
X161205238Y-69458333D01*
X161300476Y-69505952D01*
X161348095Y-69553571D01*
X161395714Y-69648809D01*
%TO.C,C5*%
X142726666Y-69982142D02*
X142774285Y-70029761D01*
X142917142Y-70077380D01*
X143012380Y-70077380D01*
X143155238Y-70029761D01*
X143250476Y-69934523D01*
X143298095Y-69839285D01*
X143345714Y-69648809D01*
X143345714Y-69505952D01*
X143298095Y-69315476D01*
X143250476Y-69220238D01*
X143155238Y-69125000D01*
X143012380Y-69077380D01*
X142917142Y-69077380D01*
X142774285Y-69125000D01*
X142726666Y-69172619D01*
X141821904Y-69077380D02*
X142298095Y-69077380D01*
X142345714Y-69553571D01*
X142298095Y-69505952D01*
X142202857Y-69458333D01*
X141964761Y-69458333D01*
X141869523Y-69505952D01*
X141821904Y-69553571D01*
X141774285Y-69648809D01*
X141774285Y-69886904D01*
X141821904Y-69982142D01*
X141869523Y-70029761D01*
X141964761Y-70077380D01*
X142202857Y-70077380D01*
X142298095Y-70029761D01*
X142345714Y-69982142D01*
%TO.C,C4*%
X123676666Y-69982142D02*
X123724285Y-70029761D01*
X123867142Y-70077380D01*
X123962380Y-70077380D01*
X124105238Y-70029761D01*
X124200476Y-69934523D01*
X124248095Y-69839285D01*
X124295714Y-69648809D01*
X124295714Y-69505952D01*
X124248095Y-69315476D01*
X124200476Y-69220238D01*
X124105238Y-69125000D01*
X123962380Y-69077380D01*
X123867142Y-69077380D01*
X123724285Y-69125000D01*
X123676666Y-69172619D01*
X122819523Y-69410714D02*
X122819523Y-70077380D01*
X123057619Y-69029761D02*
X123295714Y-69744047D01*
X122676666Y-69744047D01*
%TO.C,C3*%
X104626666Y-69982142D02*
X104674285Y-70029761D01*
X104817142Y-70077380D01*
X104912380Y-70077380D01*
X105055238Y-70029761D01*
X105150476Y-69934523D01*
X105198095Y-69839285D01*
X105245714Y-69648809D01*
X105245714Y-69505952D01*
X105198095Y-69315476D01*
X105150476Y-69220238D01*
X105055238Y-69125000D01*
X104912380Y-69077380D01*
X104817142Y-69077380D01*
X104674285Y-69125000D01*
X104626666Y-69172619D01*
X104293333Y-69077380D02*
X103674285Y-69077380D01*
X104007619Y-69458333D01*
X103864761Y-69458333D01*
X103769523Y-69505952D01*
X103721904Y-69553571D01*
X103674285Y-69648809D01*
X103674285Y-69886904D01*
X103721904Y-69982142D01*
X103769523Y-70029761D01*
X103864761Y-70077380D01*
X104150476Y-70077380D01*
X104245714Y-70029761D01*
X104293333Y-69982142D01*
%TO.C,C2*%
X85576666Y-69982142D02*
X85624285Y-70029761D01*
X85767142Y-70077380D01*
X85862380Y-70077380D01*
X86005238Y-70029761D01*
X86100476Y-69934523D01*
X86148095Y-69839285D01*
X86195714Y-69648809D01*
X86195714Y-69505952D01*
X86148095Y-69315476D01*
X86100476Y-69220238D01*
X86005238Y-69125000D01*
X85862380Y-69077380D01*
X85767142Y-69077380D01*
X85624285Y-69125000D01*
X85576666Y-69172619D01*
X85195714Y-69172619D02*
X85148095Y-69125000D01*
X85052857Y-69077380D01*
X84814761Y-69077380D01*
X84719523Y-69125000D01*
X84671904Y-69172619D01*
X84624285Y-69267857D01*
X84624285Y-69363095D01*
X84671904Y-69505952D01*
X85243333Y-70077380D01*
X84624285Y-70077380D01*
%TO.C,C1*%
X66526666Y-69982142D02*
X66574285Y-70029761D01*
X66717142Y-70077380D01*
X66812380Y-70077380D01*
X66955238Y-70029761D01*
X67050476Y-69934523D01*
X67098095Y-69839285D01*
X67145714Y-69648809D01*
X67145714Y-69505952D01*
X67098095Y-69315476D01*
X67050476Y-69220238D01*
X66955238Y-69125000D01*
X66812380Y-69077380D01*
X66717142Y-69077380D01*
X66574285Y-69125000D01*
X66526666Y-69172619D01*
X65574285Y-70077380D02*
X66145714Y-70077380D01*
X65860000Y-70077380D02*
X65860000Y-69077380D01*
X65955238Y-69220238D01*
X66050476Y-69315476D01*
X66145714Y-69363095D01*
%TO.C,D1*%
X67032380Y-57046904D02*
X66032380Y-57046904D01*
X66032380Y-57285000D01*
X66080000Y-57427857D01*
X66175238Y-57523095D01*
X66270476Y-57570714D01*
X66460952Y-57618333D01*
X66603809Y-57618333D01*
X66794285Y-57570714D01*
X66889523Y-57523095D01*
X66984761Y-57427857D01*
X67032380Y-57285000D01*
X67032380Y-57046904D01*
X67032380Y-58570714D02*
X67032380Y-57999285D01*
X67032380Y-58285000D02*
X66032380Y-58285000D01*
X66175238Y-58189761D01*
X66270476Y-58094523D01*
X66318095Y-57999285D01*
%TO.C,D13*%
X67032380Y-75620714D02*
X66032380Y-75620714D01*
X66032380Y-75858809D01*
X66080000Y-76001666D01*
X66175238Y-76096904D01*
X66270476Y-76144523D01*
X66460952Y-76192142D01*
X66603809Y-76192142D01*
X66794285Y-76144523D01*
X66889523Y-76096904D01*
X66984761Y-76001666D01*
X67032380Y-75858809D01*
X67032380Y-75620714D01*
X67032380Y-77144523D02*
X67032380Y-76573095D01*
X67032380Y-76858809D02*
X66032380Y-76858809D01*
X66175238Y-76763571D01*
X66270476Y-76668333D01*
X66318095Y-76573095D01*
X66032380Y-77477857D02*
X66032380Y-78096904D01*
X66413333Y-77763571D01*
X66413333Y-77906428D01*
X66460952Y-78001666D01*
X66508571Y-78049285D01*
X66603809Y-78096904D01*
X66841904Y-78096904D01*
X66937142Y-78049285D01*
X66984761Y-78001666D01*
X67032380Y-77906428D01*
X67032380Y-77620714D01*
X66984761Y-77525476D01*
X66937142Y-77477857D01*
%TO.C,D25*%
X70207380Y-97845714D02*
X69207380Y-97845714D01*
X69207380Y-98083809D01*
X69255000Y-98226666D01*
X69350238Y-98321904D01*
X69445476Y-98369523D01*
X69635952Y-98417142D01*
X69778809Y-98417142D01*
X69969285Y-98369523D01*
X70064523Y-98321904D01*
X70159761Y-98226666D01*
X70207380Y-98083809D01*
X70207380Y-97845714D01*
X69302619Y-98798095D02*
X69255000Y-98845714D01*
X69207380Y-98940952D01*
X69207380Y-99179047D01*
X69255000Y-99274285D01*
X69302619Y-99321904D01*
X69397857Y-99369523D01*
X69493095Y-99369523D01*
X69635952Y-99321904D01*
X70207380Y-98750476D01*
X70207380Y-99369523D01*
X69207380Y-100274285D02*
X69207380Y-99798095D01*
X69683571Y-99750476D01*
X69635952Y-99798095D01*
X69588333Y-99893333D01*
X69588333Y-100131428D01*
X69635952Y-100226666D01*
X69683571Y-100274285D01*
X69778809Y-100321904D01*
X70016904Y-100321904D01*
X70112142Y-100274285D01*
X70159761Y-100226666D01*
X70207380Y-100131428D01*
X70207380Y-99893333D01*
X70159761Y-99798095D01*
X70112142Y-99750476D01*
%TO.C,D37*%
X67032380Y-113720714D02*
X66032380Y-113720714D01*
X66032380Y-113958809D01*
X66080000Y-114101666D01*
X66175238Y-114196904D01*
X66270476Y-114244523D01*
X66460952Y-114292142D01*
X66603809Y-114292142D01*
X66794285Y-114244523D01*
X66889523Y-114196904D01*
X66984761Y-114101666D01*
X67032380Y-113958809D01*
X67032380Y-113720714D01*
X66032380Y-114625476D02*
X66032380Y-115244523D01*
X66413333Y-114911190D01*
X66413333Y-115054047D01*
X66460952Y-115149285D01*
X66508571Y-115196904D01*
X66603809Y-115244523D01*
X66841904Y-115244523D01*
X66937142Y-115196904D01*
X66984761Y-115149285D01*
X67032380Y-115054047D01*
X67032380Y-114768333D01*
X66984761Y-114673095D01*
X66937142Y-114625476D01*
X66032380Y-115577857D02*
X66032380Y-116244523D01*
X67032380Y-115815952D01*
%TO.C,D2*%
X86082380Y-57046904D02*
X85082380Y-57046904D01*
X85082380Y-57285000D01*
X85130000Y-57427857D01*
X85225238Y-57523095D01*
X85320476Y-57570714D01*
X85510952Y-57618333D01*
X85653809Y-57618333D01*
X85844285Y-57570714D01*
X85939523Y-57523095D01*
X86034761Y-57427857D01*
X86082380Y-57285000D01*
X86082380Y-57046904D01*
X85177619Y-57999285D02*
X85130000Y-58046904D01*
X85082380Y-58142142D01*
X85082380Y-58380238D01*
X85130000Y-58475476D01*
X85177619Y-58523095D01*
X85272857Y-58570714D01*
X85368095Y-58570714D01*
X85510952Y-58523095D01*
X86082380Y-57951666D01*
X86082380Y-58570714D01*
%TO.C,D14*%
X86082380Y-75620714D02*
X85082380Y-75620714D01*
X85082380Y-75858809D01*
X85130000Y-76001666D01*
X85225238Y-76096904D01*
X85320476Y-76144523D01*
X85510952Y-76192142D01*
X85653809Y-76192142D01*
X85844285Y-76144523D01*
X85939523Y-76096904D01*
X86034761Y-76001666D01*
X86082380Y-75858809D01*
X86082380Y-75620714D01*
X86082380Y-77144523D02*
X86082380Y-76573095D01*
X86082380Y-76858809D02*
X85082380Y-76858809D01*
X85225238Y-76763571D01*
X85320476Y-76668333D01*
X85368095Y-76573095D01*
X85415714Y-78001666D02*
X86082380Y-78001666D01*
X85034761Y-77763571D02*
X85749047Y-77525476D01*
X85749047Y-78144523D01*
%TO.C,D26*%
X86082380Y-94670714D02*
X85082380Y-94670714D01*
X85082380Y-94908809D01*
X85130000Y-95051666D01*
X85225238Y-95146904D01*
X85320476Y-95194523D01*
X85510952Y-95242142D01*
X85653809Y-95242142D01*
X85844285Y-95194523D01*
X85939523Y-95146904D01*
X86034761Y-95051666D01*
X86082380Y-94908809D01*
X86082380Y-94670714D01*
X85177619Y-95623095D02*
X85130000Y-95670714D01*
X85082380Y-95765952D01*
X85082380Y-96004047D01*
X85130000Y-96099285D01*
X85177619Y-96146904D01*
X85272857Y-96194523D01*
X85368095Y-96194523D01*
X85510952Y-96146904D01*
X86082380Y-95575476D01*
X86082380Y-96194523D01*
X85082380Y-97051666D02*
X85082380Y-96861190D01*
X85130000Y-96765952D01*
X85177619Y-96718333D01*
X85320476Y-96623095D01*
X85510952Y-96575476D01*
X85891904Y-96575476D01*
X85987142Y-96623095D01*
X86034761Y-96670714D01*
X86082380Y-96765952D01*
X86082380Y-96956428D01*
X86034761Y-97051666D01*
X85987142Y-97099285D01*
X85891904Y-97146904D01*
X85653809Y-97146904D01*
X85558571Y-97099285D01*
X85510952Y-97051666D01*
X85463333Y-96956428D01*
X85463333Y-96765952D01*
X85510952Y-96670714D01*
X85558571Y-96623095D01*
X85653809Y-96575476D01*
%TO.C,D38*%
X86082380Y-113720714D02*
X85082380Y-113720714D01*
X85082380Y-113958809D01*
X85130000Y-114101666D01*
X85225238Y-114196904D01*
X85320476Y-114244523D01*
X85510952Y-114292142D01*
X85653809Y-114292142D01*
X85844285Y-114244523D01*
X85939523Y-114196904D01*
X86034761Y-114101666D01*
X86082380Y-113958809D01*
X86082380Y-113720714D01*
X85082380Y-114625476D02*
X85082380Y-115244523D01*
X85463333Y-114911190D01*
X85463333Y-115054047D01*
X85510952Y-115149285D01*
X85558571Y-115196904D01*
X85653809Y-115244523D01*
X85891904Y-115244523D01*
X85987142Y-115196904D01*
X86034761Y-115149285D01*
X86082380Y-115054047D01*
X86082380Y-114768333D01*
X86034761Y-114673095D01*
X85987142Y-114625476D01*
X85510952Y-115815952D02*
X85463333Y-115720714D01*
X85415714Y-115673095D01*
X85320476Y-115625476D01*
X85272857Y-115625476D01*
X85177619Y-115673095D01*
X85130000Y-115720714D01*
X85082380Y-115815952D01*
X85082380Y-116006428D01*
X85130000Y-116101666D01*
X85177619Y-116149285D01*
X85272857Y-116196904D01*
X85320476Y-116196904D01*
X85415714Y-116149285D01*
X85463333Y-116101666D01*
X85510952Y-116006428D01*
X85510952Y-115815952D01*
X85558571Y-115720714D01*
X85606190Y-115673095D01*
X85701428Y-115625476D01*
X85891904Y-115625476D01*
X85987142Y-115673095D01*
X86034761Y-115720714D01*
X86082380Y-115815952D01*
X86082380Y-116006428D01*
X86034761Y-116101666D01*
X85987142Y-116149285D01*
X85891904Y-116196904D01*
X85701428Y-116196904D01*
X85606190Y-116149285D01*
X85558571Y-116101666D01*
X85510952Y-116006428D01*
%TO.C,D3*%
X105132380Y-57046904D02*
X104132380Y-57046904D01*
X104132380Y-57285000D01*
X104180000Y-57427857D01*
X104275238Y-57523095D01*
X104370476Y-57570714D01*
X104560952Y-57618333D01*
X104703809Y-57618333D01*
X104894285Y-57570714D01*
X104989523Y-57523095D01*
X105084761Y-57427857D01*
X105132380Y-57285000D01*
X105132380Y-57046904D01*
X104132380Y-57951666D02*
X104132380Y-58570714D01*
X104513333Y-58237380D01*
X104513333Y-58380238D01*
X104560952Y-58475476D01*
X104608571Y-58523095D01*
X104703809Y-58570714D01*
X104941904Y-58570714D01*
X105037142Y-58523095D01*
X105084761Y-58475476D01*
X105132380Y-58380238D01*
X105132380Y-58094523D01*
X105084761Y-57999285D01*
X105037142Y-57951666D01*
%TO.C,D15*%
X105132380Y-75620714D02*
X104132380Y-75620714D01*
X104132380Y-75858809D01*
X104180000Y-76001666D01*
X104275238Y-76096904D01*
X104370476Y-76144523D01*
X104560952Y-76192142D01*
X104703809Y-76192142D01*
X104894285Y-76144523D01*
X104989523Y-76096904D01*
X105084761Y-76001666D01*
X105132380Y-75858809D01*
X105132380Y-75620714D01*
X105132380Y-77144523D02*
X105132380Y-76573095D01*
X105132380Y-76858809D02*
X104132380Y-76858809D01*
X104275238Y-76763571D01*
X104370476Y-76668333D01*
X104418095Y-76573095D01*
X104132380Y-78049285D02*
X104132380Y-77573095D01*
X104608571Y-77525476D01*
X104560952Y-77573095D01*
X104513333Y-77668333D01*
X104513333Y-77906428D01*
X104560952Y-78001666D01*
X104608571Y-78049285D01*
X104703809Y-78096904D01*
X104941904Y-78096904D01*
X105037142Y-78049285D01*
X105084761Y-78001666D01*
X105132380Y-77906428D01*
X105132380Y-77668333D01*
X105084761Y-77573095D01*
X105037142Y-77525476D01*
%TO.C,D27*%
X105132380Y-94670714D02*
X104132380Y-94670714D01*
X104132380Y-94908809D01*
X104180000Y-95051666D01*
X104275238Y-95146904D01*
X104370476Y-95194523D01*
X104560952Y-95242142D01*
X104703809Y-95242142D01*
X104894285Y-95194523D01*
X104989523Y-95146904D01*
X105084761Y-95051666D01*
X105132380Y-94908809D01*
X105132380Y-94670714D01*
X104227619Y-95623095D02*
X104180000Y-95670714D01*
X104132380Y-95765952D01*
X104132380Y-96004047D01*
X104180000Y-96099285D01*
X104227619Y-96146904D01*
X104322857Y-96194523D01*
X104418095Y-96194523D01*
X104560952Y-96146904D01*
X105132380Y-95575476D01*
X105132380Y-96194523D01*
X104132380Y-96527857D02*
X104132380Y-97194523D01*
X105132380Y-96765952D01*
%TO.C,D39*%
X105132380Y-113720714D02*
X104132380Y-113720714D01*
X104132380Y-113958809D01*
X104180000Y-114101666D01*
X104275238Y-114196904D01*
X104370476Y-114244523D01*
X104560952Y-114292142D01*
X104703809Y-114292142D01*
X104894285Y-114244523D01*
X104989523Y-114196904D01*
X105084761Y-114101666D01*
X105132380Y-113958809D01*
X105132380Y-113720714D01*
X104132380Y-114625476D02*
X104132380Y-115244523D01*
X104513333Y-114911190D01*
X104513333Y-115054047D01*
X104560952Y-115149285D01*
X104608571Y-115196904D01*
X104703809Y-115244523D01*
X104941904Y-115244523D01*
X105037142Y-115196904D01*
X105084761Y-115149285D01*
X105132380Y-115054047D01*
X105132380Y-114768333D01*
X105084761Y-114673095D01*
X105037142Y-114625476D01*
X105132380Y-115720714D02*
X105132380Y-115911190D01*
X105084761Y-116006428D01*
X105037142Y-116054047D01*
X104894285Y-116149285D01*
X104703809Y-116196904D01*
X104322857Y-116196904D01*
X104227619Y-116149285D01*
X104180000Y-116101666D01*
X104132380Y-116006428D01*
X104132380Y-115815952D01*
X104180000Y-115720714D01*
X104227619Y-115673095D01*
X104322857Y-115625476D01*
X104560952Y-115625476D01*
X104656190Y-115673095D01*
X104703809Y-115720714D01*
X104751428Y-115815952D01*
X104751428Y-116006428D01*
X104703809Y-116101666D01*
X104656190Y-116149285D01*
X104560952Y-116196904D01*
%TO.C,D4*%
X124182380Y-57046904D02*
X123182380Y-57046904D01*
X123182380Y-57285000D01*
X123230000Y-57427857D01*
X123325238Y-57523095D01*
X123420476Y-57570714D01*
X123610952Y-57618333D01*
X123753809Y-57618333D01*
X123944285Y-57570714D01*
X124039523Y-57523095D01*
X124134761Y-57427857D01*
X124182380Y-57285000D01*
X124182380Y-57046904D01*
X123515714Y-58475476D02*
X124182380Y-58475476D01*
X123134761Y-58237380D02*
X123849047Y-57999285D01*
X123849047Y-58618333D01*
%TO.C,D16*%
X124182380Y-75620714D02*
X123182380Y-75620714D01*
X123182380Y-75858809D01*
X123230000Y-76001666D01*
X123325238Y-76096904D01*
X123420476Y-76144523D01*
X123610952Y-76192142D01*
X123753809Y-76192142D01*
X123944285Y-76144523D01*
X124039523Y-76096904D01*
X124134761Y-76001666D01*
X124182380Y-75858809D01*
X124182380Y-75620714D01*
X124182380Y-77144523D02*
X124182380Y-76573095D01*
X124182380Y-76858809D02*
X123182380Y-76858809D01*
X123325238Y-76763571D01*
X123420476Y-76668333D01*
X123468095Y-76573095D01*
X123182380Y-78001666D02*
X123182380Y-77811190D01*
X123230000Y-77715952D01*
X123277619Y-77668333D01*
X123420476Y-77573095D01*
X123610952Y-77525476D01*
X123991904Y-77525476D01*
X124087142Y-77573095D01*
X124134761Y-77620714D01*
X124182380Y-77715952D01*
X124182380Y-77906428D01*
X124134761Y-78001666D01*
X124087142Y-78049285D01*
X123991904Y-78096904D01*
X123753809Y-78096904D01*
X123658571Y-78049285D01*
X123610952Y-78001666D01*
X123563333Y-77906428D01*
X123563333Y-77715952D01*
X123610952Y-77620714D01*
X123658571Y-77573095D01*
X123753809Y-77525476D01*
%TO.C,D28*%
X124182380Y-94670714D02*
X123182380Y-94670714D01*
X123182380Y-94908809D01*
X123230000Y-95051666D01*
X123325238Y-95146904D01*
X123420476Y-95194523D01*
X123610952Y-95242142D01*
X123753809Y-95242142D01*
X123944285Y-95194523D01*
X124039523Y-95146904D01*
X124134761Y-95051666D01*
X124182380Y-94908809D01*
X124182380Y-94670714D01*
X123277619Y-95623095D02*
X123230000Y-95670714D01*
X123182380Y-95765952D01*
X123182380Y-96004047D01*
X123230000Y-96099285D01*
X123277619Y-96146904D01*
X123372857Y-96194523D01*
X123468095Y-96194523D01*
X123610952Y-96146904D01*
X124182380Y-95575476D01*
X124182380Y-96194523D01*
X123610952Y-96765952D02*
X123563333Y-96670714D01*
X123515714Y-96623095D01*
X123420476Y-96575476D01*
X123372857Y-96575476D01*
X123277619Y-96623095D01*
X123230000Y-96670714D01*
X123182380Y-96765952D01*
X123182380Y-96956428D01*
X123230000Y-97051666D01*
X123277619Y-97099285D01*
X123372857Y-97146904D01*
X123420476Y-97146904D01*
X123515714Y-97099285D01*
X123563333Y-97051666D01*
X123610952Y-96956428D01*
X123610952Y-96765952D01*
X123658571Y-96670714D01*
X123706190Y-96623095D01*
X123801428Y-96575476D01*
X123991904Y-96575476D01*
X124087142Y-96623095D01*
X124134761Y-96670714D01*
X124182380Y-96765952D01*
X124182380Y-96956428D01*
X124134761Y-97051666D01*
X124087142Y-97099285D01*
X123991904Y-97146904D01*
X123801428Y-97146904D01*
X123706190Y-97099285D01*
X123658571Y-97051666D01*
X123610952Y-96956428D01*
%TO.C,D40*%
X124182380Y-113720714D02*
X123182380Y-113720714D01*
X123182380Y-113958809D01*
X123230000Y-114101666D01*
X123325238Y-114196904D01*
X123420476Y-114244523D01*
X123610952Y-114292142D01*
X123753809Y-114292142D01*
X123944285Y-114244523D01*
X124039523Y-114196904D01*
X124134761Y-114101666D01*
X124182380Y-113958809D01*
X124182380Y-113720714D01*
X123515714Y-115149285D02*
X124182380Y-115149285D01*
X123134761Y-114911190D02*
X123849047Y-114673095D01*
X123849047Y-115292142D01*
X123182380Y-115863571D02*
X123182380Y-115958809D01*
X123230000Y-116054047D01*
X123277619Y-116101666D01*
X123372857Y-116149285D01*
X123563333Y-116196904D01*
X123801428Y-116196904D01*
X123991904Y-116149285D01*
X124087142Y-116101666D01*
X124134761Y-116054047D01*
X124182380Y-115958809D01*
X124182380Y-115863571D01*
X124134761Y-115768333D01*
X124087142Y-115720714D01*
X123991904Y-115673095D01*
X123801428Y-115625476D01*
X123563333Y-115625476D01*
X123372857Y-115673095D01*
X123277619Y-115720714D01*
X123230000Y-115768333D01*
X123182380Y-115863571D01*
%TO.C,D5*%
X143232380Y-57046904D02*
X142232380Y-57046904D01*
X142232380Y-57285000D01*
X142280000Y-57427857D01*
X142375238Y-57523095D01*
X142470476Y-57570714D01*
X142660952Y-57618333D01*
X142803809Y-57618333D01*
X142994285Y-57570714D01*
X143089523Y-57523095D01*
X143184761Y-57427857D01*
X143232380Y-57285000D01*
X143232380Y-57046904D01*
X142232380Y-58523095D02*
X142232380Y-58046904D01*
X142708571Y-57999285D01*
X142660952Y-58046904D01*
X142613333Y-58142142D01*
X142613333Y-58380238D01*
X142660952Y-58475476D01*
X142708571Y-58523095D01*
X142803809Y-58570714D01*
X143041904Y-58570714D01*
X143137142Y-58523095D01*
X143184761Y-58475476D01*
X143232380Y-58380238D01*
X143232380Y-58142142D01*
X143184761Y-58046904D01*
X143137142Y-57999285D01*
%TO.C,D17*%
X143232380Y-75620714D02*
X142232380Y-75620714D01*
X142232380Y-75858809D01*
X142280000Y-76001666D01*
X142375238Y-76096904D01*
X142470476Y-76144523D01*
X142660952Y-76192142D01*
X142803809Y-76192142D01*
X142994285Y-76144523D01*
X143089523Y-76096904D01*
X143184761Y-76001666D01*
X143232380Y-75858809D01*
X143232380Y-75620714D01*
X143232380Y-77144523D02*
X143232380Y-76573095D01*
X143232380Y-76858809D02*
X142232380Y-76858809D01*
X142375238Y-76763571D01*
X142470476Y-76668333D01*
X142518095Y-76573095D01*
X142232380Y-77477857D02*
X142232380Y-78144523D01*
X143232380Y-77715952D01*
%TO.C,D29*%
X143232380Y-94670714D02*
X142232380Y-94670714D01*
X142232380Y-94908809D01*
X142280000Y-95051666D01*
X142375238Y-95146904D01*
X142470476Y-95194523D01*
X142660952Y-95242142D01*
X142803809Y-95242142D01*
X142994285Y-95194523D01*
X143089523Y-95146904D01*
X143184761Y-95051666D01*
X143232380Y-94908809D01*
X143232380Y-94670714D01*
X142327619Y-95623095D02*
X142280000Y-95670714D01*
X142232380Y-95765952D01*
X142232380Y-96004047D01*
X142280000Y-96099285D01*
X142327619Y-96146904D01*
X142422857Y-96194523D01*
X142518095Y-96194523D01*
X142660952Y-96146904D01*
X143232380Y-95575476D01*
X143232380Y-96194523D01*
X143232380Y-96670714D02*
X143232380Y-96861190D01*
X143184761Y-96956428D01*
X143137142Y-97004047D01*
X142994285Y-97099285D01*
X142803809Y-97146904D01*
X142422857Y-97146904D01*
X142327619Y-97099285D01*
X142280000Y-97051666D01*
X142232380Y-96956428D01*
X142232380Y-96765952D01*
X142280000Y-96670714D01*
X142327619Y-96623095D01*
X142422857Y-96575476D01*
X142660952Y-96575476D01*
X142756190Y-96623095D01*
X142803809Y-96670714D01*
X142851428Y-96765952D01*
X142851428Y-96956428D01*
X142803809Y-97051666D01*
X142756190Y-97099285D01*
X142660952Y-97146904D01*
%TO.C,D41*%
X143232380Y-113720714D02*
X142232380Y-113720714D01*
X142232380Y-113958809D01*
X142280000Y-114101666D01*
X142375238Y-114196904D01*
X142470476Y-114244523D01*
X142660952Y-114292142D01*
X142803809Y-114292142D01*
X142994285Y-114244523D01*
X143089523Y-114196904D01*
X143184761Y-114101666D01*
X143232380Y-113958809D01*
X143232380Y-113720714D01*
X142565714Y-115149285D02*
X143232380Y-115149285D01*
X142184761Y-114911190D02*
X142899047Y-114673095D01*
X142899047Y-115292142D01*
X143232380Y-116196904D02*
X143232380Y-115625476D01*
X143232380Y-115911190D02*
X142232380Y-115911190D01*
X142375238Y-115815952D01*
X142470476Y-115720714D01*
X142518095Y-115625476D01*
%TO.C,D6*%
X162282380Y-57046904D02*
X161282380Y-57046904D01*
X161282380Y-57285000D01*
X161330000Y-57427857D01*
X161425238Y-57523095D01*
X161520476Y-57570714D01*
X161710952Y-57618333D01*
X161853809Y-57618333D01*
X162044285Y-57570714D01*
X162139523Y-57523095D01*
X162234761Y-57427857D01*
X162282380Y-57285000D01*
X162282380Y-57046904D01*
X161282380Y-58475476D02*
X161282380Y-58285000D01*
X161330000Y-58189761D01*
X161377619Y-58142142D01*
X161520476Y-58046904D01*
X161710952Y-57999285D01*
X162091904Y-57999285D01*
X162187142Y-58046904D01*
X162234761Y-58094523D01*
X162282380Y-58189761D01*
X162282380Y-58380238D01*
X162234761Y-58475476D01*
X162187142Y-58523095D01*
X162091904Y-58570714D01*
X161853809Y-58570714D01*
X161758571Y-58523095D01*
X161710952Y-58475476D01*
X161663333Y-58380238D01*
X161663333Y-58189761D01*
X161710952Y-58094523D01*
X161758571Y-58046904D01*
X161853809Y-57999285D01*
%TO.C,D18*%
X162282380Y-75620714D02*
X161282380Y-75620714D01*
X161282380Y-75858809D01*
X161330000Y-76001666D01*
X161425238Y-76096904D01*
X161520476Y-76144523D01*
X161710952Y-76192142D01*
X161853809Y-76192142D01*
X162044285Y-76144523D01*
X162139523Y-76096904D01*
X162234761Y-76001666D01*
X162282380Y-75858809D01*
X162282380Y-75620714D01*
X162282380Y-77144523D02*
X162282380Y-76573095D01*
X162282380Y-76858809D02*
X161282380Y-76858809D01*
X161425238Y-76763571D01*
X161520476Y-76668333D01*
X161568095Y-76573095D01*
X161710952Y-77715952D02*
X161663333Y-77620714D01*
X161615714Y-77573095D01*
X161520476Y-77525476D01*
X161472857Y-77525476D01*
X161377619Y-77573095D01*
X161330000Y-77620714D01*
X161282380Y-77715952D01*
X161282380Y-77906428D01*
X161330000Y-78001666D01*
X161377619Y-78049285D01*
X161472857Y-78096904D01*
X161520476Y-78096904D01*
X161615714Y-78049285D01*
X161663333Y-78001666D01*
X161710952Y-77906428D01*
X161710952Y-77715952D01*
X161758571Y-77620714D01*
X161806190Y-77573095D01*
X161901428Y-77525476D01*
X162091904Y-77525476D01*
X162187142Y-77573095D01*
X162234761Y-77620714D01*
X162282380Y-77715952D01*
X162282380Y-77906428D01*
X162234761Y-78001666D01*
X162187142Y-78049285D01*
X162091904Y-78096904D01*
X161901428Y-78096904D01*
X161806190Y-78049285D01*
X161758571Y-78001666D01*
X161710952Y-77906428D01*
%TO.C,D30*%
X162282380Y-94670714D02*
X161282380Y-94670714D01*
X161282380Y-94908809D01*
X161330000Y-95051666D01*
X161425238Y-95146904D01*
X161520476Y-95194523D01*
X161710952Y-95242142D01*
X161853809Y-95242142D01*
X162044285Y-95194523D01*
X162139523Y-95146904D01*
X162234761Y-95051666D01*
X162282380Y-94908809D01*
X162282380Y-94670714D01*
X161282380Y-95575476D02*
X161282380Y-96194523D01*
X161663333Y-95861190D01*
X161663333Y-96004047D01*
X161710952Y-96099285D01*
X161758571Y-96146904D01*
X161853809Y-96194523D01*
X162091904Y-96194523D01*
X162187142Y-96146904D01*
X162234761Y-96099285D01*
X162282380Y-96004047D01*
X162282380Y-95718333D01*
X162234761Y-95623095D01*
X162187142Y-95575476D01*
X161282380Y-96813571D02*
X161282380Y-96908809D01*
X161330000Y-97004047D01*
X161377619Y-97051666D01*
X161472857Y-97099285D01*
X161663333Y-97146904D01*
X161901428Y-97146904D01*
X162091904Y-97099285D01*
X162187142Y-97051666D01*
X162234761Y-97004047D01*
X162282380Y-96908809D01*
X162282380Y-96813571D01*
X162234761Y-96718333D01*
X162187142Y-96670714D01*
X162091904Y-96623095D01*
X161901428Y-96575476D01*
X161663333Y-96575476D01*
X161472857Y-96623095D01*
X161377619Y-96670714D01*
X161330000Y-96718333D01*
X161282380Y-96813571D01*
%TO.C,D42*%
X171807380Y-113720714D02*
X170807380Y-113720714D01*
X170807380Y-113958809D01*
X170855000Y-114101666D01*
X170950238Y-114196904D01*
X171045476Y-114244523D01*
X171235952Y-114292142D01*
X171378809Y-114292142D01*
X171569285Y-114244523D01*
X171664523Y-114196904D01*
X171759761Y-114101666D01*
X171807380Y-113958809D01*
X171807380Y-113720714D01*
X171140714Y-115149285D02*
X171807380Y-115149285D01*
X170759761Y-114911190D02*
X171474047Y-114673095D01*
X171474047Y-115292142D01*
X170902619Y-115625476D02*
X170855000Y-115673095D01*
X170807380Y-115768333D01*
X170807380Y-116006428D01*
X170855000Y-116101666D01*
X170902619Y-116149285D01*
X170997857Y-116196904D01*
X171093095Y-116196904D01*
X171235952Y-116149285D01*
X171807380Y-115577857D01*
X171807380Y-116196904D01*
%TO.C,D7*%
X181332380Y-57046904D02*
X180332380Y-57046904D01*
X180332380Y-57285000D01*
X180380000Y-57427857D01*
X180475238Y-57523095D01*
X180570476Y-57570714D01*
X180760952Y-57618333D01*
X180903809Y-57618333D01*
X181094285Y-57570714D01*
X181189523Y-57523095D01*
X181284761Y-57427857D01*
X181332380Y-57285000D01*
X181332380Y-57046904D01*
X180332380Y-57951666D02*
X180332380Y-58618333D01*
X181332380Y-58189761D01*
%TO.C,D19*%
X181332380Y-75620714D02*
X180332380Y-75620714D01*
X180332380Y-75858809D01*
X180380000Y-76001666D01*
X180475238Y-76096904D01*
X180570476Y-76144523D01*
X180760952Y-76192142D01*
X180903809Y-76192142D01*
X181094285Y-76144523D01*
X181189523Y-76096904D01*
X181284761Y-76001666D01*
X181332380Y-75858809D01*
X181332380Y-75620714D01*
X181332380Y-77144523D02*
X181332380Y-76573095D01*
X181332380Y-76858809D02*
X180332380Y-76858809D01*
X180475238Y-76763571D01*
X180570476Y-76668333D01*
X180618095Y-76573095D01*
X181332380Y-77620714D02*
X181332380Y-77811190D01*
X181284761Y-77906428D01*
X181237142Y-77954047D01*
X181094285Y-78049285D01*
X180903809Y-78096904D01*
X180522857Y-78096904D01*
X180427619Y-78049285D01*
X180380000Y-78001666D01*
X180332380Y-77906428D01*
X180332380Y-77715952D01*
X180380000Y-77620714D01*
X180427619Y-77573095D01*
X180522857Y-77525476D01*
X180760952Y-77525476D01*
X180856190Y-77573095D01*
X180903809Y-77620714D01*
X180951428Y-77715952D01*
X180951428Y-77906428D01*
X180903809Y-78001666D01*
X180856190Y-78049285D01*
X180760952Y-78096904D01*
%TO.C,D31*%
X181205380Y-94670714D02*
X180205380Y-94670714D01*
X180205380Y-94908809D01*
X180253000Y-95051666D01*
X180348238Y-95146904D01*
X180443476Y-95194523D01*
X180633952Y-95242142D01*
X180776809Y-95242142D01*
X180967285Y-95194523D01*
X181062523Y-95146904D01*
X181157761Y-95051666D01*
X181205380Y-94908809D01*
X181205380Y-94670714D01*
X180205380Y-95575476D02*
X180205380Y-96194523D01*
X180586333Y-95861190D01*
X180586333Y-96004047D01*
X180633952Y-96099285D01*
X180681571Y-96146904D01*
X180776809Y-96194523D01*
X181014904Y-96194523D01*
X181110142Y-96146904D01*
X181157761Y-96099285D01*
X181205380Y-96004047D01*
X181205380Y-95718333D01*
X181157761Y-95623095D01*
X181110142Y-95575476D01*
X181205380Y-97146904D02*
X181205380Y-96575476D01*
X181205380Y-96861190D02*
X180205380Y-96861190D01*
X180348238Y-96765952D01*
X180443476Y-96670714D01*
X180491095Y-96575476D01*
%TO.C,D8*%
X200382380Y-57046904D02*
X199382380Y-57046904D01*
X199382380Y-57285000D01*
X199430000Y-57427857D01*
X199525238Y-57523095D01*
X199620476Y-57570714D01*
X199810952Y-57618333D01*
X199953809Y-57618333D01*
X200144285Y-57570714D01*
X200239523Y-57523095D01*
X200334761Y-57427857D01*
X200382380Y-57285000D01*
X200382380Y-57046904D01*
X199810952Y-58189761D02*
X199763333Y-58094523D01*
X199715714Y-58046904D01*
X199620476Y-57999285D01*
X199572857Y-57999285D01*
X199477619Y-58046904D01*
X199430000Y-58094523D01*
X199382380Y-58189761D01*
X199382380Y-58380238D01*
X199430000Y-58475476D01*
X199477619Y-58523095D01*
X199572857Y-58570714D01*
X199620476Y-58570714D01*
X199715714Y-58523095D01*
X199763333Y-58475476D01*
X199810952Y-58380238D01*
X199810952Y-58189761D01*
X199858571Y-58094523D01*
X199906190Y-58046904D01*
X200001428Y-57999285D01*
X200191904Y-57999285D01*
X200287142Y-58046904D01*
X200334761Y-58094523D01*
X200382380Y-58189761D01*
X200382380Y-58380238D01*
X200334761Y-58475476D01*
X200287142Y-58523095D01*
X200191904Y-58570714D01*
X200001428Y-58570714D01*
X199906190Y-58523095D01*
X199858571Y-58475476D01*
X199810952Y-58380238D01*
%TO.C,D20*%
X200382380Y-75620714D02*
X199382380Y-75620714D01*
X199382380Y-75858809D01*
X199430000Y-76001666D01*
X199525238Y-76096904D01*
X199620476Y-76144523D01*
X199810952Y-76192142D01*
X199953809Y-76192142D01*
X200144285Y-76144523D01*
X200239523Y-76096904D01*
X200334761Y-76001666D01*
X200382380Y-75858809D01*
X200382380Y-75620714D01*
X199477619Y-76573095D02*
X199430000Y-76620714D01*
X199382380Y-76715952D01*
X199382380Y-76954047D01*
X199430000Y-77049285D01*
X199477619Y-77096904D01*
X199572857Y-77144523D01*
X199668095Y-77144523D01*
X199810952Y-77096904D01*
X200382380Y-76525476D01*
X200382380Y-77144523D01*
X199382380Y-77763571D02*
X199382380Y-77858809D01*
X199430000Y-77954047D01*
X199477619Y-78001666D01*
X199572857Y-78049285D01*
X199763333Y-78096904D01*
X200001428Y-78096904D01*
X200191904Y-78049285D01*
X200287142Y-78001666D01*
X200334761Y-77954047D01*
X200382380Y-77858809D01*
X200382380Y-77763571D01*
X200334761Y-77668333D01*
X200287142Y-77620714D01*
X200191904Y-77573095D01*
X200001428Y-77525476D01*
X199763333Y-77525476D01*
X199572857Y-77573095D01*
X199477619Y-77620714D01*
X199430000Y-77668333D01*
X199382380Y-77763571D01*
%TO.C,D32*%
X200382380Y-94670714D02*
X199382380Y-94670714D01*
X199382380Y-94908809D01*
X199430000Y-95051666D01*
X199525238Y-95146904D01*
X199620476Y-95194523D01*
X199810952Y-95242142D01*
X199953809Y-95242142D01*
X200144285Y-95194523D01*
X200239523Y-95146904D01*
X200334761Y-95051666D01*
X200382380Y-94908809D01*
X200382380Y-94670714D01*
X199382380Y-95575476D02*
X199382380Y-96194523D01*
X199763333Y-95861190D01*
X199763333Y-96004047D01*
X199810952Y-96099285D01*
X199858571Y-96146904D01*
X199953809Y-96194523D01*
X200191904Y-96194523D01*
X200287142Y-96146904D01*
X200334761Y-96099285D01*
X200382380Y-96004047D01*
X200382380Y-95718333D01*
X200334761Y-95623095D01*
X200287142Y-95575476D01*
X199477619Y-96575476D02*
X199430000Y-96623095D01*
X199382380Y-96718333D01*
X199382380Y-96956428D01*
X199430000Y-97051666D01*
X199477619Y-97099285D01*
X199572857Y-97146904D01*
X199668095Y-97146904D01*
X199810952Y-97099285D01*
X200382380Y-96527857D01*
X200382380Y-97146904D01*
%TO.C,D43*%
X200382380Y-113720714D02*
X199382380Y-113720714D01*
X199382380Y-113958809D01*
X199430000Y-114101666D01*
X199525238Y-114196904D01*
X199620476Y-114244523D01*
X199810952Y-114292142D01*
X199953809Y-114292142D01*
X200144285Y-114244523D01*
X200239523Y-114196904D01*
X200334761Y-114101666D01*
X200382380Y-113958809D01*
X200382380Y-113720714D01*
X199715714Y-115149285D02*
X200382380Y-115149285D01*
X199334761Y-114911190D02*
X200049047Y-114673095D01*
X200049047Y-115292142D01*
X199382380Y-115577857D02*
X199382380Y-116196904D01*
X199763333Y-115863571D01*
X199763333Y-116006428D01*
X199810952Y-116101666D01*
X199858571Y-116149285D01*
X199953809Y-116196904D01*
X200191904Y-116196904D01*
X200287142Y-116149285D01*
X200334761Y-116101666D01*
X200382380Y-116006428D01*
X200382380Y-115720714D01*
X200334761Y-115625476D01*
X200287142Y-115577857D01*
%TO.C,D9*%
X219432380Y-57046904D02*
X218432380Y-57046904D01*
X218432380Y-57285000D01*
X218480000Y-57427857D01*
X218575238Y-57523095D01*
X218670476Y-57570714D01*
X218860952Y-57618333D01*
X219003809Y-57618333D01*
X219194285Y-57570714D01*
X219289523Y-57523095D01*
X219384761Y-57427857D01*
X219432380Y-57285000D01*
X219432380Y-57046904D01*
X219432380Y-58094523D02*
X219432380Y-58285000D01*
X219384761Y-58380238D01*
X219337142Y-58427857D01*
X219194285Y-58523095D01*
X219003809Y-58570714D01*
X218622857Y-58570714D01*
X218527619Y-58523095D01*
X218480000Y-58475476D01*
X218432380Y-58380238D01*
X218432380Y-58189761D01*
X218480000Y-58094523D01*
X218527619Y-58046904D01*
X218622857Y-57999285D01*
X218860952Y-57999285D01*
X218956190Y-58046904D01*
X219003809Y-58094523D01*
X219051428Y-58189761D01*
X219051428Y-58380238D01*
X219003809Y-58475476D01*
X218956190Y-58523095D01*
X218860952Y-58570714D01*
%TO.C,D21*%
X219432380Y-75620714D02*
X218432380Y-75620714D01*
X218432380Y-75858809D01*
X218480000Y-76001666D01*
X218575238Y-76096904D01*
X218670476Y-76144523D01*
X218860952Y-76192142D01*
X219003809Y-76192142D01*
X219194285Y-76144523D01*
X219289523Y-76096904D01*
X219384761Y-76001666D01*
X219432380Y-75858809D01*
X219432380Y-75620714D01*
X218527619Y-76573095D02*
X218480000Y-76620714D01*
X218432380Y-76715952D01*
X218432380Y-76954047D01*
X218480000Y-77049285D01*
X218527619Y-77096904D01*
X218622857Y-77144523D01*
X218718095Y-77144523D01*
X218860952Y-77096904D01*
X219432380Y-76525476D01*
X219432380Y-77144523D01*
X219432380Y-78096904D02*
X219432380Y-77525476D01*
X219432380Y-77811190D02*
X218432380Y-77811190D01*
X218575238Y-77715952D01*
X218670476Y-77620714D01*
X218718095Y-77525476D01*
%TO.C,D33*%
X219432380Y-94670714D02*
X218432380Y-94670714D01*
X218432380Y-94908809D01*
X218480000Y-95051666D01*
X218575238Y-95146904D01*
X218670476Y-95194523D01*
X218860952Y-95242142D01*
X219003809Y-95242142D01*
X219194285Y-95194523D01*
X219289523Y-95146904D01*
X219384761Y-95051666D01*
X219432380Y-94908809D01*
X219432380Y-94670714D01*
X218432380Y-95575476D02*
X218432380Y-96194523D01*
X218813333Y-95861190D01*
X218813333Y-96004047D01*
X218860952Y-96099285D01*
X218908571Y-96146904D01*
X219003809Y-96194523D01*
X219241904Y-96194523D01*
X219337142Y-96146904D01*
X219384761Y-96099285D01*
X219432380Y-96004047D01*
X219432380Y-95718333D01*
X219384761Y-95623095D01*
X219337142Y-95575476D01*
X218432380Y-96527857D02*
X218432380Y-97146904D01*
X218813333Y-96813571D01*
X218813333Y-96956428D01*
X218860952Y-97051666D01*
X218908571Y-97099285D01*
X219003809Y-97146904D01*
X219241904Y-97146904D01*
X219337142Y-97099285D01*
X219384761Y-97051666D01*
X219432380Y-96956428D01*
X219432380Y-96670714D01*
X219384761Y-96575476D01*
X219337142Y-96527857D01*
%TO.C,D44*%
X219432380Y-113720714D02*
X218432380Y-113720714D01*
X218432380Y-113958809D01*
X218480000Y-114101666D01*
X218575238Y-114196904D01*
X218670476Y-114244523D01*
X218860952Y-114292142D01*
X219003809Y-114292142D01*
X219194285Y-114244523D01*
X219289523Y-114196904D01*
X219384761Y-114101666D01*
X219432380Y-113958809D01*
X219432380Y-113720714D01*
X218765714Y-115149285D02*
X219432380Y-115149285D01*
X218384761Y-114911190D02*
X219099047Y-114673095D01*
X219099047Y-115292142D01*
X218765714Y-116101666D02*
X219432380Y-116101666D01*
X218384761Y-115863571D02*
X219099047Y-115625476D01*
X219099047Y-116244523D01*
%TO.C,D10*%
X238482380Y-56570714D02*
X237482380Y-56570714D01*
X237482380Y-56808809D01*
X237530000Y-56951666D01*
X237625238Y-57046904D01*
X237720476Y-57094523D01*
X237910952Y-57142142D01*
X238053809Y-57142142D01*
X238244285Y-57094523D01*
X238339523Y-57046904D01*
X238434761Y-56951666D01*
X238482380Y-56808809D01*
X238482380Y-56570714D01*
X238482380Y-58094523D02*
X238482380Y-57523095D01*
X238482380Y-57808809D02*
X237482380Y-57808809D01*
X237625238Y-57713571D01*
X237720476Y-57618333D01*
X237768095Y-57523095D01*
X237482380Y-58713571D02*
X237482380Y-58808809D01*
X237530000Y-58904047D01*
X237577619Y-58951666D01*
X237672857Y-58999285D01*
X237863333Y-59046904D01*
X238101428Y-59046904D01*
X238291904Y-58999285D01*
X238387142Y-58951666D01*
X238434761Y-58904047D01*
X238482380Y-58808809D01*
X238482380Y-58713571D01*
X238434761Y-58618333D01*
X238387142Y-58570714D01*
X238291904Y-58523095D01*
X238101428Y-58475476D01*
X237863333Y-58475476D01*
X237672857Y-58523095D01*
X237577619Y-58570714D01*
X237530000Y-58618333D01*
X237482380Y-58713571D01*
%TO.C,D22*%
X238482380Y-75620714D02*
X237482380Y-75620714D01*
X237482380Y-75858809D01*
X237530000Y-76001666D01*
X237625238Y-76096904D01*
X237720476Y-76144523D01*
X237910952Y-76192142D01*
X238053809Y-76192142D01*
X238244285Y-76144523D01*
X238339523Y-76096904D01*
X238434761Y-76001666D01*
X238482380Y-75858809D01*
X238482380Y-75620714D01*
X237577619Y-76573095D02*
X237530000Y-76620714D01*
X237482380Y-76715952D01*
X237482380Y-76954047D01*
X237530000Y-77049285D01*
X237577619Y-77096904D01*
X237672857Y-77144523D01*
X237768095Y-77144523D01*
X237910952Y-77096904D01*
X238482380Y-76525476D01*
X238482380Y-77144523D01*
X237577619Y-77525476D02*
X237530000Y-77573095D01*
X237482380Y-77668333D01*
X237482380Y-77906428D01*
X237530000Y-78001666D01*
X237577619Y-78049285D01*
X237672857Y-78096904D01*
X237768095Y-78096904D01*
X237910952Y-78049285D01*
X238482380Y-77477857D01*
X238482380Y-78096904D01*
%TO.C,D34*%
X238482380Y-94670714D02*
X237482380Y-94670714D01*
X237482380Y-94908809D01*
X237530000Y-95051666D01*
X237625238Y-95146904D01*
X237720476Y-95194523D01*
X237910952Y-95242142D01*
X238053809Y-95242142D01*
X238244285Y-95194523D01*
X238339523Y-95146904D01*
X238434761Y-95051666D01*
X238482380Y-94908809D01*
X238482380Y-94670714D01*
X237482380Y-95575476D02*
X237482380Y-96194523D01*
X237863333Y-95861190D01*
X237863333Y-96004047D01*
X237910952Y-96099285D01*
X237958571Y-96146904D01*
X238053809Y-96194523D01*
X238291904Y-96194523D01*
X238387142Y-96146904D01*
X238434761Y-96099285D01*
X238482380Y-96004047D01*
X238482380Y-95718333D01*
X238434761Y-95623095D01*
X238387142Y-95575476D01*
X237815714Y-97051666D02*
X238482380Y-97051666D01*
X237434761Y-96813571D02*
X238149047Y-96575476D01*
X238149047Y-97194523D01*
%TO.C,D45*%
X238482380Y-113720714D02*
X237482380Y-113720714D01*
X237482380Y-113958809D01*
X237530000Y-114101666D01*
X237625238Y-114196904D01*
X237720476Y-114244523D01*
X237910952Y-114292142D01*
X238053809Y-114292142D01*
X238244285Y-114244523D01*
X238339523Y-114196904D01*
X238434761Y-114101666D01*
X238482380Y-113958809D01*
X238482380Y-113720714D01*
X237815714Y-115149285D02*
X238482380Y-115149285D01*
X237434761Y-114911190D02*
X238149047Y-114673095D01*
X238149047Y-115292142D01*
X237482380Y-116149285D02*
X237482380Y-115673095D01*
X237958571Y-115625476D01*
X237910952Y-115673095D01*
X237863333Y-115768333D01*
X237863333Y-116006428D01*
X237910952Y-116101666D01*
X237958571Y-116149285D01*
X238053809Y-116196904D01*
X238291904Y-116196904D01*
X238387142Y-116149285D01*
X238434761Y-116101666D01*
X238482380Y-116006428D01*
X238482380Y-115768333D01*
X238434761Y-115673095D01*
X238387142Y-115625476D01*
%TO.C,D11*%
X257532380Y-56570714D02*
X256532380Y-56570714D01*
X256532380Y-56808809D01*
X256580000Y-56951666D01*
X256675238Y-57046904D01*
X256770476Y-57094523D01*
X256960952Y-57142142D01*
X257103809Y-57142142D01*
X257294285Y-57094523D01*
X257389523Y-57046904D01*
X257484761Y-56951666D01*
X257532380Y-56808809D01*
X257532380Y-56570714D01*
X257532380Y-58094523D02*
X257532380Y-57523095D01*
X257532380Y-57808809D02*
X256532380Y-57808809D01*
X256675238Y-57713571D01*
X256770476Y-57618333D01*
X256818095Y-57523095D01*
X257532380Y-59046904D02*
X257532380Y-58475476D01*
X257532380Y-58761190D02*
X256532380Y-58761190D01*
X256675238Y-58665952D01*
X256770476Y-58570714D01*
X256818095Y-58475476D01*
%TO.C,D23*%
X257532380Y-75620714D02*
X256532380Y-75620714D01*
X256532380Y-75858809D01*
X256580000Y-76001666D01*
X256675238Y-76096904D01*
X256770476Y-76144523D01*
X256960952Y-76192142D01*
X257103809Y-76192142D01*
X257294285Y-76144523D01*
X257389523Y-76096904D01*
X257484761Y-76001666D01*
X257532380Y-75858809D01*
X257532380Y-75620714D01*
X256627619Y-76573095D02*
X256580000Y-76620714D01*
X256532380Y-76715952D01*
X256532380Y-76954047D01*
X256580000Y-77049285D01*
X256627619Y-77096904D01*
X256722857Y-77144523D01*
X256818095Y-77144523D01*
X256960952Y-77096904D01*
X257532380Y-76525476D01*
X257532380Y-77144523D01*
X256532380Y-77477857D02*
X256532380Y-78096904D01*
X256913333Y-77763571D01*
X256913333Y-77906428D01*
X256960952Y-78001666D01*
X257008571Y-78049285D01*
X257103809Y-78096904D01*
X257341904Y-78096904D01*
X257437142Y-78049285D01*
X257484761Y-78001666D01*
X257532380Y-77906428D01*
X257532380Y-77620714D01*
X257484761Y-77525476D01*
X257437142Y-77477857D01*
%TO.C,D35*%
X241657380Y-97210714D02*
X240657380Y-97210714D01*
X240657380Y-97448809D01*
X240705000Y-97591666D01*
X240800238Y-97686904D01*
X240895476Y-97734523D01*
X241085952Y-97782142D01*
X241228809Y-97782142D01*
X241419285Y-97734523D01*
X241514523Y-97686904D01*
X241609761Y-97591666D01*
X241657380Y-97448809D01*
X241657380Y-97210714D01*
X240657380Y-98115476D02*
X240657380Y-98734523D01*
X241038333Y-98401190D01*
X241038333Y-98544047D01*
X241085952Y-98639285D01*
X241133571Y-98686904D01*
X241228809Y-98734523D01*
X241466904Y-98734523D01*
X241562142Y-98686904D01*
X241609761Y-98639285D01*
X241657380Y-98544047D01*
X241657380Y-98258333D01*
X241609761Y-98163095D01*
X241562142Y-98115476D01*
X240657380Y-99639285D02*
X240657380Y-99163095D01*
X241133571Y-99115476D01*
X241085952Y-99163095D01*
X241038333Y-99258333D01*
X241038333Y-99496428D01*
X241085952Y-99591666D01*
X241133571Y-99639285D01*
X241228809Y-99686904D01*
X241466904Y-99686904D01*
X241562142Y-99639285D01*
X241609761Y-99591666D01*
X241657380Y-99496428D01*
X241657380Y-99258333D01*
X241609761Y-99163095D01*
X241562142Y-99115476D01*
%TO.C,D46*%
X257532380Y-113720714D02*
X256532380Y-113720714D01*
X256532380Y-113958809D01*
X256580000Y-114101666D01*
X256675238Y-114196904D01*
X256770476Y-114244523D01*
X256960952Y-114292142D01*
X257103809Y-114292142D01*
X257294285Y-114244523D01*
X257389523Y-114196904D01*
X257484761Y-114101666D01*
X257532380Y-113958809D01*
X257532380Y-113720714D01*
X256865714Y-115149285D02*
X257532380Y-115149285D01*
X256484761Y-114911190D02*
X257199047Y-114673095D01*
X257199047Y-115292142D01*
X256532380Y-116101666D02*
X256532380Y-115911190D01*
X256580000Y-115815952D01*
X256627619Y-115768333D01*
X256770476Y-115673095D01*
X256960952Y-115625476D01*
X257341904Y-115625476D01*
X257437142Y-115673095D01*
X257484761Y-115720714D01*
X257532380Y-115815952D01*
X257532380Y-116006428D01*
X257484761Y-116101666D01*
X257437142Y-116149285D01*
X257341904Y-116196904D01*
X257103809Y-116196904D01*
X257008571Y-116149285D01*
X256960952Y-116101666D01*
X256913333Y-116006428D01*
X256913333Y-115815952D01*
X256960952Y-115720714D01*
X257008571Y-115673095D01*
X257103809Y-115625476D01*
%TO.C,D12*%
X276582380Y-56570714D02*
X275582380Y-56570714D01*
X275582380Y-56808809D01*
X275630000Y-56951666D01*
X275725238Y-57046904D01*
X275820476Y-57094523D01*
X276010952Y-57142142D01*
X276153809Y-57142142D01*
X276344285Y-57094523D01*
X276439523Y-57046904D01*
X276534761Y-56951666D01*
X276582380Y-56808809D01*
X276582380Y-56570714D01*
X276582380Y-58094523D02*
X276582380Y-57523095D01*
X276582380Y-57808809D02*
X275582380Y-57808809D01*
X275725238Y-57713571D01*
X275820476Y-57618333D01*
X275868095Y-57523095D01*
X275677619Y-58475476D02*
X275630000Y-58523095D01*
X275582380Y-58618333D01*
X275582380Y-58856428D01*
X275630000Y-58951666D01*
X275677619Y-58999285D01*
X275772857Y-59046904D01*
X275868095Y-59046904D01*
X276010952Y-58999285D01*
X276582380Y-58427857D01*
X276582380Y-59046904D01*
%TO.C,D24*%
X276582380Y-75620714D02*
X275582380Y-75620714D01*
X275582380Y-75858809D01*
X275630000Y-76001666D01*
X275725238Y-76096904D01*
X275820476Y-76144523D01*
X276010952Y-76192142D01*
X276153809Y-76192142D01*
X276344285Y-76144523D01*
X276439523Y-76096904D01*
X276534761Y-76001666D01*
X276582380Y-75858809D01*
X276582380Y-75620714D01*
X275677619Y-76573095D02*
X275630000Y-76620714D01*
X275582380Y-76715952D01*
X275582380Y-76954047D01*
X275630000Y-77049285D01*
X275677619Y-77096904D01*
X275772857Y-77144523D01*
X275868095Y-77144523D01*
X276010952Y-77096904D01*
X276582380Y-76525476D01*
X276582380Y-77144523D01*
X275915714Y-78001666D02*
X276582380Y-78001666D01*
X275534761Y-77763571D02*
X276249047Y-77525476D01*
X276249047Y-78144523D01*
%TO.C,D36*%
X276582380Y-94670714D02*
X275582380Y-94670714D01*
X275582380Y-94908809D01*
X275630000Y-95051666D01*
X275725238Y-95146904D01*
X275820476Y-95194523D01*
X276010952Y-95242142D01*
X276153809Y-95242142D01*
X276344285Y-95194523D01*
X276439523Y-95146904D01*
X276534761Y-95051666D01*
X276582380Y-94908809D01*
X276582380Y-94670714D01*
X275582380Y-95575476D02*
X275582380Y-96194523D01*
X275963333Y-95861190D01*
X275963333Y-96004047D01*
X276010952Y-96099285D01*
X276058571Y-96146904D01*
X276153809Y-96194523D01*
X276391904Y-96194523D01*
X276487142Y-96146904D01*
X276534761Y-96099285D01*
X276582380Y-96004047D01*
X276582380Y-95718333D01*
X276534761Y-95623095D01*
X276487142Y-95575476D01*
X275582380Y-97051666D02*
X275582380Y-96861190D01*
X275630000Y-96765952D01*
X275677619Y-96718333D01*
X275820476Y-96623095D01*
X276010952Y-96575476D01*
X276391904Y-96575476D01*
X276487142Y-96623095D01*
X276534761Y-96670714D01*
X276582380Y-96765952D01*
X276582380Y-96956428D01*
X276534761Y-97051666D01*
X276487142Y-97099285D01*
X276391904Y-97146904D01*
X276153809Y-97146904D01*
X276058571Y-97099285D01*
X276010952Y-97051666D01*
X275963333Y-96956428D01*
X275963333Y-96765952D01*
X276010952Y-96670714D01*
X276058571Y-96623095D01*
X276153809Y-96575476D01*
%TO.C,D47*%
X276582380Y-113720714D02*
X275582380Y-113720714D01*
X275582380Y-113958809D01*
X275630000Y-114101666D01*
X275725238Y-114196904D01*
X275820476Y-114244523D01*
X276010952Y-114292142D01*
X276153809Y-114292142D01*
X276344285Y-114244523D01*
X276439523Y-114196904D01*
X276534761Y-114101666D01*
X276582380Y-113958809D01*
X276582380Y-113720714D01*
X275915714Y-115149285D02*
X276582380Y-115149285D01*
X275534761Y-114911190D02*
X276249047Y-114673095D01*
X276249047Y-115292142D01*
X275582380Y-115577857D02*
X275582380Y-116244523D01*
X276582380Y-115815952D01*
%TD*%
M02*
