M48
; DRILL file {KiCad (5.1.10)-1} date 09/28/21 16:44:35
; FORMAT={-:-/ absolute / inch / decimal}
; #@! TF.CreationDate,2021-09-28T16:44:35-06:00
; #@! TF.GenerationSoftware,Kicad,Pcbnew,(5.1.10)-1
; #@! TF.FileFunction,Plated,1,2,PTH
FMAT,2
INCH
T1C0.0157
%
G90
G05
T1
X2.1969Y-3.685
X2.2165Y-4.3661
X2.2323Y-2.122
X2.2323Y-2.7913
X2.2323Y-2.874
X2.2323Y-3.622
X2.3Y-4.165
X2.4732Y-3.3018
X2.5236Y-3.7244
X2.5276Y-3.5866
X2.53Y-3.435
X2.5315Y-4.4803
X2.563Y-2.185
X2.5787Y-2.6037
X2.5787Y-2.9213
X2.5827Y-2.2638
X2.5984Y-3.7165
X2.6969Y-3.4348
X2.7Y-2.675
X2.752Y-2.2795
X2.7717Y-3.4449
X2.7756Y-4.4606
X2.7757Y-3.5473
X2.7992Y-2.2362
X2.8051Y-3.4665
X2.8071Y-3.5236
X2.8199Y-3.7953
X2.8341Y-2.96
X2.8366Y-3.4931
X2.8819Y-4.7205
X2.8858Y-3.9764
X2.8937Y-3.2323
X2.8937Y-3.5551
X2.9055Y-2.6299
X2.98Y-2.12
X2.99Y-2.87
X2.995Y-4.375
X3.05Y-4.175
X3.055Y-3.575
X3.3031Y-2.9331
X3.306Y-3.439
X3.3071Y-3.6772
X3.311Y-4.4252
X3.3228Y-2.185
X3.325Y-2.625
X3.45Y-2.675
X3.6063Y-3.2205
X3.6063Y-3.4724
X3.6063Y-3.9646
X3.6632Y-4.8
X3.6693Y-2.6378
X3.73Y-3.62
X3.735Y-2.12
X3.735Y-2.875
X3.74Y-4.37
X3.805Y-4.165
X4.0477Y-2.9423
X4.06Y-2.61
X4.065Y-3.435
X4.065Y-3.68
X4.065Y-4.425
X4.07Y-2.185
X4.2Y-2.675
X4.3346Y-3.2992
X4.3346Y-3.5079
X4.3346Y-3.9843
X4.3346Y-4.7402
X4.3543Y-2.6142
X4.48Y-2.87
X4.48Y-4.375
X4.4833Y-3.6217
X4.49Y-2.12
X4.55Y-4.16
X4.805Y-2.205
X4.805Y-4.43
X4.815Y-3.675
X4.816Y-3.439
X4.82Y-2.62
X4.82Y-2.93
X5.0787Y-2.5512
X5.0945Y-3.2992
X5.0945Y-3.5433
X5.0945Y-4.0354
X5.0945Y-4.7323
X5.22Y-4.365
X5.23Y-2.875
X5.23Y-3.62
X5.235Y-2.125
X5.3Y-4.165
X5.476Y-3.439
X5.565Y-2.615
X5.565Y-2.93
X5.565Y-4.42
X5.57Y-2.195
X5.57Y-3.68
X5.8346Y-2.6299
X5.8346Y-3.2913
X5.8346Y-3.5354
X5.8346Y-4.0433
X5.9409Y-4.8071
X5.975Y-2.875
X5.975Y-3.615
X5.985Y-2.125
X6.15Y-4.125
X6.3Y-3.43
X6.3Y-3.67
X6.32Y-2.185
X6.32Y-2.62
X6.32Y-2.93
X6.36Y-4.365
X6.45Y-2.675
X6.595Y-4.03
X6.6Y-2.63
X6.605Y-3.34
X6.605Y-3.5328
X6.695Y-4.41
X6.72Y-3.625
X6.725Y-2.12
X6.73Y-2.87
X6.805Y-4.16
X7.065Y-3.68
X7.07Y-2.93
X7.075Y-2.185
X7.075Y-2.6
X7.106Y-3.439
X7.2Y-2.675
X7.315Y-3.995
X7.32Y-2.625
X7.32Y-3.325
X7.32Y-3.52
X7.33Y-4.76
X7.475Y-2.115
X7.475Y-2.875
X7.48Y-3.62
X7.48Y-4.375
X7.555Y-4.16
X7.815Y-4.425
X7.82Y-2.62
X7.82Y-2.925
X7.82Y-3.435
X7.825Y-3.685
X7.83Y-2.18
X7.95Y-2.675
X8.06Y-3.5148
X8.06Y-3.34
X8.06Y-3.995
X8.075Y-2.595
X8.085Y-4.765
X8.22Y-2.12
X8.22Y-3.62
X8.225Y-2.87
X8.235Y-4.37
X8.3Y-4.17
X8.565Y-3.685
X8.58Y-2.2
X8.58Y-2.61
X8.58Y-2.92
X8.58Y-4.43
X8.634Y-3.439
X8.7Y-2.675
X8.82Y-2.59
X8.83Y-3.315
X8.83Y-3.4837
X8.83Y-3.975
X8.83Y-4.78
X8.975Y-2.87
X8.98Y-2.115
X8.98Y-3.62
X8.98Y-4.37
X9.05Y-4.16
X9.32Y-2.18
X9.324Y-3.439
X9.325Y-2.63
X9.325Y-2.93
X9.325Y-3.675
X9.325Y-4.41
X9.45Y-2.675
X9.575Y-4.76
X9.58Y-3.46
X9.585Y-2.56
X9.585Y-3.295
X9.585Y-4.06
X9.725Y-2.125
X9.73Y-2.875
X9.73Y-3.625
X9.73Y-4.37
X9.795Y-4.16
X10.06Y-3.36
X10.0768Y-2.9282
X10.08Y-2.18
X10.08Y-2.625
X10.08Y-3.695
X10.08Y-4.415
X10.2Y-2.675
X10.2165Y-3.4843
X10.2672Y-3.4956
X10.2856Y-3.695
X10.315Y-2.605
X10.33Y-4.785
X10.35Y-3.98
X10.3535Y-3.3315
X10.44Y-3.475
X10.44Y-3.66
X10.47Y-2.115
X10.475Y-2.87
X10.475Y-3.62
X10.475Y-4.375
X10.535Y-2.28
X10.7232Y-3.2368
X10.75Y-4.315
X10.7538Y-3.7623
X10.8Y-2.625
X10.8Y-3.57
X10.825Y-2.18
X10.825Y-2.935
X10.825Y-3.685
X10.83Y-4.415
X10.865Y-2.125
X10.9Y-2.6
T0
M30
