%TF.GenerationSoftware,KiCad,Pcbnew,(5.1.10)-1*%
%TF.CreationDate,2021-09-28T22:39:20-06:00*%
%TF.ProjectId,MX47,4d583437-2e6b-4696-9361-645f70636258,rev?*%
%TF.SameCoordinates,Original*%
%TF.FileFunction,Profile,NP*%
%FSLAX46Y46*%
G04 Gerber Fmt 4.6, Leading zero omitted, Abs format (unit mm)*
G04 Created by KiCad (PCBNEW (5.1.10)-1) date 2021-09-28 22:39:20*
%MOMM*%
%LPD*%
G01*
G04 APERTURE LIST*
%TA.AperFunction,Profile*%
%ADD10C,0.050000*%
%TD*%
G04 APERTURE END LIST*
D10*
X46355000Y-50165000D02*
G75*
G02*
X51435000Y-45085000I5080000J0D01*
G01*
X280035000Y-45085000D02*
G75*
G02*
X285115000Y-50165000I0J-5080000D01*
G01*
X285115000Y-126365000D02*
G75*
G02*
X280035000Y-131445000I-5080000J0D01*
G01*
X51435000Y-131445000D02*
G75*
G02*
X46355000Y-126365000I0J5080000D01*
G01*
X46355000Y-50165000D02*
X46355000Y-126365000D01*
X280035000Y-45085000D02*
X51435000Y-45085000D01*
X285115000Y-126365000D02*
X285115000Y-50165000D01*
X51435000Y-131445000D02*
X280035000Y-131445000D01*
%TO.C,U42*%
X167435000Y-110290000D02*
X167435000Y-113290000D01*
X164035000Y-110290000D02*
X167435000Y-110290000D01*
X164035000Y-113290000D02*
X164035000Y-110290000D01*
X167435000Y-113290000D02*
X164035000Y-113290000D01*
%TO.C,U47*%
X272210000Y-110290000D02*
X272210000Y-113290000D01*
X268810000Y-110290000D02*
X272210000Y-110290000D01*
X268810000Y-113290000D02*
X268810000Y-110290000D01*
X272210000Y-113290000D02*
X268810000Y-113290000D01*
%TO.C,U46*%
X253160000Y-110290000D02*
X253160000Y-113290000D01*
X249760000Y-110290000D02*
X253160000Y-110290000D01*
X249760000Y-113290000D02*
X249760000Y-110290000D01*
X253160000Y-113290000D02*
X249760000Y-113290000D01*
%TO.C,U45*%
X234110000Y-110290000D02*
X234110000Y-113290000D01*
X230710000Y-110290000D02*
X234110000Y-110290000D01*
X230710000Y-113290000D02*
X230710000Y-110290000D01*
X234110000Y-113290000D02*
X230710000Y-113290000D01*
%TO.C,U44*%
X215060000Y-110290000D02*
X215060000Y-113290000D01*
X211660000Y-110290000D02*
X215060000Y-110290000D01*
X211660000Y-113290000D02*
X211660000Y-110290000D01*
X215060000Y-113290000D02*
X211660000Y-113290000D01*
%TO.C,U43*%
X196010000Y-110290000D02*
X196010000Y-113290000D01*
X192610000Y-110290000D02*
X196010000Y-110290000D01*
X192610000Y-113290000D02*
X192610000Y-110290000D01*
X196010000Y-113290000D02*
X192610000Y-113290000D01*
%TO.C,U41*%
X138860000Y-110290000D02*
X138860000Y-113290000D01*
X135460000Y-110290000D02*
X138860000Y-110290000D01*
X135460000Y-113290000D02*
X135460000Y-110290000D01*
X138860000Y-113290000D02*
X135460000Y-113290000D01*
%TO.C,U40*%
X119810000Y-110290000D02*
X119810000Y-113290000D01*
X116410000Y-110290000D02*
X119810000Y-110290000D01*
X116410000Y-113290000D02*
X116410000Y-110290000D01*
X119810000Y-113290000D02*
X116410000Y-113290000D01*
%TO.C,U39*%
X100760000Y-110290000D02*
X100760000Y-113290000D01*
X97360000Y-110290000D02*
X100760000Y-110290000D01*
X97360000Y-113290000D02*
X97360000Y-110290000D01*
X100760000Y-113290000D02*
X97360000Y-113290000D01*
%TO.C,U38*%
X81710000Y-110290000D02*
X81710000Y-113290000D01*
X78310000Y-110290000D02*
X81710000Y-110290000D01*
X78310000Y-113290000D02*
X78310000Y-110290000D01*
X81710000Y-113290000D02*
X78310000Y-113290000D01*
%TO.C,U37*%
X62660000Y-110290000D02*
X62660000Y-113290000D01*
X59260000Y-110290000D02*
X62660000Y-110290000D01*
X59260000Y-113290000D02*
X59260000Y-110290000D01*
X62660000Y-113290000D02*
X59260000Y-113290000D01*
%TO.C,U36*%
X272210000Y-91240000D02*
X272210000Y-94240000D01*
X268810000Y-91240000D02*
X272210000Y-91240000D01*
X268810000Y-94240000D02*
X268810000Y-91240000D01*
X272210000Y-94240000D02*
X268810000Y-94240000D01*
%TO.C,U35*%
X253160000Y-91240000D02*
X253160000Y-94240000D01*
X249760000Y-91240000D02*
X253160000Y-91240000D01*
X249760000Y-94240000D02*
X249760000Y-91240000D01*
X253160000Y-94240000D02*
X249760000Y-94240000D01*
%TO.C,U34*%
X234110000Y-91240000D02*
X234110000Y-94240000D01*
X230710000Y-91240000D02*
X234110000Y-91240000D01*
X230710000Y-94240000D02*
X230710000Y-91240000D01*
X234110000Y-94240000D02*
X230710000Y-94240000D01*
%TO.C,U33*%
X215060000Y-91240000D02*
X215060000Y-94240000D01*
X211660000Y-91240000D02*
X215060000Y-91240000D01*
X211660000Y-94240000D02*
X211660000Y-91240000D01*
X215060000Y-94240000D02*
X211660000Y-94240000D01*
%TO.C,U32*%
X196010000Y-91240000D02*
X196010000Y-94240000D01*
X192610000Y-91240000D02*
X196010000Y-91240000D01*
X192610000Y-94240000D02*
X192610000Y-91240000D01*
X196010000Y-94240000D02*
X192610000Y-94240000D01*
%TO.C,U31*%
X176960000Y-91240000D02*
X176960000Y-94240000D01*
X173560000Y-91240000D02*
X176960000Y-91240000D01*
X173560000Y-94240000D02*
X173560000Y-91240000D01*
X176960000Y-94240000D02*
X173560000Y-94240000D01*
%TO.C,U30*%
X157910000Y-91240000D02*
X157910000Y-94240000D01*
X154510000Y-91240000D02*
X157910000Y-91240000D01*
X154510000Y-94240000D02*
X154510000Y-91240000D01*
X157910000Y-94240000D02*
X154510000Y-94240000D01*
%TO.C,U29*%
X138860000Y-91240000D02*
X138860000Y-94240000D01*
X135460000Y-91240000D02*
X138860000Y-91240000D01*
X135460000Y-94240000D02*
X135460000Y-91240000D01*
X138860000Y-94240000D02*
X135460000Y-94240000D01*
%TO.C,U28*%
X119810000Y-91240000D02*
X119810000Y-94240000D01*
X116410000Y-91240000D02*
X119810000Y-91240000D01*
X116410000Y-94240000D02*
X116410000Y-91240000D01*
X119810000Y-94240000D02*
X116410000Y-94240000D01*
%TO.C,U27*%
X100760000Y-91240000D02*
X100760000Y-94240000D01*
X97360000Y-91240000D02*
X100760000Y-91240000D01*
X97360000Y-94240000D02*
X97360000Y-91240000D01*
X100760000Y-94240000D02*
X97360000Y-94240000D01*
%TO.C,U26*%
X81710000Y-91240000D02*
X81710000Y-94240000D01*
X78310000Y-91240000D02*
X81710000Y-91240000D01*
X78310000Y-94240000D02*
X78310000Y-91240000D01*
X81710000Y-94240000D02*
X78310000Y-94240000D01*
%TO.C,U25*%
X62660000Y-91240000D02*
X62660000Y-94240000D01*
X59260000Y-91240000D02*
X62660000Y-91240000D01*
X59260000Y-94240000D02*
X59260000Y-91240000D01*
X62660000Y-94240000D02*
X59260000Y-94240000D01*
%TO.C,U24*%
X272210000Y-72190000D02*
X272210000Y-75190000D01*
X268810000Y-72190000D02*
X272210000Y-72190000D01*
X268810000Y-75190000D02*
X268810000Y-72190000D01*
X272210000Y-75190000D02*
X268810000Y-75190000D01*
%TO.C,U23*%
X253160000Y-72190000D02*
X253160000Y-75190000D01*
X249760000Y-72190000D02*
X253160000Y-72190000D01*
X249760000Y-75190000D02*
X249760000Y-72190000D01*
X253160000Y-75190000D02*
X249760000Y-75190000D01*
%TO.C,U22*%
X234110000Y-72190000D02*
X234110000Y-75190000D01*
X230710000Y-72190000D02*
X234110000Y-72190000D01*
X230710000Y-75190000D02*
X230710000Y-72190000D01*
X234110000Y-75190000D02*
X230710000Y-75190000D01*
%TO.C,U21*%
X215060000Y-72190000D02*
X215060000Y-75190000D01*
X211660000Y-72190000D02*
X215060000Y-72190000D01*
X211660000Y-75190000D02*
X211660000Y-72190000D01*
X215060000Y-75190000D02*
X211660000Y-75190000D01*
%TO.C,U20*%
X196010000Y-72190000D02*
X196010000Y-75190000D01*
X192610000Y-72190000D02*
X196010000Y-72190000D01*
X192610000Y-75190000D02*
X192610000Y-72190000D01*
X196010000Y-75190000D02*
X192610000Y-75190000D01*
%TO.C,U19*%
X176960000Y-72190000D02*
X176960000Y-75190000D01*
X173560000Y-72190000D02*
X176960000Y-72190000D01*
X173560000Y-75190000D02*
X173560000Y-72190000D01*
X176960000Y-75190000D02*
X173560000Y-75190000D01*
%TO.C,U18*%
X157910000Y-72190000D02*
X157910000Y-75190000D01*
X154510000Y-72190000D02*
X157910000Y-72190000D01*
X154510000Y-75190000D02*
X154510000Y-72190000D01*
X157910000Y-75190000D02*
X154510000Y-75190000D01*
%TO.C,U17*%
X138860000Y-72190000D02*
X138860000Y-75190000D01*
X135460000Y-72190000D02*
X138860000Y-72190000D01*
X135460000Y-75190000D02*
X135460000Y-72190000D01*
X138860000Y-75190000D02*
X135460000Y-75190000D01*
%TO.C,U16*%
X119810000Y-72190000D02*
X119810000Y-75190000D01*
X116410000Y-72190000D02*
X119810000Y-72190000D01*
X116410000Y-75190000D02*
X116410000Y-72190000D01*
X119810000Y-75190000D02*
X116410000Y-75190000D01*
%TO.C,U15*%
X100760000Y-72190000D02*
X100760000Y-75190000D01*
X97360000Y-72190000D02*
X100760000Y-72190000D01*
X97360000Y-75190000D02*
X97360000Y-72190000D01*
X100760000Y-75190000D02*
X97360000Y-75190000D01*
%TO.C,U14*%
X81710000Y-72190000D02*
X81710000Y-75190000D01*
X78310000Y-72190000D02*
X81710000Y-72190000D01*
X78310000Y-75190000D02*
X78310000Y-72190000D01*
X81710000Y-75190000D02*
X78310000Y-75190000D01*
%TO.C,U13*%
X62660000Y-72190000D02*
X62660000Y-75190000D01*
X59260000Y-72190000D02*
X62660000Y-72190000D01*
X59260000Y-75190000D02*
X59260000Y-72190000D01*
X62660000Y-75190000D02*
X59260000Y-75190000D01*
%TO.C,U12*%
X272210000Y-53140000D02*
X272210000Y-56140000D01*
X268810000Y-53140000D02*
X272210000Y-53140000D01*
X268810000Y-56140000D02*
X268810000Y-53140000D01*
X272210000Y-56140000D02*
X268810000Y-56140000D01*
%TO.C,U11*%
X253160000Y-53140000D02*
X253160000Y-56140000D01*
X249760000Y-53140000D02*
X253160000Y-53140000D01*
X249760000Y-56140000D02*
X249760000Y-53140000D01*
X253160000Y-56140000D02*
X249760000Y-56140000D01*
%TO.C,U10*%
X234110000Y-53140000D02*
X234110000Y-56140000D01*
X230710000Y-53140000D02*
X234110000Y-53140000D01*
X230710000Y-56140000D02*
X230710000Y-53140000D01*
X234110000Y-56140000D02*
X230710000Y-56140000D01*
%TO.C,U9*%
X215060000Y-53140000D02*
X215060000Y-56140000D01*
X211660000Y-53140000D02*
X215060000Y-53140000D01*
X211660000Y-56140000D02*
X211660000Y-53140000D01*
X215060000Y-56140000D02*
X211660000Y-56140000D01*
%TO.C,U8*%
X196010000Y-53140000D02*
X196010000Y-56140000D01*
X192610000Y-53140000D02*
X196010000Y-53140000D01*
X192610000Y-56140000D02*
X192610000Y-53140000D01*
X196010000Y-56140000D02*
X192610000Y-56140000D01*
%TO.C,U7*%
X176960000Y-53140000D02*
X176960000Y-56140000D01*
X173560000Y-53140000D02*
X176960000Y-53140000D01*
X173560000Y-56140000D02*
X173560000Y-53140000D01*
X176960000Y-56140000D02*
X173560000Y-56140000D01*
%TO.C,U6*%
X157910000Y-53140000D02*
X157910000Y-56140000D01*
X154510000Y-53140000D02*
X157910000Y-53140000D01*
X154510000Y-56140000D02*
X154510000Y-53140000D01*
X157910000Y-56140000D02*
X154510000Y-56140000D01*
%TO.C,U5*%
X138860000Y-53140000D02*
X138860000Y-56140000D01*
X135460000Y-53140000D02*
X138860000Y-53140000D01*
X135460000Y-56140000D02*
X135460000Y-53140000D01*
X138860000Y-56140000D02*
X135460000Y-56140000D01*
%TO.C,U4*%
X119810000Y-53140000D02*
X119810000Y-56140000D01*
X116410000Y-53140000D02*
X119810000Y-53140000D01*
X116410000Y-56140000D02*
X116410000Y-53140000D01*
X119810000Y-56140000D02*
X116410000Y-56140000D01*
%TO.C,U3*%
X100760000Y-53140000D02*
X100760000Y-56140000D01*
X97360000Y-53140000D02*
X100760000Y-53140000D01*
X97360000Y-56140000D02*
X97360000Y-53140000D01*
X100760000Y-56140000D02*
X97360000Y-56140000D01*
%TO.C,U2*%
X81710000Y-53140000D02*
X81710000Y-56140000D01*
X78310000Y-53140000D02*
X81710000Y-53140000D01*
X78310000Y-56140000D02*
X78310000Y-53140000D01*
X81710000Y-56140000D02*
X78310000Y-56140000D01*
%TO.C,U1*%
X62660000Y-53140000D02*
X62660000Y-56140000D01*
X59260000Y-53140000D02*
X62660000Y-53140000D01*
X59260000Y-56140000D02*
X59260000Y-53140000D01*
X62660000Y-56140000D02*
X59260000Y-56140000D01*
%TD*%
M02*
