%TF.GenerationSoftware,KiCad,Pcbnew,(5.1.10)-1*%
%TF.CreationDate,2021-09-28T16:44:32-06:00*%
%TF.ProjectId,MX47,4d583437-2e6b-4696-9361-645f70636258,rev?*%
%TF.SameCoordinates,Original*%
%TF.FileFunction,Legend,Top*%
%TF.FilePolarity,Positive*%
%FSLAX46Y46*%
G04 Gerber Fmt 4.6, Leading zero omitted, Abs format (unit mm)*
G04 Created by KiCad (PCBNEW (5.1.10)-1) date 2021-09-28 16:44:32*
%MOMM*%
%LPD*%
G01*
G04 APERTURE LIST*
%ADD10C,0.120000*%
%ADD11C,0.150000*%
G04 APERTURE END LIST*
D10*
%TO.C,U42*%
X158735000Y-109840000D02*
X172735000Y-109840000D01*
X158735000Y-123840000D02*
X158735000Y-109840000D01*
X172735000Y-123840000D02*
X158735000Y-123840000D01*
X172735000Y-123840000D02*
X172735000Y-109840000D01*
%TO.C,U47*%
X263510000Y-109840000D02*
X277510000Y-109840000D01*
X263510000Y-123840000D02*
X263510000Y-109840000D01*
X277510000Y-123840000D02*
X263510000Y-123840000D01*
X277510000Y-123840000D02*
X277510000Y-109840000D01*
%TO.C,U46*%
X244460000Y-109840000D02*
X258460000Y-109840000D01*
X244460000Y-123840000D02*
X244460000Y-109840000D01*
X258460000Y-123840000D02*
X244460000Y-123840000D01*
X258460000Y-123840000D02*
X258460000Y-109840000D01*
%TO.C,U45*%
X225410000Y-109840000D02*
X239410000Y-109840000D01*
X225410000Y-123840000D02*
X225410000Y-109840000D01*
X239410000Y-123840000D02*
X225410000Y-123840000D01*
X239410000Y-123840000D02*
X239410000Y-109840000D01*
%TO.C,U44*%
X206360000Y-109840000D02*
X220360000Y-109840000D01*
X206360000Y-123840000D02*
X206360000Y-109840000D01*
X220360000Y-123840000D02*
X206360000Y-123840000D01*
X220360000Y-123840000D02*
X220360000Y-109840000D01*
%TO.C,U43*%
X187310000Y-109840000D02*
X201310000Y-109840000D01*
X187310000Y-123840000D02*
X187310000Y-109840000D01*
X201310000Y-123840000D02*
X187310000Y-123840000D01*
X201310000Y-123840000D02*
X201310000Y-109840000D01*
%TO.C,U41*%
X130160000Y-109840000D02*
X144160000Y-109840000D01*
X130160000Y-123840000D02*
X130160000Y-109840000D01*
X144160000Y-123840000D02*
X130160000Y-123840000D01*
X144160000Y-123840000D02*
X144160000Y-109840000D01*
%TO.C,U40*%
X111110000Y-109840000D02*
X125110000Y-109840000D01*
X111110000Y-123840000D02*
X111110000Y-109840000D01*
X125110000Y-123840000D02*
X111110000Y-123840000D01*
X125110000Y-123840000D02*
X125110000Y-109840000D01*
%TO.C,U39*%
X92060000Y-109840000D02*
X106060000Y-109840000D01*
X92060000Y-123840000D02*
X92060000Y-109840000D01*
X106060000Y-123840000D02*
X92060000Y-123840000D01*
X106060000Y-123840000D02*
X106060000Y-109840000D01*
%TO.C,U38*%
X73010000Y-109840000D02*
X87010000Y-109840000D01*
X73010000Y-123840000D02*
X73010000Y-109840000D01*
X87010000Y-123840000D02*
X73010000Y-123840000D01*
X87010000Y-123840000D02*
X87010000Y-109840000D01*
%TO.C,U37*%
X53960000Y-109840000D02*
X67960000Y-109840000D01*
X53960000Y-123840000D02*
X53960000Y-109840000D01*
X67960000Y-123840000D02*
X53960000Y-123840000D01*
X67960000Y-123840000D02*
X67960000Y-109840000D01*
%TO.C,U36*%
X263510000Y-90790000D02*
X277510000Y-90790000D01*
X263510000Y-104790000D02*
X263510000Y-90790000D01*
X277510000Y-104790000D02*
X263510000Y-104790000D01*
X277510000Y-104790000D02*
X277510000Y-90790000D01*
%TO.C,U35*%
X244460000Y-90790000D02*
X258460000Y-90790000D01*
X244460000Y-104790000D02*
X244460000Y-90790000D01*
X258460000Y-104790000D02*
X244460000Y-104790000D01*
X258460000Y-104790000D02*
X258460000Y-90790000D01*
%TO.C,U34*%
X225410000Y-90790000D02*
X239410000Y-90790000D01*
X225410000Y-104790000D02*
X225410000Y-90790000D01*
X239410000Y-104790000D02*
X225410000Y-104790000D01*
X239410000Y-104790000D02*
X239410000Y-90790000D01*
%TO.C,U33*%
X206360000Y-90790000D02*
X220360000Y-90790000D01*
X206360000Y-104790000D02*
X206360000Y-90790000D01*
X220360000Y-104790000D02*
X206360000Y-104790000D01*
X220360000Y-104790000D02*
X220360000Y-90790000D01*
%TO.C,U32*%
X187310000Y-90790000D02*
X201310000Y-90790000D01*
X187310000Y-104790000D02*
X187310000Y-90790000D01*
X201310000Y-104790000D02*
X187310000Y-104790000D01*
X201310000Y-104790000D02*
X201310000Y-90790000D01*
%TO.C,U31*%
X168260000Y-90790000D02*
X182260000Y-90790000D01*
X168260000Y-104790000D02*
X168260000Y-90790000D01*
X182260000Y-104790000D02*
X168260000Y-104790000D01*
X182260000Y-104790000D02*
X182260000Y-90790000D01*
%TO.C,U30*%
X149210000Y-90790000D02*
X163210000Y-90790000D01*
X149210000Y-104790000D02*
X149210000Y-90790000D01*
X163210000Y-104790000D02*
X149210000Y-104790000D01*
X163210000Y-104790000D02*
X163210000Y-90790000D01*
%TO.C,U29*%
X130160000Y-90790000D02*
X144160000Y-90790000D01*
X130160000Y-104790000D02*
X130160000Y-90790000D01*
X144160000Y-104790000D02*
X130160000Y-104790000D01*
X144160000Y-104790000D02*
X144160000Y-90790000D01*
%TO.C,U28*%
X111110000Y-90790000D02*
X125110000Y-90790000D01*
X111110000Y-104790000D02*
X111110000Y-90790000D01*
X125110000Y-104790000D02*
X111110000Y-104790000D01*
X125110000Y-104790000D02*
X125110000Y-90790000D01*
%TO.C,U27*%
X92060000Y-90790000D02*
X106060000Y-90790000D01*
X92060000Y-104790000D02*
X92060000Y-90790000D01*
X106060000Y-104790000D02*
X92060000Y-104790000D01*
X106060000Y-104790000D02*
X106060000Y-90790000D01*
%TO.C,U26*%
X73010000Y-90790000D02*
X87010000Y-90790000D01*
X73010000Y-104790000D02*
X73010000Y-90790000D01*
X87010000Y-104790000D02*
X73010000Y-104790000D01*
X87010000Y-104790000D02*
X87010000Y-90790000D01*
%TO.C,U25*%
X53960000Y-90790000D02*
X67960000Y-90790000D01*
X53960000Y-104790000D02*
X53960000Y-90790000D01*
X67960000Y-104790000D02*
X53960000Y-104790000D01*
X67960000Y-104790000D02*
X67960000Y-90790000D01*
%TO.C,U24*%
X263510000Y-71740000D02*
X277510000Y-71740000D01*
X263510000Y-85740000D02*
X263510000Y-71740000D01*
X277510000Y-85740000D02*
X263510000Y-85740000D01*
X277510000Y-85740000D02*
X277510000Y-71740000D01*
%TO.C,U23*%
X244460000Y-71740000D02*
X258460000Y-71740000D01*
X244460000Y-85740000D02*
X244460000Y-71740000D01*
X258460000Y-85740000D02*
X244460000Y-85740000D01*
X258460000Y-85740000D02*
X258460000Y-71740000D01*
%TO.C,U22*%
X225410000Y-71740000D02*
X239410000Y-71740000D01*
X225410000Y-85740000D02*
X225410000Y-71740000D01*
X239410000Y-85740000D02*
X225410000Y-85740000D01*
X239410000Y-85740000D02*
X239410000Y-71740000D01*
%TO.C,U21*%
X206360000Y-71740000D02*
X220360000Y-71740000D01*
X206360000Y-85740000D02*
X206360000Y-71740000D01*
X220360000Y-85740000D02*
X206360000Y-85740000D01*
X220360000Y-85740000D02*
X220360000Y-71740000D01*
%TO.C,U20*%
X187310000Y-71740000D02*
X201310000Y-71740000D01*
X187310000Y-85740000D02*
X187310000Y-71740000D01*
X201310000Y-85740000D02*
X187310000Y-85740000D01*
X201310000Y-85740000D02*
X201310000Y-71740000D01*
%TO.C,U19*%
X168260000Y-71740000D02*
X182260000Y-71740000D01*
X168260000Y-85740000D02*
X168260000Y-71740000D01*
X182260000Y-85740000D02*
X168260000Y-85740000D01*
X182260000Y-85740000D02*
X182260000Y-71740000D01*
%TO.C,U18*%
X149210000Y-71740000D02*
X163210000Y-71740000D01*
X149210000Y-85740000D02*
X149210000Y-71740000D01*
X163210000Y-85740000D02*
X149210000Y-85740000D01*
X163210000Y-85740000D02*
X163210000Y-71740000D01*
%TO.C,U17*%
X130160000Y-71740000D02*
X144160000Y-71740000D01*
X130160000Y-85740000D02*
X130160000Y-71740000D01*
X144160000Y-85740000D02*
X130160000Y-85740000D01*
X144160000Y-85740000D02*
X144160000Y-71740000D01*
%TO.C,U16*%
X111110000Y-71740000D02*
X125110000Y-71740000D01*
X111110000Y-85740000D02*
X111110000Y-71740000D01*
X125110000Y-85740000D02*
X111110000Y-85740000D01*
X125110000Y-85740000D02*
X125110000Y-71740000D01*
%TO.C,U15*%
X92060000Y-71740000D02*
X106060000Y-71740000D01*
X92060000Y-85740000D02*
X92060000Y-71740000D01*
X106060000Y-85740000D02*
X92060000Y-85740000D01*
X106060000Y-85740000D02*
X106060000Y-71740000D01*
%TO.C,U14*%
X73010000Y-71740000D02*
X87010000Y-71740000D01*
X73010000Y-85740000D02*
X73010000Y-71740000D01*
X87010000Y-85740000D02*
X73010000Y-85740000D01*
X87010000Y-85740000D02*
X87010000Y-71740000D01*
%TO.C,U13*%
X53960000Y-71740000D02*
X67960000Y-71740000D01*
X53960000Y-85740000D02*
X53960000Y-71740000D01*
X67960000Y-85740000D02*
X53960000Y-85740000D01*
X67960000Y-85740000D02*
X67960000Y-71740000D01*
%TO.C,U12*%
X263510000Y-52690000D02*
X277510000Y-52690000D01*
X263510000Y-66690000D02*
X263510000Y-52690000D01*
X277510000Y-66690000D02*
X263510000Y-66690000D01*
X277510000Y-66690000D02*
X277510000Y-52690000D01*
%TO.C,U11*%
X244460000Y-52690000D02*
X258460000Y-52690000D01*
X244460000Y-66690000D02*
X244460000Y-52690000D01*
X258460000Y-66690000D02*
X244460000Y-66690000D01*
X258460000Y-66690000D02*
X258460000Y-52690000D01*
%TO.C,U10*%
X225410000Y-52690000D02*
X239410000Y-52690000D01*
X225410000Y-66690000D02*
X225410000Y-52690000D01*
X239410000Y-66690000D02*
X225410000Y-66690000D01*
X239410000Y-66690000D02*
X239410000Y-52690000D01*
%TO.C,U9*%
X206360000Y-52690000D02*
X220360000Y-52690000D01*
X206360000Y-66690000D02*
X206360000Y-52690000D01*
X220360000Y-66690000D02*
X206360000Y-66690000D01*
X220360000Y-66690000D02*
X220360000Y-52690000D01*
%TO.C,U8*%
X187310000Y-52690000D02*
X201310000Y-52690000D01*
X187310000Y-66690000D02*
X187310000Y-52690000D01*
X201310000Y-66690000D02*
X187310000Y-66690000D01*
X201310000Y-66690000D02*
X201310000Y-52690000D01*
%TO.C,U7*%
X168260000Y-52690000D02*
X182260000Y-52690000D01*
X168260000Y-66690000D02*
X168260000Y-52690000D01*
X182260000Y-66690000D02*
X168260000Y-66690000D01*
X182260000Y-66690000D02*
X182260000Y-52690000D01*
%TO.C,U6*%
X149210000Y-52690000D02*
X163210000Y-52690000D01*
X149210000Y-66690000D02*
X149210000Y-52690000D01*
X163210000Y-66690000D02*
X149210000Y-66690000D01*
X163210000Y-66690000D02*
X163210000Y-52690000D01*
%TO.C,U5*%
X130160000Y-52690000D02*
X144160000Y-52690000D01*
X130160000Y-66690000D02*
X130160000Y-52690000D01*
X144160000Y-66690000D02*
X130160000Y-66690000D01*
X144160000Y-66690000D02*
X144160000Y-52690000D01*
%TO.C,U4*%
X111110000Y-52690000D02*
X125110000Y-52690000D01*
X111110000Y-66690000D02*
X111110000Y-52690000D01*
X125110000Y-66690000D02*
X111110000Y-66690000D01*
X125110000Y-66690000D02*
X125110000Y-52690000D01*
%TO.C,U3*%
X92060000Y-52690000D02*
X106060000Y-52690000D01*
X92060000Y-66690000D02*
X92060000Y-52690000D01*
X106060000Y-66690000D02*
X92060000Y-66690000D01*
X106060000Y-66690000D02*
X106060000Y-52690000D01*
%TO.C,U2*%
X73010000Y-52690000D02*
X87010000Y-52690000D01*
X73010000Y-66690000D02*
X73010000Y-52690000D01*
X87010000Y-66690000D02*
X73010000Y-66690000D01*
X87010000Y-66690000D02*
X87010000Y-52690000D01*
%TO.C,U1*%
X53960000Y-52690000D02*
X67960000Y-52690000D01*
X53960000Y-66690000D02*
X53960000Y-52690000D01*
X67960000Y-66690000D02*
X53960000Y-66690000D01*
X67960000Y-66690000D02*
X67960000Y-52690000D01*
%TO.C,U42*%
D11*
X164496904Y-122642380D02*
X164496904Y-123451904D01*
X164544523Y-123547142D01*
X164592142Y-123594761D01*
X164687380Y-123642380D01*
X164877857Y-123642380D01*
X164973095Y-123594761D01*
X165020714Y-123547142D01*
X165068333Y-123451904D01*
X165068333Y-122642380D01*
X165973095Y-122975714D02*
X165973095Y-123642380D01*
X165735000Y-122594761D02*
X165496904Y-123309047D01*
X166115952Y-123309047D01*
X166449285Y-122737619D02*
X166496904Y-122690000D01*
X166592142Y-122642380D01*
X166830238Y-122642380D01*
X166925476Y-122690000D01*
X166973095Y-122737619D01*
X167020714Y-122832857D01*
X167020714Y-122928095D01*
X166973095Y-123070952D01*
X166401666Y-123642380D01*
X167020714Y-123642380D01*
%TO.C,U47*%
X269271904Y-122642380D02*
X269271904Y-123451904D01*
X269319523Y-123547142D01*
X269367142Y-123594761D01*
X269462380Y-123642380D01*
X269652857Y-123642380D01*
X269748095Y-123594761D01*
X269795714Y-123547142D01*
X269843333Y-123451904D01*
X269843333Y-122642380D01*
X270748095Y-122975714D02*
X270748095Y-123642380D01*
X270510000Y-122594761D02*
X270271904Y-123309047D01*
X270890952Y-123309047D01*
X271176666Y-122642380D02*
X271843333Y-122642380D01*
X271414761Y-123642380D01*
%TO.C,U46*%
X250856904Y-122642380D02*
X250856904Y-123451904D01*
X250904523Y-123547142D01*
X250952142Y-123594761D01*
X251047380Y-123642380D01*
X251237857Y-123642380D01*
X251333095Y-123594761D01*
X251380714Y-123547142D01*
X251428333Y-123451904D01*
X251428333Y-122642380D01*
X252333095Y-122975714D02*
X252333095Y-123642380D01*
X252095000Y-122594761D02*
X251856904Y-123309047D01*
X252475952Y-123309047D01*
X253285476Y-122642380D02*
X253095000Y-122642380D01*
X252999761Y-122690000D01*
X252952142Y-122737619D01*
X252856904Y-122880476D01*
X252809285Y-123070952D01*
X252809285Y-123451904D01*
X252856904Y-123547142D01*
X252904523Y-123594761D01*
X252999761Y-123642380D01*
X253190238Y-123642380D01*
X253285476Y-123594761D01*
X253333095Y-123547142D01*
X253380714Y-123451904D01*
X253380714Y-123213809D01*
X253333095Y-123118571D01*
X253285476Y-123070952D01*
X253190238Y-123023333D01*
X252999761Y-123023333D01*
X252904523Y-123070952D01*
X252856904Y-123118571D01*
X252809285Y-123213809D01*
%TO.C,U45*%
X231171904Y-122642380D02*
X231171904Y-123451904D01*
X231219523Y-123547142D01*
X231267142Y-123594761D01*
X231362380Y-123642380D01*
X231552857Y-123642380D01*
X231648095Y-123594761D01*
X231695714Y-123547142D01*
X231743333Y-123451904D01*
X231743333Y-122642380D01*
X232648095Y-122975714D02*
X232648095Y-123642380D01*
X232410000Y-122594761D02*
X232171904Y-123309047D01*
X232790952Y-123309047D01*
X233648095Y-122642380D02*
X233171904Y-122642380D01*
X233124285Y-123118571D01*
X233171904Y-123070952D01*
X233267142Y-123023333D01*
X233505238Y-123023333D01*
X233600476Y-123070952D01*
X233648095Y-123118571D01*
X233695714Y-123213809D01*
X233695714Y-123451904D01*
X233648095Y-123547142D01*
X233600476Y-123594761D01*
X233505238Y-123642380D01*
X233267142Y-123642380D01*
X233171904Y-123594761D01*
X233124285Y-123547142D01*
%TO.C,U44*%
X212121904Y-122642380D02*
X212121904Y-123451904D01*
X212169523Y-123547142D01*
X212217142Y-123594761D01*
X212312380Y-123642380D01*
X212502857Y-123642380D01*
X212598095Y-123594761D01*
X212645714Y-123547142D01*
X212693333Y-123451904D01*
X212693333Y-122642380D01*
X213598095Y-122975714D02*
X213598095Y-123642380D01*
X213360000Y-122594761D02*
X213121904Y-123309047D01*
X213740952Y-123309047D01*
X214550476Y-122975714D02*
X214550476Y-123642380D01*
X214312380Y-122594761D02*
X214074285Y-123309047D01*
X214693333Y-123309047D01*
%TO.C,U43*%
X193071904Y-122642380D02*
X193071904Y-123451904D01*
X193119523Y-123547142D01*
X193167142Y-123594761D01*
X193262380Y-123642380D01*
X193452857Y-123642380D01*
X193548095Y-123594761D01*
X193595714Y-123547142D01*
X193643333Y-123451904D01*
X193643333Y-122642380D01*
X194548095Y-122975714D02*
X194548095Y-123642380D01*
X194310000Y-122594761D02*
X194071904Y-123309047D01*
X194690952Y-123309047D01*
X194976666Y-122642380D02*
X195595714Y-122642380D01*
X195262380Y-123023333D01*
X195405238Y-123023333D01*
X195500476Y-123070952D01*
X195548095Y-123118571D01*
X195595714Y-123213809D01*
X195595714Y-123451904D01*
X195548095Y-123547142D01*
X195500476Y-123594761D01*
X195405238Y-123642380D01*
X195119523Y-123642380D01*
X195024285Y-123594761D01*
X194976666Y-123547142D01*
%TO.C,U41*%
X135921904Y-122642380D02*
X135921904Y-123451904D01*
X135969523Y-123547142D01*
X136017142Y-123594761D01*
X136112380Y-123642380D01*
X136302857Y-123642380D01*
X136398095Y-123594761D01*
X136445714Y-123547142D01*
X136493333Y-123451904D01*
X136493333Y-122642380D01*
X137398095Y-122975714D02*
X137398095Y-123642380D01*
X137160000Y-122594761D02*
X136921904Y-123309047D01*
X137540952Y-123309047D01*
X138445714Y-123642380D02*
X137874285Y-123642380D01*
X138160000Y-123642380D02*
X138160000Y-122642380D01*
X138064761Y-122785238D01*
X137969523Y-122880476D01*
X137874285Y-122928095D01*
%TO.C,U40*%
X116871904Y-122642380D02*
X116871904Y-123451904D01*
X116919523Y-123547142D01*
X116967142Y-123594761D01*
X117062380Y-123642380D01*
X117252857Y-123642380D01*
X117348095Y-123594761D01*
X117395714Y-123547142D01*
X117443333Y-123451904D01*
X117443333Y-122642380D01*
X118348095Y-122975714D02*
X118348095Y-123642380D01*
X118110000Y-122594761D02*
X117871904Y-123309047D01*
X118490952Y-123309047D01*
X119062380Y-122642380D02*
X119157619Y-122642380D01*
X119252857Y-122690000D01*
X119300476Y-122737619D01*
X119348095Y-122832857D01*
X119395714Y-123023333D01*
X119395714Y-123261428D01*
X119348095Y-123451904D01*
X119300476Y-123547142D01*
X119252857Y-123594761D01*
X119157619Y-123642380D01*
X119062380Y-123642380D01*
X118967142Y-123594761D01*
X118919523Y-123547142D01*
X118871904Y-123451904D01*
X118824285Y-123261428D01*
X118824285Y-123023333D01*
X118871904Y-122832857D01*
X118919523Y-122737619D01*
X118967142Y-122690000D01*
X119062380Y-122642380D01*
%TO.C,U39*%
X97821904Y-122642380D02*
X97821904Y-123451904D01*
X97869523Y-123547142D01*
X97917142Y-123594761D01*
X98012380Y-123642380D01*
X98202857Y-123642380D01*
X98298095Y-123594761D01*
X98345714Y-123547142D01*
X98393333Y-123451904D01*
X98393333Y-122642380D01*
X98774285Y-122642380D02*
X99393333Y-122642380D01*
X99060000Y-123023333D01*
X99202857Y-123023333D01*
X99298095Y-123070952D01*
X99345714Y-123118571D01*
X99393333Y-123213809D01*
X99393333Y-123451904D01*
X99345714Y-123547142D01*
X99298095Y-123594761D01*
X99202857Y-123642380D01*
X98917142Y-123642380D01*
X98821904Y-123594761D01*
X98774285Y-123547142D01*
X99869523Y-123642380D02*
X100060000Y-123642380D01*
X100155238Y-123594761D01*
X100202857Y-123547142D01*
X100298095Y-123404285D01*
X100345714Y-123213809D01*
X100345714Y-122832857D01*
X100298095Y-122737619D01*
X100250476Y-122690000D01*
X100155238Y-122642380D01*
X99964761Y-122642380D01*
X99869523Y-122690000D01*
X99821904Y-122737619D01*
X99774285Y-122832857D01*
X99774285Y-123070952D01*
X99821904Y-123166190D01*
X99869523Y-123213809D01*
X99964761Y-123261428D01*
X100155238Y-123261428D01*
X100250476Y-123213809D01*
X100298095Y-123166190D01*
X100345714Y-123070952D01*
%TO.C,U38*%
X78771904Y-122642380D02*
X78771904Y-123451904D01*
X78819523Y-123547142D01*
X78867142Y-123594761D01*
X78962380Y-123642380D01*
X79152857Y-123642380D01*
X79248095Y-123594761D01*
X79295714Y-123547142D01*
X79343333Y-123451904D01*
X79343333Y-122642380D01*
X79724285Y-122642380D02*
X80343333Y-122642380D01*
X80010000Y-123023333D01*
X80152857Y-123023333D01*
X80248095Y-123070952D01*
X80295714Y-123118571D01*
X80343333Y-123213809D01*
X80343333Y-123451904D01*
X80295714Y-123547142D01*
X80248095Y-123594761D01*
X80152857Y-123642380D01*
X79867142Y-123642380D01*
X79771904Y-123594761D01*
X79724285Y-123547142D01*
X80914761Y-123070952D02*
X80819523Y-123023333D01*
X80771904Y-122975714D01*
X80724285Y-122880476D01*
X80724285Y-122832857D01*
X80771904Y-122737619D01*
X80819523Y-122690000D01*
X80914761Y-122642380D01*
X81105238Y-122642380D01*
X81200476Y-122690000D01*
X81248095Y-122737619D01*
X81295714Y-122832857D01*
X81295714Y-122880476D01*
X81248095Y-122975714D01*
X81200476Y-123023333D01*
X81105238Y-123070952D01*
X80914761Y-123070952D01*
X80819523Y-123118571D01*
X80771904Y-123166190D01*
X80724285Y-123261428D01*
X80724285Y-123451904D01*
X80771904Y-123547142D01*
X80819523Y-123594761D01*
X80914761Y-123642380D01*
X81105238Y-123642380D01*
X81200476Y-123594761D01*
X81248095Y-123547142D01*
X81295714Y-123451904D01*
X81295714Y-123261428D01*
X81248095Y-123166190D01*
X81200476Y-123118571D01*
X81105238Y-123070952D01*
%TO.C,U37*%
X59721904Y-122642380D02*
X59721904Y-123451904D01*
X59769523Y-123547142D01*
X59817142Y-123594761D01*
X59912380Y-123642380D01*
X60102857Y-123642380D01*
X60198095Y-123594761D01*
X60245714Y-123547142D01*
X60293333Y-123451904D01*
X60293333Y-122642380D01*
X60674285Y-122642380D02*
X61293333Y-122642380D01*
X60960000Y-123023333D01*
X61102857Y-123023333D01*
X61198095Y-123070952D01*
X61245714Y-123118571D01*
X61293333Y-123213809D01*
X61293333Y-123451904D01*
X61245714Y-123547142D01*
X61198095Y-123594761D01*
X61102857Y-123642380D01*
X60817142Y-123642380D01*
X60721904Y-123594761D01*
X60674285Y-123547142D01*
X61626666Y-122642380D02*
X62293333Y-122642380D01*
X61864761Y-123642380D01*
%TO.C,U36*%
X269271904Y-103592380D02*
X269271904Y-104401904D01*
X269319523Y-104497142D01*
X269367142Y-104544761D01*
X269462380Y-104592380D01*
X269652857Y-104592380D01*
X269748095Y-104544761D01*
X269795714Y-104497142D01*
X269843333Y-104401904D01*
X269843333Y-103592380D01*
X270224285Y-103592380D02*
X270843333Y-103592380D01*
X270510000Y-103973333D01*
X270652857Y-103973333D01*
X270748095Y-104020952D01*
X270795714Y-104068571D01*
X270843333Y-104163809D01*
X270843333Y-104401904D01*
X270795714Y-104497142D01*
X270748095Y-104544761D01*
X270652857Y-104592380D01*
X270367142Y-104592380D01*
X270271904Y-104544761D01*
X270224285Y-104497142D01*
X271700476Y-103592380D02*
X271510000Y-103592380D01*
X271414761Y-103640000D01*
X271367142Y-103687619D01*
X271271904Y-103830476D01*
X271224285Y-104020952D01*
X271224285Y-104401904D01*
X271271904Y-104497142D01*
X271319523Y-104544761D01*
X271414761Y-104592380D01*
X271605238Y-104592380D01*
X271700476Y-104544761D01*
X271748095Y-104497142D01*
X271795714Y-104401904D01*
X271795714Y-104163809D01*
X271748095Y-104068571D01*
X271700476Y-104020952D01*
X271605238Y-103973333D01*
X271414761Y-103973333D01*
X271319523Y-104020952D01*
X271271904Y-104068571D01*
X271224285Y-104163809D01*
%TO.C,U35*%
X250221904Y-103592380D02*
X250221904Y-104401904D01*
X250269523Y-104497142D01*
X250317142Y-104544761D01*
X250412380Y-104592380D01*
X250602857Y-104592380D01*
X250698095Y-104544761D01*
X250745714Y-104497142D01*
X250793333Y-104401904D01*
X250793333Y-103592380D01*
X251174285Y-103592380D02*
X251793333Y-103592380D01*
X251460000Y-103973333D01*
X251602857Y-103973333D01*
X251698095Y-104020952D01*
X251745714Y-104068571D01*
X251793333Y-104163809D01*
X251793333Y-104401904D01*
X251745714Y-104497142D01*
X251698095Y-104544761D01*
X251602857Y-104592380D01*
X251317142Y-104592380D01*
X251221904Y-104544761D01*
X251174285Y-104497142D01*
X252698095Y-103592380D02*
X252221904Y-103592380D01*
X252174285Y-104068571D01*
X252221904Y-104020952D01*
X252317142Y-103973333D01*
X252555238Y-103973333D01*
X252650476Y-104020952D01*
X252698095Y-104068571D01*
X252745714Y-104163809D01*
X252745714Y-104401904D01*
X252698095Y-104497142D01*
X252650476Y-104544761D01*
X252555238Y-104592380D01*
X252317142Y-104592380D01*
X252221904Y-104544761D01*
X252174285Y-104497142D01*
%TO.C,U34*%
X231171904Y-103592380D02*
X231171904Y-104401904D01*
X231219523Y-104497142D01*
X231267142Y-104544761D01*
X231362380Y-104592380D01*
X231552857Y-104592380D01*
X231648095Y-104544761D01*
X231695714Y-104497142D01*
X231743333Y-104401904D01*
X231743333Y-103592380D01*
X232124285Y-103592380D02*
X232743333Y-103592380D01*
X232410000Y-103973333D01*
X232552857Y-103973333D01*
X232648095Y-104020952D01*
X232695714Y-104068571D01*
X232743333Y-104163809D01*
X232743333Y-104401904D01*
X232695714Y-104497142D01*
X232648095Y-104544761D01*
X232552857Y-104592380D01*
X232267142Y-104592380D01*
X232171904Y-104544761D01*
X232124285Y-104497142D01*
X233600476Y-103925714D02*
X233600476Y-104592380D01*
X233362380Y-103544761D02*
X233124285Y-104259047D01*
X233743333Y-104259047D01*
%TO.C,U33*%
X212121904Y-103592380D02*
X212121904Y-104401904D01*
X212169523Y-104497142D01*
X212217142Y-104544761D01*
X212312380Y-104592380D01*
X212502857Y-104592380D01*
X212598095Y-104544761D01*
X212645714Y-104497142D01*
X212693333Y-104401904D01*
X212693333Y-103592380D01*
X213074285Y-103592380D02*
X213693333Y-103592380D01*
X213360000Y-103973333D01*
X213502857Y-103973333D01*
X213598095Y-104020952D01*
X213645714Y-104068571D01*
X213693333Y-104163809D01*
X213693333Y-104401904D01*
X213645714Y-104497142D01*
X213598095Y-104544761D01*
X213502857Y-104592380D01*
X213217142Y-104592380D01*
X213121904Y-104544761D01*
X213074285Y-104497142D01*
X214026666Y-103592380D02*
X214645714Y-103592380D01*
X214312380Y-103973333D01*
X214455238Y-103973333D01*
X214550476Y-104020952D01*
X214598095Y-104068571D01*
X214645714Y-104163809D01*
X214645714Y-104401904D01*
X214598095Y-104497142D01*
X214550476Y-104544761D01*
X214455238Y-104592380D01*
X214169523Y-104592380D01*
X214074285Y-104544761D01*
X214026666Y-104497142D01*
%TO.C,U32*%
X193071904Y-103592380D02*
X193071904Y-104401904D01*
X193119523Y-104497142D01*
X193167142Y-104544761D01*
X193262380Y-104592380D01*
X193452857Y-104592380D01*
X193548095Y-104544761D01*
X193595714Y-104497142D01*
X193643333Y-104401904D01*
X193643333Y-103592380D01*
X194024285Y-103592380D02*
X194643333Y-103592380D01*
X194310000Y-103973333D01*
X194452857Y-103973333D01*
X194548095Y-104020952D01*
X194595714Y-104068571D01*
X194643333Y-104163809D01*
X194643333Y-104401904D01*
X194595714Y-104497142D01*
X194548095Y-104544761D01*
X194452857Y-104592380D01*
X194167142Y-104592380D01*
X194071904Y-104544761D01*
X194024285Y-104497142D01*
X195024285Y-103687619D02*
X195071904Y-103640000D01*
X195167142Y-103592380D01*
X195405238Y-103592380D01*
X195500476Y-103640000D01*
X195548095Y-103687619D01*
X195595714Y-103782857D01*
X195595714Y-103878095D01*
X195548095Y-104020952D01*
X194976666Y-104592380D01*
X195595714Y-104592380D01*
%TO.C,U31*%
X174021904Y-103592380D02*
X174021904Y-104401904D01*
X174069523Y-104497142D01*
X174117142Y-104544761D01*
X174212380Y-104592380D01*
X174402857Y-104592380D01*
X174498095Y-104544761D01*
X174545714Y-104497142D01*
X174593333Y-104401904D01*
X174593333Y-103592380D01*
X174974285Y-103592380D02*
X175593333Y-103592380D01*
X175260000Y-103973333D01*
X175402857Y-103973333D01*
X175498095Y-104020952D01*
X175545714Y-104068571D01*
X175593333Y-104163809D01*
X175593333Y-104401904D01*
X175545714Y-104497142D01*
X175498095Y-104544761D01*
X175402857Y-104592380D01*
X175117142Y-104592380D01*
X175021904Y-104544761D01*
X174974285Y-104497142D01*
X176545714Y-104592380D02*
X175974285Y-104592380D01*
X176260000Y-104592380D02*
X176260000Y-103592380D01*
X176164761Y-103735238D01*
X176069523Y-103830476D01*
X175974285Y-103878095D01*
%TO.C,U30*%
X154971904Y-103592380D02*
X154971904Y-104401904D01*
X155019523Y-104497142D01*
X155067142Y-104544761D01*
X155162380Y-104592380D01*
X155352857Y-104592380D01*
X155448095Y-104544761D01*
X155495714Y-104497142D01*
X155543333Y-104401904D01*
X155543333Y-103592380D01*
X155924285Y-103592380D02*
X156543333Y-103592380D01*
X156210000Y-103973333D01*
X156352857Y-103973333D01*
X156448095Y-104020952D01*
X156495714Y-104068571D01*
X156543333Y-104163809D01*
X156543333Y-104401904D01*
X156495714Y-104497142D01*
X156448095Y-104544761D01*
X156352857Y-104592380D01*
X156067142Y-104592380D01*
X155971904Y-104544761D01*
X155924285Y-104497142D01*
X157162380Y-103592380D02*
X157257619Y-103592380D01*
X157352857Y-103640000D01*
X157400476Y-103687619D01*
X157448095Y-103782857D01*
X157495714Y-103973333D01*
X157495714Y-104211428D01*
X157448095Y-104401904D01*
X157400476Y-104497142D01*
X157352857Y-104544761D01*
X157257619Y-104592380D01*
X157162380Y-104592380D01*
X157067142Y-104544761D01*
X157019523Y-104497142D01*
X156971904Y-104401904D01*
X156924285Y-104211428D01*
X156924285Y-103973333D01*
X156971904Y-103782857D01*
X157019523Y-103687619D01*
X157067142Y-103640000D01*
X157162380Y-103592380D01*
%TO.C,U29*%
X135921904Y-103592380D02*
X135921904Y-104401904D01*
X135969523Y-104497142D01*
X136017142Y-104544761D01*
X136112380Y-104592380D01*
X136302857Y-104592380D01*
X136398095Y-104544761D01*
X136445714Y-104497142D01*
X136493333Y-104401904D01*
X136493333Y-103592380D01*
X136921904Y-103687619D02*
X136969523Y-103640000D01*
X137064761Y-103592380D01*
X137302857Y-103592380D01*
X137398095Y-103640000D01*
X137445714Y-103687619D01*
X137493333Y-103782857D01*
X137493333Y-103878095D01*
X137445714Y-104020952D01*
X136874285Y-104592380D01*
X137493333Y-104592380D01*
X137969523Y-104592380D02*
X138160000Y-104592380D01*
X138255238Y-104544761D01*
X138302857Y-104497142D01*
X138398095Y-104354285D01*
X138445714Y-104163809D01*
X138445714Y-103782857D01*
X138398095Y-103687619D01*
X138350476Y-103640000D01*
X138255238Y-103592380D01*
X138064761Y-103592380D01*
X137969523Y-103640000D01*
X137921904Y-103687619D01*
X137874285Y-103782857D01*
X137874285Y-104020952D01*
X137921904Y-104116190D01*
X137969523Y-104163809D01*
X138064761Y-104211428D01*
X138255238Y-104211428D01*
X138350476Y-104163809D01*
X138398095Y-104116190D01*
X138445714Y-104020952D01*
%TO.C,U28*%
X116871904Y-103592380D02*
X116871904Y-104401904D01*
X116919523Y-104497142D01*
X116967142Y-104544761D01*
X117062380Y-104592380D01*
X117252857Y-104592380D01*
X117348095Y-104544761D01*
X117395714Y-104497142D01*
X117443333Y-104401904D01*
X117443333Y-103592380D01*
X117871904Y-103687619D02*
X117919523Y-103640000D01*
X118014761Y-103592380D01*
X118252857Y-103592380D01*
X118348095Y-103640000D01*
X118395714Y-103687619D01*
X118443333Y-103782857D01*
X118443333Y-103878095D01*
X118395714Y-104020952D01*
X117824285Y-104592380D01*
X118443333Y-104592380D01*
X119014761Y-104020952D02*
X118919523Y-103973333D01*
X118871904Y-103925714D01*
X118824285Y-103830476D01*
X118824285Y-103782857D01*
X118871904Y-103687619D01*
X118919523Y-103640000D01*
X119014761Y-103592380D01*
X119205238Y-103592380D01*
X119300476Y-103640000D01*
X119348095Y-103687619D01*
X119395714Y-103782857D01*
X119395714Y-103830476D01*
X119348095Y-103925714D01*
X119300476Y-103973333D01*
X119205238Y-104020952D01*
X119014761Y-104020952D01*
X118919523Y-104068571D01*
X118871904Y-104116190D01*
X118824285Y-104211428D01*
X118824285Y-104401904D01*
X118871904Y-104497142D01*
X118919523Y-104544761D01*
X119014761Y-104592380D01*
X119205238Y-104592380D01*
X119300476Y-104544761D01*
X119348095Y-104497142D01*
X119395714Y-104401904D01*
X119395714Y-104211428D01*
X119348095Y-104116190D01*
X119300476Y-104068571D01*
X119205238Y-104020952D01*
%TO.C,U27*%
X97821904Y-103592380D02*
X97821904Y-104401904D01*
X97869523Y-104497142D01*
X97917142Y-104544761D01*
X98012380Y-104592380D01*
X98202857Y-104592380D01*
X98298095Y-104544761D01*
X98345714Y-104497142D01*
X98393333Y-104401904D01*
X98393333Y-103592380D01*
X98821904Y-103687619D02*
X98869523Y-103640000D01*
X98964761Y-103592380D01*
X99202857Y-103592380D01*
X99298095Y-103640000D01*
X99345714Y-103687619D01*
X99393333Y-103782857D01*
X99393333Y-103878095D01*
X99345714Y-104020952D01*
X98774285Y-104592380D01*
X99393333Y-104592380D01*
X99726666Y-103592380D02*
X100393333Y-103592380D01*
X99964761Y-104592380D01*
%TO.C,U26*%
X78771904Y-103592380D02*
X78771904Y-104401904D01*
X78819523Y-104497142D01*
X78867142Y-104544761D01*
X78962380Y-104592380D01*
X79152857Y-104592380D01*
X79248095Y-104544761D01*
X79295714Y-104497142D01*
X79343333Y-104401904D01*
X79343333Y-103592380D01*
X79771904Y-103687619D02*
X79819523Y-103640000D01*
X79914761Y-103592380D01*
X80152857Y-103592380D01*
X80248095Y-103640000D01*
X80295714Y-103687619D01*
X80343333Y-103782857D01*
X80343333Y-103878095D01*
X80295714Y-104020952D01*
X79724285Y-104592380D01*
X80343333Y-104592380D01*
X81200476Y-103592380D02*
X81010000Y-103592380D01*
X80914761Y-103640000D01*
X80867142Y-103687619D01*
X80771904Y-103830476D01*
X80724285Y-104020952D01*
X80724285Y-104401904D01*
X80771904Y-104497142D01*
X80819523Y-104544761D01*
X80914761Y-104592380D01*
X81105238Y-104592380D01*
X81200476Y-104544761D01*
X81248095Y-104497142D01*
X81295714Y-104401904D01*
X81295714Y-104163809D01*
X81248095Y-104068571D01*
X81200476Y-104020952D01*
X81105238Y-103973333D01*
X80914761Y-103973333D01*
X80819523Y-104020952D01*
X80771904Y-104068571D01*
X80724285Y-104163809D01*
%TO.C,U25*%
X59721904Y-103592380D02*
X59721904Y-104401904D01*
X59769523Y-104497142D01*
X59817142Y-104544761D01*
X59912380Y-104592380D01*
X60102857Y-104592380D01*
X60198095Y-104544761D01*
X60245714Y-104497142D01*
X60293333Y-104401904D01*
X60293333Y-103592380D01*
X60721904Y-103687619D02*
X60769523Y-103640000D01*
X60864761Y-103592380D01*
X61102857Y-103592380D01*
X61198095Y-103640000D01*
X61245714Y-103687619D01*
X61293333Y-103782857D01*
X61293333Y-103878095D01*
X61245714Y-104020952D01*
X60674285Y-104592380D01*
X61293333Y-104592380D01*
X62198095Y-103592380D02*
X61721904Y-103592380D01*
X61674285Y-104068571D01*
X61721904Y-104020952D01*
X61817142Y-103973333D01*
X62055238Y-103973333D01*
X62150476Y-104020952D01*
X62198095Y-104068571D01*
X62245714Y-104163809D01*
X62245714Y-104401904D01*
X62198095Y-104497142D01*
X62150476Y-104544761D01*
X62055238Y-104592380D01*
X61817142Y-104592380D01*
X61721904Y-104544761D01*
X61674285Y-104497142D01*
%TO.C,U24*%
X269271904Y-84542380D02*
X269271904Y-85351904D01*
X269319523Y-85447142D01*
X269367142Y-85494761D01*
X269462380Y-85542380D01*
X269652857Y-85542380D01*
X269748095Y-85494761D01*
X269795714Y-85447142D01*
X269843333Y-85351904D01*
X269843333Y-84542380D01*
X270271904Y-84637619D02*
X270319523Y-84590000D01*
X270414761Y-84542380D01*
X270652857Y-84542380D01*
X270748095Y-84590000D01*
X270795714Y-84637619D01*
X270843333Y-84732857D01*
X270843333Y-84828095D01*
X270795714Y-84970952D01*
X270224285Y-85542380D01*
X270843333Y-85542380D01*
X271700476Y-84875714D02*
X271700476Y-85542380D01*
X271462380Y-84494761D02*
X271224285Y-85209047D01*
X271843333Y-85209047D01*
%TO.C,U23*%
X250221904Y-84542380D02*
X250221904Y-85351904D01*
X250269523Y-85447142D01*
X250317142Y-85494761D01*
X250412380Y-85542380D01*
X250602857Y-85542380D01*
X250698095Y-85494761D01*
X250745714Y-85447142D01*
X250793333Y-85351904D01*
X250793333Y-84542380D01*
X251221904Y-84637619D02*
X251269523Y-84590000D01*
X251364761Y-84542380D01*
X251602857Y-84542380D01*
X251698095Y-84590000D01*
X251745714Y-84637619D01*
X251793333Y-84732857D01*
X251793333Y-84828095D01*
X251745714Y-84970952D01*
X251174285Y-85542380D01*
X251793333Y-85542380D01*
X252126666Y-84542380D02*
X252745714Y-84542380D01*
X252412380Y-84923333D01*
X252555238Y-84923333D01*
X252650476Y-84970952D01*
X252698095Y-85018571D01*
X252745714Y-85113809D01*
X252745714Y-85351904D01*
X252698095Y-85447142D01*
X252650476Y-85494761D01*
X252555238Y-85542380D01*
X252269523Y-85542380D01*
X252174285Y-85494761D01*
X252126666Y-85447142D01*
%TO.C,U22*%
X231171904Y-84542380D02*
X231171904Y-85351904D01*
X231219523Y-85447142D01*
X231267142Y-85494761D01*
X231362380Y-85542380D01*
X231552857Y-85542380D01*
X231648095Y-85494761D01*
X231695714Y-85447142D01*
X231743333Y-85351904D01*
X231743333Y-84542380D01*
X232171904Y-84637619D02*
X232219523Y-84590000D01*
X232314761Y-84542380D01*
X232552857Y-84542380D01*
X232648095Y-84590000D01*
X232695714Y-84637619D01*
X232743333Y-84732857D01*
X232743333Y-84828095D01*
X232695714Y-84970952D01*
X232124285Y-85542380D01*
X232743333Y-85542380D01*
X233124285Y-84637619D02*
X233171904Y-84590000D01*
X233267142Y-84542380D01*
X233505238Y-84542380D01*
X233600476Y-84590000D01*
X233648095Y-84637619D01*
X233695714Y-84732857D01*
X233695714Y-84828095D01*
X233648095Y-84970952D01*
X233076666Y-85542380D01*
X233695714Y-85542380D01*
%TO.C,U21*%
X212121904Y-84542380D02*
X212121904Y-85351904D01*
X212169523Y-85447142D01*
X212217142Y-85494761D01*
X212312380Y-85542380D01*
X212502857Y-85542380D01*
X212598095Y-85494761D01*
X212645714Y-85447142D01*
X212693333Y-85351904D01*
X212693333Y-84542380D01*
X213121904Y-84637619D02*
X213169523Y-84590000D01*
X213264761Y-84542380D01*
X213502857Y-84542380D01*
X213598095Y-84590000D01*
X213645714Y-84637619D01*
X213693333Y-84732857D01*
X213693333Y-84828095D01*
X213645714Y-84970952D01*
X213074285Y-85542380D01*
X213693333Y-85542380D01*
X214645714Y-85542380D02*
X214074285Y-85542380D01*
X214360000Y-85542380D02*
X214360000Y-84542380D01*
X214264761Y-84685238D01*
X214169523Y-84780476D01*
X214074285Y-84828095D01*
%TO.C,U20*%
X193071904Y-84542380D02*
X193071904Y-85351904D01*
X193119523Y-85447142D01*
X193167142Y-85494761D01*
X193262380Y-85542380D01*
X193452857Y-85542380D01*
X193548095Y-85494761D01*
X193595714Y-85447142D01*
X193643333Y-85351904D01*
X193643333Y-84542380D01*
X194071904Y-84637619D02*
X194119523Y-84590000D01*
X194214761Y-84542380D01*
X194452857Y-84542380D01*
X194548095Y-84590000D01*
X194595714Y-84637619D01*
X194643333Y-84732857D01*
X194643333Y-84828095D01*
X194595714Y-84970952D01*
X194024285Y-85542380D01*
X194643333Y-85542380D01*
X195262380Y-84542380D02*
X195357619Y-84542380D01*
X195452857Y-84590000D01*
X195500476Y-84637619D01*
X195548095Y-84732857D01*
X195595714Y-84923333D01*
X195595714Y-85161428D01*
X195548095Y-85351904D01*
X195500476Y-85447142D01*
X195452857Y-85494761D01*
X195357619Y-85542380D01*
X195262380Y-85542380D01*
X195167142Y-85494761D01*
X195119523Y-85447142D01*
X195071904Y-85351904D01*
X195024285Y-85161428D01*
X195024285Y-84923333D01*
X195071904Y-84732857D01*
X195119523Y-84637619D01*
X195167142Y-84590000D01*
X195262380Y-84542380D01*
%TO.C,U19*%
X174021904Y-84542380D02*
X174021904Y-85351904D01*
X174069523Y-85447142D01*
X174117142Y-85494761D01*
X174212380Y-85542380D01*
X174402857Y-85542380D01*
X174498095Y-85494761D01*
X174545714Y-85447142D01*
X174593333Y-85351904D01*
X174593333Y-84542380D01*
X175593333Y-85542380D02*
X175021904Y-85542380D01*
X175307619Y-85542380D02*
X175307619Y-84542380D01*
X175212380Y-84685238D01*
X175117142Y-84780476D01*
X175021904Y-84828095D01*
X176069523Y-85542380D02*
X176260000Y-85542380D01*
X176355238Y-85494761D01*
X176402857Y-85447142D01*
X176498095Y-85304285D01*
X176545714Y-85113809D01*
X176545714Y-84732857D01*
X176498095Y-84637619D01*
X176450476Y-84590000D01*
X176355238Y-84542380D01*
X176164761Y-84542380D01*
X176069523Y-84590000D01*
X176021904Y-84637619D01*
X175974285Y-84732857D01*
X175974285Y-84970952D01*
X176021904Y-85066190D01*
X176069523Y-85113809D01*
X176164761Y-85161428D01*
X176355238Y-85161428D01*
X176450476Y-85113809D01*
X176498095Y-85066190D01*
X176545714Y-84970952D01*
%TO.C,U18*%
X154971904Y-84542380D02*
X154971904Y-85351904D01*
X155019523Y-85447142D01*
X155067142Y-85494761D01*
X155162380Y-85542380D01*
X155352857Y-85542380D01*
X155448095Y-85494761D01*
X155495714Y-85447142D01*
X155543333Y-85351904D01*
X155543333Y-84542380D01*
X156543333Y-85542380D02*
X155971904Y-85542380D01*
X156257619Y-85542380D02*
X156257619Y-84542380D01*
X156162380Y-84685238D01*
X156067142Y-84780476D01*
X155971904Y-84828095D01*
X157114761Y-84970952D02*
X157019523Y-84923333D01*
X156971904Y-84875714D01*
X156924285Y-84780476D01*
X156924285Y-84732857D01*
X156971904Y-84637619D01*
X157019523Y-84590000D01*
X157114761Y-84542380D01*
X157305238Y-84542380D01*
X157400476Y-84590000D01*
X157448095Y-84637619D01*
X157495714Y-84732857D01*
X157495714Y-84780476D01*
X157448095Y-84875714D01*
X157400476Y-84923333D01*
X157305238Y-84970952D01*
X157114761Y-84970952D01*
X157019523Y-85018571D01*
X156971904Y-85066190D01*
X156924285Y-85161428D01*
X156924285Y-85351904D01*
X156971904Y-85447142D01*
X157019523Y-85494761D01*
X157114761Y-85542380D01*
X157305238Y-85542380D01*
X157400476Y-85494761D01*
X157448095Y-85447142D01*
X157495714Y-85351904D01*
X157495714Y-85161428D01*
X157448095Y-85066190D01*
X157400476Y-85018571D01*
X157305238Y-84970952D01*
%TO.C,U17*%
X135921904Y-84542380D02*
X135921904Y-85351904D01*
X135969523Y-85447142D01*
X136017142Y-85494761D01*
X136112380Y-85542380D01*
X136302857Y-85542380D01*
X136398095Y-85494761D01*
X136445714Y-85447142D01*
X136493333Y-85351904D01*
X136493333Y-84542380D01*
X137493333Y-85542380D02*
X136921904Y-85542380D01*
X137207619Y-85542380D02*
X137207619Y-84542380D01*
X137112380Y-84685238D01*
X137017142Y-84780476D01*
X136921904Y-84828095D01*
X137826666Y-84542380D02*
X138493333Y-84542380D01*
X138064761Y-85542380D01*
%TO.C,U16*%
X116871904Y-84542380D02*
X116871904Y-85351904D01*
X116919523Y-85447142D01*
X116967142Y-85494761D01*
X117062380Y-85542380D01*
X117252857Y-85542380D01*
X117348095Y-85494761D01*
X117395714Y-85447142D01*
X117443333Y-85351904D01*
X117443333Y-84542380D01*
X118443333Y-85542380D02*
X117871904Y-85542380D01*
X118157619Y-85542380D02*
X118157619Y-84542380D01*
X118062380Y-84685238D01*
X117967142Y-84780476D01*
X117871904Y-84828095D01*
X119300476Y-84542380D02*
X119110000Y-84542380D01*
X119014761Y-84590000D01*
X118967142Y-84637619D01*
X118871904Y-84780476D01*
X118824285Y-84970952D01*
X118824285Y-85351904D01*
X118871904Y-85447142D01*
X118919523Y-85494761D01*
X119014761Y-85542380D01*
X119205238Y-85542380D01*
X119300476Y-85494761D01*
X119348095Y-85447142D01*
X119395714Y-85351904D01*
X119395714Y-85113809D01*
X119348095Y-85018571D01*
X119300476Y-84970952D01*
X119205238Y-84923333D01*
X119014761Y-84923333D01*
X118919523Y-84970952D01*
X118871904Y-85018571D01*
X118824285Y-85113809D01*
%TO.C,U15*%
X97821904Y-84542380D02*
X97821904Y-85351904D01*
X97869523Y-85447142D01*
X97917142Y-85494761D01*
X98012380Y-85542380D01*
X98202857Y-85542380D01*
X98298095Y-85494761D01*
X98345714Y-85447142D01*
X98393333Y-85351904D01*
X98393333Y-84542380D01*
X99393333Y-85542380D02*
X98821904Y-85542380D01*
X99107619Y-85542380D02*
X99107619Y-84542380D01*
X99012380Y-84685238D01*
X98917142Y-84780476D01*
X98821904Y-84828095D01*
X100298095Y-84542380D02*
X99821904Y-84542380D01*
X99774285Y-85018571D01*
X99821904Y-84970952D01*
X99917142Y-84923333D01*
X100155238Y-84923333D01*
X100250476Y-84970952D01*
X100298095Y-85018571D01*
X100345714Y-85113809D01*
X100345714Y-85351904D01*
X100298095Y-85447142D01*
X100250476Y-85494761D01*
X100155238Y-85542380D01*
X99917142Y-85542380D01*
X99821904Y-85494761D01*
X99774285Y-85447142D01*
%TO.C,U14*%
X78771904Y-84542380D02*
X78771904Y-85351904D01*
X78819523Y-85447142D01*
X78867142Y-85494761D01*
X78962380Y-85542380D01*
X79152857Y-85542380D01*
X79248095Y-85494761D01*
X79295714Y-85447142D01*
X79343333Y-85351904D01*
X79343333Y-84542380D01*
X80343333Y-85542380D02*
X79771904Y-85542380D01*
X80057619Y-85542380D02*
X80057619Y-84542380D01*
X79962380Y-84685238D01*
X79867142Y-84780476D01*
X79771904Y-84828095D01*
X81200476Y-84875714D02*
X81200476Y-85542380D01*
X80962380Y-84494761D02*
X80724285Y-85209047D01*
X81343333Y-85209047D01*
%TO.C,U13*%
X59721904Y-84542380D02*
X59721904Y-85351904D01*
X59769523Y-85447142D01*
X59817142Y-85494761D01*
X59912380Y-85542380D01*
X60102857Y-85542380D01*
X60198095Y-85494761D01*
X60245714Y-85447142D01*
X60293333Y-85351904D01*
X60293333Y-84542380D01*
X61293333Y-85542380D02*
X60721904Y-85542380D01*
X61007619Y-85542380D02*
X61007619Y-84542380D01*
X60912380Y-84685238D01*
X60817142Y-84780476D01*
X60721904Y-84828095D01*
X61626666Y-84542380D02*
X62245714Y-84542380D01*
X61912380Y-84923333D01*
X62055238Y-84923333D01*
X62150476Y-84970952D01*
X62198095Y-85018571D01*
X62245714Y-85113809D01*
X62245714Y-85351904D01*
X62198095Y-85447142D01*
X62150476Y-85494761D01*
X62055238Y-85542380D01*
X61769523Y-85542380D01*
X61674285Y-85494761D01*
X61626666Y-85447142D01*
%TO.C,U12*%
X269271904Y-65492380D02*
X269271904Y-66301904D01*
X269319523Y-66397142D01*
X269367142Y-66444761D01*
X269462380Y-66492380D01*
X269652857Y-66492380D01*
X269748095Y-66444761D01*
X269795714Y-66397142D01*
X269843333Y-66301904D01*
X269843333Y-65492380D01*
X270843333Y-66492380D02*
X270271904Y-66492380D01*
X270557619Y-66492380D02*
X270557619Y-65492380D01*
X270462380Y-65635238D01*
X270367142Y-65730476D01*
X270271904Y-65778095D01*
X271224285Y-65587619D02*
X271271904Y-65540000D01*
X271367142Y-65492380D01*
X271605238Y-65492380D01*
X271700476Y-65540000D01*
X271748095Y-65587619D01*
X271795714Y-65682857D01*
X271795714Y-65778095D01*
X271748095Y-65920952D01*
X271176666Y-66492380D01*
X271795714Y-66492380D01*
%TO.C,U11*%
X250221904Y-65492380D02*
X250221904Y-66301904D01*
X250269523Y-66397142D01*
X250317142Y-66444761D01*
X250412380Y-66492380D01*
X250602857Y-66492380D01*
X250698095Y-66444761D01*
X250745714Y-66397142D01*
X250793333Y-66301904D01*
X250793333Y-65492380D01*
X251793333Y-66492380D02*
X251221904Y-66492380D01*
X251507619Y-66492380D02*
X251507619Y-65492380D01*
X251412380Y-65635238D01*
X251317142Y-65730476D01*
X251221904Y-65778095D01*
X252745714Y-66492380D02*
X252174285Y-66492380D01*
X252460000Y-66492380D02*
X252460000Y-65492380D01*
X252364761Y-65635238D01*
X252269523Y-65730476D01*
X252174285Y-65778095D01*
%TO.C,U10*%
X231171904Y-65492380D02*
X231171904Y-66301904D01*
X231219523Y-66397142D01*
X231267142Y-66444761D01*
X231362380Y-66492380D01*
X231552857Y-66492380D01*
X231648095Y-66444761D01*
X231695714Y-66397142D01*
X231743333Y-66301904D01*
X231743333Y-65492380D01*
X232743333Y-66492380D02*
X232171904Y-66492380D01*
X232457619Y-66492380D02*
X232457619Y-65492380D01*
X232362380Y-65635238D01*
X232267142Y-65730476D01*
X232171904Y-65778095D01*
X233362380Y-65492380D02*
X233457619Y-65492380D01*
X233552857Y-65540000D01*
X233600476Y-65587619D01*
X233648095Y-65682857D01*
X233695714Y-65873333D01*
X233695714Y-66111428D01*
X233648095Y-66301904D01*
X233600476Y-66397142D01*
X233552857Y-66444761D01*
X233457619Y-66492380D01*
X233362380Y-66492380D01*
X233267142Y-66444761D01*
X233219523Y-66397142D01*
X233171904Y-66301904D01*
X233124285Y-66111428D01*
X233124285Y-65873333D01*
X233171904Y-65682857D01*
X233219523Y-65587619D01*
X233267142Y-65540000D01*
X233362380Y-65492380D01*
%TO.C,U9*%
X212598095Y-65492380D02*
X212598095Y-66301904D01*
X212645714Y-66397142D01*
X212693333Y-66444761D01*
X212788571Y-66492380D01*
X212979047Y-66492380D01*
X213074285Y-66444761D01*
X213121904Y-66397142D01*
X213169523Y-66301904D01*
X213169523Y-65492380D01*
X213693333Y-66492380D02*
X213883809Y-66492380D01*
X213979047Y-66444761D01*
X214026666Y-66397142D01*
X214121904Y-66254285D01*
X214169523Y-66063809D01*
X214169523Y-65682857D01*
X214121904Y-65587619D01*
X214074285Y-65540000D01*
X213979047Y-65492380D01*
X213788571Y-65492380D01*
X213693333Y-65540000D01*
X213645714Y-65587619D01*
X213598095Y-65682857D01*
X213598095Y-65920952D01*
X213645714Y-66016190D01*
X213693333Y-66063809D01*
X213788571Y-66111428D01*
X213979047Y-66111428D01*
X214074285Y-66063809D01*
X214121904Y-66016190D01*
X214169523Y-65920952D01*
%TO.C,U8*%
X193548095Y-65492380D02*
X193548095Y-66301904D01*
X193595714Y-66397142D01*
X193643333Y-66444761D01*
X193738571Y-66492380D01*
X193929047Y-66492380D01*
X194024285Y-66444761D01*
X194071904Y-66397142D01*
X194119523Y-66301904D01*
X194119523Y-65492380D01*
X194738571Y-65920952D02*
X194643333Y-65873333D01*
X194595714Y-65825714D01*
X194548095Y-65730476D01*
X194548095Y-65682857D01*
X194595714Y-65587619D01*
X194643333Y-65540000D01*
X194738571Y-65492380D01*
X194929047Y-65492380D01*
X195024285Y-65540000D01*
X195071904Y-65587619D01*
X195119523Y-65682857D01*
X195119523Y-65730476D01*
X195071904Y-65825714D01*
X195024285Y-65873333D01*
X194929047Y-65920952D01*
X194738571Y-65920952D01*
X194643333Y-65968571D01*
X194595714Y-66016190D01*
X194548095Y-66111428D01*
X194548095Y-66301904D01*
X194595714Y-66397142D01*
X194643333Y-66444761D01*
X194738571Y-66492380D01*
X194929047Y-66492380D01*
X195024285Y-66444761D01*
X195071904Y-66397142D01*
X195119523Y-66301904D01*
X195119523Y-66111428D01*
X195071904Y-66016190D01*
X195024285Y-65968571D01*
X194929047Y-65920952D01*
%TO.C,U7*%
X174498095Y-65492380D02*
X174498095Y-66301904D01*
X174545714Y-66397142D01*
X174593333Y-66444761D01*
X174688571Y-66492380D01*
X174879047Y-66492380D01*
X174974285Y-66444761D01*
X175021904Y-66397142D01*
X175069523Y-66301904D01*
X175069523Y-65492380D01*
X175450476Y-65492380D02*
X176117142Y-65492380D01*
X175688571Y-66492380D01*
%TO.C,U6*%
X155448095Y-65492380D02*
X155448095Y-66301904D01*
X155495714Y-66397142D01*
X155543333Y-66444761D01*
X155638571Y-66492380D01*
X155829047Y-66492380D01*
X155924285Y-66444761D01*
X155971904Y-66397142D01*
X156019523Y-66301904D01*
X156019523Y-65492380D01*
X156924285Y-65492380D02*
X156733809Y-65492380D01*
X156638571Y-65540000D01*
X156590952Y-65587619D01*
X156495714Y-65730476D01*
X156448095Y-65920952D01*
X156448095Y-66301904D01*
X156495714Y-66397142D01*
X156543333Y-66444761D01*
X156638571Y-66492380D01*
X156829047Y-66492380D01*
X156924285Y-66444761D01*
X156971904Y-66397142D01*
X157019523Y-66301904D01*
X157019523Y-66063809D01*
X156971904Y-65968571D01*
X156924285Y-65920952D01*
X156829047Y-65873333D01*
X156638571Y-65873333D01*
X156543333Y-65920952D01*
X156495714Y-65968571D01*
X156448095Y-66063809D01*
%TO.C,U5*%
X136398095Y-65492380D02*
X136398095Y-66301904D01*
X136445714Y-66397142D01*
X136493333Y-66444761D01*
X136588571Y-66492380D01*
X136779047Y-66492380D01*
X136874285Y-66444761D01*
X136921904Y-66397142D01*
X136969523Y-66301904D01*
X136969523Y-65492380D01*
X137921904Y-65492380D02*
X137445714Y-65492380D01*
X137398095Y-65968571D01*
X137445714Y-65920952D01*
X137540952Y-65873333D01*
X137779047Y-65873333D01*
X137874285Y-65920952D01*
X137921904Y-65968571D01*
X137969523Y-66063809D01*
X137969523Y-66301904D01*
X137921904Y-66397142D01*
X137874285Y-66444761D01*
X137779047Y-66492380D01*
X137540952Y-66492380D01*
X137445714Y-66444761D01*
X137398095Y-66397142D01*
%TO.C,U4*%
X117348095Y-65492380D02*
X117348095Y-66301904D01*
X117395714Y-66397142D01*
X117443333Y-66444761D01*
X117538571Y-66492380D01*
X117729047Y-66492380D01*
X117824285Y-66444761D01*
X117871904Y-66397142D01*
X117919523Y-66301904D01*
X117919523Y-65492380D01*
X118824285Y-65825714D02*
X118824285Y-66492380D01*
X118586190Y-65444761D02*
X118348095Y-66159047D01*
X118967142Y-66159047D01*
%TO.C,U3*%
X98298095Y-65492380D02*
X98298095Y-66301904D01*
X98345714Y-66397142D01*
X98393333Y-66444761D01*
X98488571Y-66492380D01*
X98679047Y-66492380D01*
X98774285Y-66444761D01*
X98821904Y-66397142D01*
X98869523Y-66301904D01*
X98869523Y-65492380D01*
X99250476Y-65492380D02*
X99869523Y-65492380D01*
X99536190Y-65873333D01*
X99679047Y-65873333D01*
X99774285Y-65920952D01*
X99821904Y-65968571D01*
X99869523Y-66063809D01*
X99869523Y-66301904D01*
X99821904Y-66397142D01*
X99774285Y-66444761D01*
X99679047Y-66492380D01*
X99393333Y-66492380D01*
X99298095Y-66444761D01*
X99250476Y-66397142D01*
%TO.C,U2*%
X79248095Y-65492380D02*
X79248095Y-66301904D01*
X79295714Y-66397142D01*
X79343333Y-66444761D01*
X79438571Y-66492380D01*
X79629047Y-66492380D01*
X79724285Y-66444761D01*
X79771904Y-66397142D01*
X79819523Y-66301904D01*
X79819523Y-65492380D01*
X80248095Y-65587619D02*
X80295714Y-65540000D01*
X80390952Y-65492380D01*
X80629047Y-65492380D01*
X80724285Y-65540000D01*
X80771904Y-65587619D01*
X80819523Y-65682857D01*
X80819523Y-65778095D01*
X80771904Y-65920952D01*
X80200476Y-66492380D01*
X80819523Y-66492380D01*
%TO.C,U1*%
X60198095Y-65492380D02*
X60198095Y-66301904D01*
X60245714Y-66397142D01*
X60293333Y-66444761D01*
X60388571Y-66492380D01*
X60579047Y-66492380D01*
X60674285Y-66444761D01*
X60721904Y-66397142D01*
X60769523Y-66301904D01*
X60769523Y-65492380D01*
X61769523Y-66492380D02*
X61198095Y-66492380D01*
X61483809Y-66492380D02*
X61483809Y-65492380D01*
X61388571Y-65635238D01*
X61293333Y-65730476D01*
X61198095Y-65778095D01*
%TD*%
M02*
